<svg width="292" height="36" viewBox="0 0 292 36" fill="none" xmlns="http://www.w3.org/2000/svg">
<path d="M24.6034 35.1H36.0025V36H24.0049L12.0025 18V36H11.1024V14.8476L24.6034 35.1ZM24.9001 21.1476V0H24.0001V18L12.0025 0H0V0.9H11.404L24.9001 21.1476ZM57.1516 11.1016H36.9026V0H36.0025V12.0016H54.0038L36.0025 23.9984V25.2L57.1516 11.1016ZM50.8268 24.8984H71.0758V36H72.0051V23.9984H54.0038L72.0051 11.9968V10.8L50.8268 24.8984Z" fill="white"/>
<path d="M261.914 9.1167H253.356L242.375 26.9999H249.41L256.547 13.9864L257.559 21.0502H253.594L254.202 25.1951H258.206L258.454 26.9999H265.572L261.914 9.1167Z" fill="white"/>
<path d="M148.311 9.1167H139.758L128.777 26.9999H135.817L142.95 13.9864L143.957 21.0502H139.991L140.604 25.1951H144.609L144.857 26.9999H151.974L148.311 9.1167Z" fill="white"/>
<path d="M220.647 9.1167H212.094L201.113 26.9999H208.153L215.285 13.9864L216.297 21.0502H212.327L212.94 25.1951H216.944L217.188 26.9999H224.31L220.647 9.1167Z" fill="white"/>
<path d="M230.265 9.1167L226.855 26.9999H233.462L236.079 13.2567L245.518 13.2518L246.33 9.1167H230.265Z" fill="white"/>
<path d="M185.578 9.1167L186.201 13.2324H191.232L188.61 26.9999H195.216L197.839 13.2324H204.3L205.083 9.1167H185.578Z" fill="white"/>
<path d="M276.081 21.0453C276.178 22.2956 277.331 22.8356 279.618 22.8356C282.124 22.8356 283.452 22.3491 283.51 21.0453C283.559 20.0723 282.6 19.795 280.513 19.795H277.268L278.129 15.6891H281.078C283.189 15.6891 284.483 15.5431 284.483 14.361C284.483 13.6021 283.476 13.2323 281.511 13.2323C279.837 13.2323 278.854 13.5048 278.538 14.1664H271.016C272.072 10.5518 275.663 9.10205 282.294 9.10205C288.804 9.10205 292 10.2356 292 12.9939C292 15.3826 290.477 17.0026 288.108 17.4696C289.996 17.8637 290.93 18.8415 290.93 20.442C290.93 25.161 286.332 27.3453 278.767 27.3453C272.082 27.3453 268.817 25.8858 268.817 22.281C268.822 21.8615 268.862 21.4432 268.939 21.0307L276.081 21.0453Z" fill="white"/>
<path d="M123.362 9.1167L122.024 16.0589H113.296L114.639 9.1167H107.983L104.573 27.0048H111.18L112.493 20.2037H121.226L119.918 26.9999V27.0048H126.564L129.979 9.1167H123.362Z" fill="white"/>
<path d="M173.07 12.1623L177.935 12.1866C182.095 12.1866 183.973 13.8115 183.973 16.638C183.973 21.0163 180.704 23.7601 175.653 23.7358L170.788 23.7115L170.127 27.0293H163.563L164.225 23.7115H159.336C155.176 23.7115 153.327 21.8677 153.327 19.0169C153.327 14.5947 156.48 12.1623 161.598 12.1623H166.487L167.081 9.16553H173.688L173.07 12.1623ZM165.733 15.9958H163.267C161.209 15.9958 160.09 16.4823 160.09 18.4526C160.09 19.5082 160.912 19.8293 162.556 19.8293H164.989L165.733 15.9958ZM171.572 19.8293H174.004C176.086 19.8293 177.249 19.3136 177.249 17.3482C177.249 16.2926 176.427 15.9958 174.758 15.9958H172.326L171.572 19.8293Z" fill="white"/>
</svg>
