<svg width="24" height="24" viewBox="0 0 24 24" fill="none" xmlns="http://www.w3.org/2000/svg">
<path d="M12.0547 0C12.0483 0.00643031 12.0354 0.00643031 12.0161 0.00643031C5.50862 0.00643031 0.216467 5.29858 0.216467 11.8061C0.216467 14.4618 1.12314 17.0403 2.78216 19.1173L1.06527 23.1041C0.923802 23.4321 1.07813 23.8114 1.39965 23.9465C1.51539 23.9979 1.644 24.0108 1.76617 23.9915L8.06145 22.8855C9.3218 23.342 10.6464 23.5735 11.9839 23.5671C18.4914 23.5671 23.7836 18.2749 23.7836 11.7675C23.7964 5.27928 18.5429 0.00643031 12.0547 0ZM11.9904 22.2875C10.7493 22.2875 9.52114 22.0624 8.35725 21.6251C8.24793 21.5801 8.13219 21.5737 8.01644 21.593L2.71786 22.5189L4.11967 19.2588C4.21612 19.0337 4.17754 18.7701 4.01678 18.5836C3.25801 17.7026 2.65356 16.6995 2.22916 15.6128C1.75331 14.3975 1.50896 13.105 1.50896 11.7996C1.50896 5.99948 6.22881 1.28606 12.0225 1.28606C17.8034 1.2732 22.4975 5.94804 22.5039 11.7289C22.5039 11.7417 22.5039 11.7546 22.5039 11.7675C22.5039 17.574 17.7841 22.2875 11.9904 22.2875Z" fill="white"/>
</svg>
