<svg width="19" height="19" viewBox="0 0 19 19" fill="none" xmlns="http://www.w3.org/2000/svg">
<path d="M11.5882 5.43731C11.6084 5.41328 11.7029 5.33474 12.074 5.33474L13.2907 5.33427C13.6866 5.33427 14.0084 4.99492 14.0084 4.57775V2.33652C14.0084 1.92006 13.687 1.58071 13.2919 1.58L11.4846 1.5769C10.3691 1.5769 9.42087 1.96468 8.74234 2.69847C8.06686 3.42893 7.70976 4.44865 7.70976 5.6472V6.85599H6.32719C5.93136 6.85599 5.60938 7.19534 5.60938 7.61251V10.0263C5.60938 10.4434 5.93136 10.7828 6.32719 10.7828H7.70976V16.4162C7.70976 16.8334 8.03175 17.1727 8.42758 17.1727H10.7973C11.1932 17.1727 11.5152 16.8334 11.5152 16.4162V10.7829H13.2052C13.601 10.7829 13.9229 10.4434 13.9229 10.0265L13.9238 7.61263C13.9238 7.3386 13.7823 7.08504 13.5545 6.95094C13.4489 6.88883 13.3261 6.85599 13.1994 6.85599H11.5152V5.901C11.5152 5.58973 11.5549 5.47705 11.5882 5.43731Z" fill="white"/>
</svg>
