<svg width="17" height="16" viewBox="0 0 17 16" fill="none" xmlns="http://www.w3.org/2000/svg">
<g clip-path="url(#clip0_1511_10289)">
<path d="M11.7397 0.937012H5.26129C3.15282 0.937012 1.4375 2.65233 1.4375 4.7608V11.2394C1.4375 13.3477 3.15282 15.0631 5.26129 15.0631H11.7399C13.8482 15.0631 15.5635 13.3477 15.5635 11.2394V4.7608C15.5635 2.65233 13.8482 0.937012 11.7397 0.937012V0.937012ZM8.50052 11.8625C6.37071 11.8625 4.63804 10.1298 4.63804 8.00003C4.63804 5.87022 6.37071 4.13755 8.50052 4.13755C10.6303 4.13755 12.363 5.87022 12.363 8.00003C12.363 10.1298 10.6303 11.8625 8.50052 11.8625ZM12.4554 5.04845C11.826 5.04845 11.314 4.53653 11.314 3.90713C11.314 3.27774 11.826 2.76571 12.4554 2.76571C13.0848 2.76571 13.5968 3.27774 13.5968 3.90713C13.5968 4.53653 13.0848 5.04845 12.4554 5.04845Z" fill="white"/>
<path d="M8.50057 5.12256C6.91397 5.12256 5.62305 6.41338 5.62305 8.00009C5.62305 9.58669 6.91397 10.8776 8.50057 10.8776C10.0873 10.8776 11.3781 9.58669 11.3781 8.00009C11.3781 6.41338 10.0873 5.12256 8.50057 5.12256Z" fill="white"/>
</g>
<defs>
<clipPath id="clip0_1511_10289">
<rect width="15.1724" height="15.1724" fill="white" transform="translate(0.914062 0.413818)"/>
</clipPath>
</defs>
</svg>
