<svg width="16" height="16" viewBox="0 0 16 16" fill="none" xmlns="http://www.w3.org/2000/svg">
<g clip-path="url(#clip0_1511_10285)">
<path d="M7.80942 2.70872C8.73556 2.70872 9.4889 3.43596 9.4889 4.33C9.4889 5.2233 8.73537 5.95053 7.80942 5.95053C6.88387 5.95053 6.13034 5.2233 6.13034 4.33C6.13015 3.43577 6.88406 2.70872 7.80942 2.70872ZM7.80942 8.24431C10.0465 8.24431 11.8658 6.48865 11.8658 4.33C11.8658 2.17023 10.0467 0.413818 7.80942 0.413818C5.57252 0.413818 3.75307 2.17042 3.75307 4.33C3.75307 6.48865 5.57252 8.24431 7.80942 8.24431ZM9.45045 11.4383C10.2849 11.2549 11.0812 10.9366 11.8058 10.4969C12.0725 10.3349 12.2617 10.0772 12.3316 9.78056C12.4016 9.48393 12.3466 9.17262 12.1788 8.91513C12.0958 8.7875 11.9875 8.67692 11.8602 8.58971C11.7329 8.5025 11.5891 8.44038 11.4369 8.40688C11.2847 8.37339 11.1271 8.36919 10.9732 8.39452C10.8194 8.41985 10.6722 8.47422 10.5401 8.55451C8.87827 9.56308 6.73942 9.56233 5.07897 8.55451C4.9469 8.4742 4.79972 8.41982 4.64585 8.39447C4.49198 8.36913 4.33445 8.37333 4.18226 8.40682C4.03007 8.44032 3.88622 8.50245 3.75894 8.58967C3.63165 8.67689 3.52343 8.78749 3.44047 8.91513C3.2726 9.17256 3.21753 9.48381 3.28737 9.78044C3.3572 10.0771 3.54623 10.3348 3.81287 10.4969C4.53736 10.9364 5.33353 11.2547 6.16781 11.4383L3.90024 13.6277C3.6774 13.8429 3.55224 14.1347 3.55229 14.439C3.55235 14.7433 3.67761 15.0351 3.90053 15.2502C4.12345 15.4653 4.42576 15.5861 4.74096 15.5861C5.05615 15.586 5.35842 15.4651 5.58126 15.2499L7.80904 13.099L10.0382 15.2501C10.1484 15.3567 10.2793 15.4412 10.4234 15.4989C10.5675 15.5565 10.7219 15.5862 10.8779 15.5862C11.0339 15.5862 11.1883 15.5565 11.3324 15.4989C11.4765 15.4412 11.6074 15.3567 11.7176 15.2501C11.8282 15.1437 11.9159 15.0173 11.9757 14.8781C12.0356 14.739 12.0664 14.5898 12.0664 14.4391C12.0664 14.2884 12.0356 14.1392 11.9757 14C11.9159 13.8609 11.8282 13.7345 11.7176 13.6281L9.45045 11.4383Z" fill="white"/>
</g>
<defs>
<clipPath id="clip0_1511_10285">
<rect width="15.1724" height="15.1724" fill="white" transform="translate(0.224609 0.413818)"/>
</clipPath>
</defs>
</svg>
