<svg width="83" height="104" viewBox="0 0 83 104" fill="none" xmlns="http://www.w3.org/2000/svg">
<ellipse cx="39.6505" cy="40.0625" rx="35.5581" ry="35.9375" fill="white"/>
<mask id="path-2-outside-1_2670_10051" maskUnits="userSpaceOnUse" x="0.00769043" y="0.000976562" width="83" height="104" fill="black">
<rect fill="white" x="0.00769043" y="0.000976562" width="83" height="104"/>
<path d="M39.2881 79.3235L36.3229 77.3007L32.9318 78.542C32.2939 78.7754 31.5975 78.8123 30.9372 78.6478C30.2769 78.4833 29.6847 78.1254 29.241 77.6225L26.8752 74.9484L23.2712 75.3315C22.5932 75.3985 21.9103 75.2636 21.3131 74.9448C20.7159 74.6259 20.2326 74.1381 19.9274 73.5462L18.3502 70.4353C16.6941 78.7616 14.7251 87.0241 12.4434 95.2227C16.8544 94.2726 21.2654 93.251 25.6765 92.1578C29.0255 95.1512 32.3403 98.2161 35.621 101.353C37.6188 94.2164 39.3854 87.0726 40.9205 79.9212C40.331 79.868 39.7671 79.6616 39.2881 79.3235Z"/>
<path d="M62.442 73.5463C62.1387 74.1376 61.6567 74.6247 61.0604 74.9424C60.4642 75.2602 59.7823 75.3933 59.1061 75.3239L55.51 74.9408L53.1441 77.6149C52.7005 78.1178 52.1083 78.4757 51.448 78.6402C50.7877 78.8047 50.0913 78.7678 49.4534 78.5344L46.0623 77.2931L43.0971 79.3159C42.5863 79.663 41.9847 79.8623 41.3621 79.8906C42.8973 87.0829 44.6559 94.2344 46.638 101.345C49.9134 98.229 53.2282 95.164 56.5825 92.1502C60.9935 93.2434 65.4046 94.265 69.8156 95.2151C67.5444 87.0625 65.5859 78.8562 63.9404 70.5963L62.442 73.5463Z"/>
<path d="M78.8842 37.5336L80.5798 33.8711C80.7738 33.444 80.8295 32.9697 80.7393 32.5112C80.6492 32.0527 80.4175 31.6317 80.075 31.3042L77.1098 28.4998L77.8196 24.5384C77.9022 24.0808 77.8402 23.6097 77.6417 23.187C77.4432 22.7643 77.1175 22.41 76.7076 22.1708L73.08 20.1556L72.7645 16.1636C72.7235 15.6986 72.5378 15.2568 72.2322 14.8968C71.9265 14.5369 71.5153 14.2758 71.0532 14.1484L67.0628 13.0834L65.7142 9.25223C65.5543 8.81238 65.2605 8.43022 64.8717 8.1565C64.4829 7.88278 64.0176 7.73046 63.5376 7.71978L59.3579 7.68146L57.1104 4.32539C56.8449 3.93968 56.4656 3.64104 56.0222 3.46872C55.5788 3.2964 55.0922 3.25848 54.6262 3.35995L50.5885 4.29474L47.5286 1.58996C47.1704 1.27723 46.7226 1.07812 46.2449 1.01925C45.7672 0.960377 45.2823 1.04454 44.8552 1.26049L41.2196 3.13774L37.5368 1.26049C37.1105 1.04625 36.6272 0.96303 36.1512 1.02188C35.6751 1.08072 35.2287 1.27885 34.8712 1.58996L31.8035 4.29474L27.813 3.35995C27.3447 3.25514 26.8547 3.29138 26.4081 3.46384C25.9615 3.63631 25.5796 3.93682 25.3131 4.32539L23.0024 7.68146L18.8622 7.75042C18.3822 7.76111 17.9169 7.91343 17.5281 8.18715C17.1393 8.46087 16.8455 8.84303 16.6856 9.28288L15.337 13.114L11.3466 14.1791C10.8965 14.311 10.4971 14.5703 10.1993 14.9237C9.90156 15.2772 9.71892 15.7088 9.67472 16.1636L9.30407 20.1556L5.73161 22.1708C5.31593 22.4058 4.98381 22.7582 4.77952 23.1812C4.57522 23.6042 4.50845 24.0776 4.58811 24.5384L5.29787 28.4998L2.30899 31.2966C1.96391 31.6223 1.72923 32.0424 1.63624 32.501C1.54324 32.9596 1.59636 33.4349 1.7885 33.8634L3.48403 37.526L1.34687 40.9587C1.09933 41.358 0.982614 41.821 1.01219 42.2863C1.04177 42.7516 1.21625 43.1971 1.51248 43.5638L4.09916 46.7054L2.88468 50.5365C2.7474 50.9831 2.75307 51.4597 2.90096 51.903C3.04884 52.3464 3.33195 52.7356 3.71273 53.0191L7.01706 55.4404L6.82779 59.4554C6.80419 59.9259 6.92996 60.3922 7.18809 60.791C7.44622 61.1898 7.82424 61.5019 8.27097 61.6851L12.0958 63.2176L12.9396 67.1559C13.0403 67.6134 13.2822 68.0302 13.633 68.3506C13.9839 68.671 14.4271 68.8797 14.9033 68.9489L18.9962 69.5159L20.818 73.1249C21.0124 73.5068 21.3122 73.8287 21.6841 74.0547C22.0559 74.2806 22.485 74.4017 22.9236 74.4045H23.1759L27.2925 73.9677L29.9817 77.0326C30.2963 77.3849 30.7137 77.6358 31.1786 77.7521C31.6434 77.8685 32.1336 77.8447 32.5842 77.6839L36.4879 76.2357L39.879 78.5344C40.2742 78.7997 40.7432 78.9417 41.2236 78.9417C41.7039 78.9417 42.1729 78.7997 42.5682 78.5344L45.9592 76.2357L49.7998 77.6226C50.2504 77.7834 50.7406 77.8072 51.2055 77.6908C51.6703 77.5745 52.0877 77.3236 52.4023 76.9713L55.0915 73.9064L59.2081 74.3432H59.4604C59.8982 74.3412 60.3267 74.2212 60.6985 73.9967C61.0702 73.7721 61.3706 73.4517 61.5661 73.0712L63.3878 69.4623L67.4807 68.8953C67.957 68.8261 68.4001 68.6174 68.751 68.297C69.1019 67.9766 69.3438 67.5598 69.4444 67.1023L70.2882 63.1639L74.113 61.6315C74.5559 61.4497 74.9312 61.1411 75.189 60.7469C75.4468 60.3526 75.5749 59.8915 75.5562 59.4247L75.367 55.4097L78.6713 52.9884C79.0521 52.705 79.3352 52.3158 79.4831 51.8724C79.631 51.429 79.6366 50.9524 79.4993 50.5059L78.2849 46.6747L80.8715 43.5332C81.1678 43.1665 81.3423 42.7209 81.3718 42.2557C81.4014 41.7904 81.2847 41.3274 81.0372 40.928L78.8842 37.5336ZM41.2196 73.0789C34.4824 73.0834 27.8951 71.1466 22.2909 67.5134C16.6868 63.8801 12.3174 58.7137 9.73562 52.6675C7.15379 46.6214 6.47544 39.9671 7.78636 33.5463C9.09729 27.1255 12.3386 21.2267 17.1003 16.5959C21.862 11.9651 27.9303 8.8104 34.5375 7.53076C41.1448 6.25111 47.9942 6.90404 54.2194 9.40694C60.4447 11.9098 65.7662 16.1503 69.5108 21.5919C73.2554 27.0336 75.255 33.432 75.2566 39.9779C75.2482 48.749 71.6605 57.1591 65.2801 63.3641C58.8996 69.5691 50.2471 73.0627 41.2196 73.0789Z"/>
</mask>
<path d="M39.2881 79.3235L36.3229 77.3007L32.9318 78.542C32.2939 78.7754 31.5975 78.8123 30.9372 78.6478C30.2769 78.4833 29.6847 78.1254 29.241 77.6225L26.8752 74.9484L23.2712 75.3315C22.5932 75.3985 21.9103 75.2636 21.3131 74.9448C20.7159 74.6259 20.2326 74.1381 19.9274 73.5462L18.3502 70.4353C16.6941 78.7616 14.7251 87.0241 12.4434 95.2227C16.8544 94.2726 21.2654 93.251 25.6765 92.1578C29.0255 95.1512 32.3403 98.2161 35.621 101.353C37.6188 94.2164 39.3854 87.0726 40.9205 79.9212C40.331 79.868 39.7671 79.6616 39.2881 79.3235Z" fill="#445562"/>
<path d="M62.442 73.5463C62.1387 74.1376 61.6567 74.6247 61.0604 74.9424C60.4642 75.2602 59.7823 75.3933 59.1061 75.3239L55.51 74.9408L53.1441 77.6149C52.7005 78.1178 52.1083 78.4757 51.448 78.6402C50.7877 78.8047 50.0913 78.7678 49.4534 78.5344L46.0623 77.2931L43.0971 79.3159C42.5863 79.663 41.9847 79.8623 41.3621 79.8906C42.8973 87.0829 44.6559 94.2344 46.638 101.345C49.9134 98.229 53.2282 95.164 56.5825 92.1502C60.9935 93.2434 65.4046 94.265 69.8156 95.2151C67.5444 87.0625 65.5859 78.8562 63.9404 70.5963L62.442 73.5463Z" fill="#445562"/>
<path d="M78.8842 37.5336L80.5798 33.8711C80.7738 33.444 80.8295 32.9697 80.7393 32.5112C80.6492 32.0527 80.4175 31.6317 80.075 31.3042L77.1098 28.4998L77.8196 24.5384C77.9022 24.0808 77.8402 23.6097 77.6417 23.187C77.4432 22.7643 77.1175 22.41 76.7076 22.1708L73.08 20.1556L72.7645 16.1636C72.7235 15.6986 72.5378 15.2568 72.2322 14.8968C71.9265 14.5369 71.5153 14.2758 71.0532 14.1484L67.0628 13.0834L65.7142 9.25223C65.5543 8.81238 65.2605 8.43022 64.8717 8.1565C64.4829 7.88278 64.0176 7.73046 63.5376 7.71978L59.3579 7.68146L57.1104 4.32539C56.8449 3.93968 56.4656 3.64104 56.0222 3.46872C55.5788 3.2964 55.0922 3.25848 54.6262 3.35995L50.5885 4.29474L47.5286 1.58996C47.1704 1.27723 46.7226 1.07812 46.2449 1.01925C45.7672 0.960377 45.2823 1.04454 44.8552 1.26049L41.2196 3.13774L37.5368 1.26049C37.1105 1.04625 36.6272 0.96303 36.1512 1.02188C35.6751 1.08072 35.2287 1.27885 34.8712 1.58996L31.8035 4.29474L27.813 3.35995C27.3447 3.25514 26.8547 3.29138 26.4081 3.46384C25.9615 3.63631 25.5796 3.93682 25.3131 4.32539L23.0024 7.68146L18.8622 7.75042C18.3822 7.76111 17.9169 7.91343 17.5281 8.18715C17.1393 8.46087 16.8455 8.84303 16.6856 9.28288L15.337 13.114L11.3466 14.1791C10.8965 14.311 10.4971 14.5703 10.1993 14.9237C9.90156 15.2772 9.71892 15.7088 9.67472 16.1636L9.30407 20.1556L5.73161 22.1708C5.31593 22.4058 4.98381 22.7582 4.77952 23.1812C4.57522 23.6042 4.50845 24.0776 4.58811 24.5384L5.29787 28.4998L2.30899 31.2966C1.96391 31.6223 1.72923 32.0424 1.63624 32.501C1.54324 32.9596 1.59636 33.4349 1.7885 33.8634L3.48403 37.526L1.34687 40.9587C1.09933 41.358 0.982614 41.821 1.01219 42.2863C1.04177 42.7516 1.21625 43.1971 1.51248 43.5638L4.09916 46.7054L2.88468 50.5365C2.7474 50.9831 2.75307 51.4597 2.90096 51.903C3.04884 52.3464 3.33195 52.7356 3.71273 53.0191L7.01706 55.4404L6.82779 59.4554C6.80419 59.9259 6.92996 60.3922 7.18809 60.791C7.44622 61.1898 7.82424 61.5019 8.27097 61.6851L12.0958 63.2176L12.9396 67.1559C13.0403 67.6134 13.2822 68.0302 13.633 68.3506C13.9839 68.671 14.4271 68.8797 14.9033 68.9489L18.9962 69.5159L20.818 73.1249C21.0124 73.5068 21.3122 73.8287 21.6841 74.0547C22.0559 74.2806 22.485 74.4017 22.9236 74.4045H23.1759L27.2925 73.9677L29.9817 77.0326C30.2963 77.3849 30.7137 77.6358 31.1786 77.7521C31.6434 77.8685 32.1336 77.8447 32.5842 77.6839L36.4879 76.2357L39.879 78.5344C40.2742 78.7997 40.7432 78.9417 41.2236 78.9417C41.7039 78.9417 42.1729 78.7997 42.5682 78.5344L45.9592 76.2357L49.7998 77.6226C50.2504 77.7834 50.7406 77.8072 51.2055 77.6908C51.6703 77.5745 52.0877 77.3236 52.4023 76.9713L55.0915 73.9064L59.2081 74.3432H59.4604C59.8982 74.3412 60.3267 74.2212 60.6985 73.9967C61.0702 73.7721 61.3706 73.4517 61.5661 73.0712L63.3878 69.4623L67.4807 68.8953C67.957 68.8261 68.4001 68.6174 68.751 68.297C69.1019 67.9766 69.3438 67.5598 69.4444 67.1023L70.2882 63.1639L74.113 61.6315C74.5559 61.4497 74.9312 61.1411 75.189 60.7469C75.4468 60.3526 75.5749 59.8915 75.5562 59.4247L75.367 55.4097L78.6713 52.9884C79.0521 52.705 79.3352 52.3158 79.4831 51.8724C79.631 51.429 79.6366 50.9524 79.4993 50.5059L78.2849 46.6747L80.8715 43.5332C81.1678 43.1665 81.3423 42.7209 81.3718 42.2557C81.4014 41.7904 81.2847 41.3274 81.0372 40.928L78.8842 37.5336ZM41.2196 73.0789C34.4824 73.0834 27.8951 71.1466 22.2909 67.5134C16.6868 63.8801 12.3174 58.7137 9.73562 52.6675C7.15379 46.6214 6.47544 39.9671 7.78636 33.5463C9.09729 27.1255 12.3386 21.2267 17.1003 16.5959C21.862 11.9651 27.9303 8.8104 34.5375 7.53076C41.1448 6.25111 47.9942 6.90404 54.2194 9.40694C60.4447 11.9098 65.7662 16.1503 69.5108 21.5919C73.2554 27.0336 75.255 33.432 75.2566 39.9779C75.2482 48.749 71.6605 57.1591 65.2801 63.3641C58.8996 69.5691 50.2471 73.0627 41.2196 73.0789Z" fill="#445562"/>
<path d="M39.2881 79.3235L39.8647 78.5065L39.8582 78.5019L39.8516 78.4974L39.2881 79.3235ZM36.3229 77.3007L36.8864 76.4746L36.4618 76.1849L35.9791 76.3616L36.3229 77.3007ZM32.9318 78.542L33.2754 79.4811L33.2755 79.481L32.9318 78.542ZM29.241 77.6225L29.9909 76.9609L29.99 76.9599L29.241 77.6225ZM26.8752 74.9484L27.6241 74.2858L27.2824 73.8995L26.7695 73.954L26.8752 74.9484ZM23.2712 75.3315L23.3696 76.3267L23.3769 76.3259L23.2712 75.3315ZM19.9274 73.5462L19.0355 73.9984L19.0386 74.0045L19.9274 73.5462ZM18.3502 70.4353L19.2421 69.9831L17.9338 67.4026L17.3694 70.2402L18.3502 70.4353ZM12.4434 95.2227L11.48 94.9546L11.0363 96.5487L12.654 96.2003L12.4434 95.2227ZM25.6765 92.1578L26.3429 91.4122L25.9489 91.0601L25.4359 91.1872L25.6765 92.1578ZM35.621 101.353L34.93 102.075L36.1347 103.227L36.584 101.622L35.621 101.353ZM40.9205 79.9212L41.8983 80.1311L42.1353 79.0267L41.0104 78.9252L40.9205 79.9212ZM62.442 73.5463L63.3318 74.0026L63.3335 73.9991L62.442 73.5463ZM59.1061 75.3239L59.0002 76.3183L59.0041 76.3187L59.1061 75.3239ZM55.51 74.9408L55.6159 73.9464L55.1029 73.8918L54.761 74.2782L55.51 74.9408ZM53.1441 77.6149L52.3952 76.9523L52.3942 76.9533L53.1441 77.6149ZM49.4534 78.5344L49.1096 79.4735L49.1098 79.4735L49.4534 78.5344ZM46.0623 77.2931L46.406 76.354L45.9234 76.1774L45.4987 76.467L46.0623 77.2931ZM43.0971 79.3159L43.6591 80.1431L43.6606 80.142L43.0971 79.3159ZM41.3621 79.8906L41.3166 78.8916L40.1378 78.9453L40.3841 80.0993L41.3621 79.8906ZM46.638 101.345L45.6747 101.613L46.1215 103.216L47.3272 102.069L46.638 101.345ZM56.5825 92.1502L56.8231 91.1796L56.3085 91.0521L55.9142 91.4064L56.5825 92.1502ZM69.8156 95.2151L69.605 96.1927L71.2231 96.5412L70.7789 94.9468L69.8156 95.2151ZM63.9404 70.5963L64.9211 70.4009L64.3568 67.5683L63.0488 70.1434L63.9404 70.5963ZM78.8842 37.5336L77.9767 37.1135L77.7476 37.6086L78.0398 38.0693L78.8842 37.5336ZM80.5798 33.8711L81.4873 34.2912L81.4902 34.2848L80.5798 33.8711ZM80.075 31.3042L80.7662 30.5815L80.7622 30.5777L80.075 31.3042ZM77.1098 28.4998L76.1255 28.3235L76.0302 28.8552L76.4227 29.2264L77.1098 28.4998ZM77.8196 24.5384L76.8355 24.3608L76.8353 24.3621L77.8196 24.5384ZM76.7076 22.1708L77.2117 21.3072L77.2025 21.3018L77.1932 21.2966L76.7076 22.1708ZM73.08 20.1556L72.0831 20.2344L72.1253 20.7693L72.5944 21.0298L73.08 20.1556ZM72.7645 16.1636L73.7614 16.0848L73.7606 16.0758L72.7645 16.1636ZM71.0532 14.1484L71.319 13.1844L71.3111 13.1822L71.0532 14.1484ZM67.0628 13.0834L66.1195 13.4154L66.2948 13.9134L66.8049 14.0495L67.0628 13.0834ZM65.7142 9.25223L66.6575 8.92018L66.654 8.91054L65.7142 9.25223ZM64.8717 8.1565L65.4474 7.33883L64.8717 8.1565ZM63.5376 7.71978L63.5599 6.71994L63.5468 6.71982L63.5376 7.71978ZM59.3579 7.68146L58.527 8.23791L58.8208 8.67658L59.3488 8.68142L59.3579 7.68146ZM57.1104 4.32539L57.9413 3.7689L57.9342 3.75852L57.1104 4.32539ZM54.6262 3.35995L54.4134 2.38276L54.4006 2.38572L54.6262 3.35995ZM50.5885 4.29474L49.9262 5.04399L50.3121 5.38517L50.814 5.26898L50.5885 4.29474ZM47.5286 1.58996L48.1909 0.840709L48.1863 0.83671L47.5286 1.58996ZM44.8552 1.26049L44.404 0.36801L44.3964 0.37195L44.8552 1.26049ZM41.2196 3.13774L40.7655 4.02868L41.2226 4.26166L41.6784 4.02628L41.2196 3.13774ZM37.5368 1.26049L37.9909 0.369539L37.9858 0.36699L37.5368 1.26049ZM34.8712 1.58996L34.2147 0.83562L34.2099 0.839878L34.8712 1.58996ZM31.8035 4.29474L31.5754 5.26838L32.0778 5.38607L32.4648 5.04483L31.8035 4.29474ZM27.813 3.35995L28.0411 2.38626L28.0314 2.38409L27.813 3.35995ZM25.3131 4.32539L26.1368 4.89248L26.1378 4.89095L25.3131 4.32539ZM23.0024 7.68146L23.0191 8.68132L23.534 8.67275L23.8261 8.24855L23.0024 7.68146ZM18.8622 7.75042L18.8455 6.75055L18.8399 6.75067L18.8622 7.75042ZM16.6856 9.28288L15.7457 8.94118L15.7423 8.95085L16.6856 9.28288ZM15.337 13.114L15.5949 14.0802L16.105 13.944L16.2803 13.446L15.337 13.114ZM11.3466 14.1791L11.0887 13.2129L11.0769 13.216L11.0652 13.2195L11.3466 14.1791ZM9.67472 16.1636L8.6794 16.0668L8.679 16.0711L9.67472 16.1636ZM9.30407 20.1556L9.79538 21.0266L10.2514 20.7694L10.2998 20.2481L9.30407 20.1556ZM5.73161 22.1708L5.2403 21.2998L5.23954 21.3002L5.73161 22.1708ZM4.58811 24.5384L3.6027 24.7088L3.60378 24.7148L4.58811 24.5384ZM5.29787 28.4998L5.98111 29.23L6.37807 28.8586L6.28219 28.3235L5.29787 28.4998ZM2.30899 31.2966L1.62573 30.5664L1.6226 30.5693L2.30899 31.2966ZM1.7885 33.8634L0.875953 34.2726L0.881021 34.2835L1.7885 33.8634ZM3.48403 37.526L4.33295 38.0545L4.61841 37.596L4.39151 37.1059L3.48403 37.526ZM1.34687 40.9587L0.49795 40.4301L0.496913 40.4318L1.34687 40.9587ZM1.51248 43.5638L0.734552 44.1923L0.740493 44.1995L1.51248 43.5638ZM4.09916 46.7054L5.05241 47.0076L5.21667 46.4894L4.87115 46.0697L4.09916 46.7054ZM2.88468 50.5365L1.9314 50.2343L1.92883 50.2427L2.88468 50.5365ZM3.71273 53.0191L3.1156 53.8213L3.12167 53.8257L3.71273 53.0191ZM7.01706 55.4404L8.01595 55.4874L8.04124 54.9511L7.60812 54.6337L7.01706 55.4404ZM6.82779 59.4554L7.82654 59.5055L7.82668 59.5025L6.82779 59.4554ZM8.27097 61.6851L7.89158 62.6104L7.89905 62.6134L8.27097 61.6851ZM12.0958 63.2176L13.0736 63.008L12.962 62.4873L12.4677 62.2893L12.0958 63.2176ZM12.9396 67.1559L11.9618 67.3654L11.963 67.3708L12.9396 67.1559ZM14.9033 68.9489L14.7595 69.9386L14.7661 69.9395L14.9033 68.9489ZM18.9962 69.5159L19.8889 69.0653L19.6527 68.5973L19.1335 68.5254L18.9962 69.5159ZM20.818 73.1249L19.9252 73.5755L19.9268 73.5785L20.818 73.1249ZM22.9236 74.4045L22.9174 75.4045H22.9236V74.4045ZM23.1759 74.4045V75.4045H23.2288L23.2814 75.3989L23.1759 74.4045ZM27.2925 73.9677L28.0442 73.3082L27.7024 72.9186L27.187 72.9733L27.2925 73.9677ZM29.9817 77.0326L29.23 77.6922L29.2359 77.6987L29.9817 77.0326ZM32.5842 77.6839L32.9203 78.6258L32.932 78.6215L32.5842 77.6839ZM36.4879 76.2357L37.049 75.408L36.6228 75.1191L36.1401 75.2982L36.4879 76.2357ZM39.879 78.5344L39.3179 79.3622L39.3217 79.3648L39.879 78.5344ZM42.5682 78.5344L43.1254 79.3648L43.1293 79.3622L42.5682 78.5344ZM45.9592 76.2357L46.2989 75.2952L45.8198 75.1222L45.3981 75.408L45.9592 76.2357ZM49.7998 77.6226L49.4602 78.5632L49.4638 78.5645L49.7998 77.6226ZM52.4023 76.9713L53.1482 77.6374L53.154 77.6308L52.4023 76.9713ZM55.0915 73.9064L55.197 72.912L54.6816 72.8573L54.3398 73.2469L55.0915 73.9064ZM59.2081 74.3432L59.1026 75.3376L59.1552 75.3432H59.2081V74.3432ZM59.4604 74.3432V75.3432L59.465 75.3431L59.4604 74.3432ZM61.5661 73.0712L62.4556 73.5283L62.4588 73.5219L61.5661 73.0712ZM63.3878 69.4623L63.2506 68.4718L62.7313 68.5437L62.4951 69.0117L63.3878 69.4623ZM67.4807 68.8953L67.618 69.8859L67.6245 69.8849L67.4807 68.8953ZM69.4444 67.1023L70.4211 67.3172L70.4222 67.3118L69.4444 67.1023ZM70.2882 63.1639L69.9163 62.2357L69.422 62.4337L69.3104 62.9544L70.2882 63.1639ZM74.113 61.6315L74.485 62.5598L74.4929 62.5565L74.113 61.6315ZM75.5562 59.4247L76.5555 59.3847L76.5551 59.3776L75.5562 59.4247ZM75.367 55.4097L74.7759 54.6031L74.3428 54.9205L74.3681 55.4568L75.367 55.4097ZM78.6713 52.9884L79.2624 53.7951L79.2684 53.7906L78.6713 52.9884ZM79.4993 50.5059L80.4552 50.212L80.4526 50.2037L79.4993 50.5059ZM78.2849 46.6747L77.5129 46.0391L77.1674 46.4587L77.3316 46.9769L78.2849 46.6747ZM80.8715 43.5332L81.6436 44.1689L81.6494 44.1616L80.8715 43.5332ZM81.0372 40.928L81.8872 40.4011L81.8816 40.3924L81.0372 40.928ZM41.2196 73.0789L41.2203 74.0789L41.2214 74.0789L41.2196 73.0789ZM75.2566 39.9779L76.2566 39.9789V39.9777L75.2566 39.9779ZM39.8516 78.4974L36.8864 76.4746L35.7593 78.1268L38.7246 80.1496L39.8516 78.4974ZM35.9791 76.3616L32.5881 77.6029L33.2755 79.481L36.6666 78.2398L35.9791 76.3616ZM32.5882 77.6029C32.1382 77.7675 31.6457 77.7938 31.1789 77.6775L30.6954 79.6182C31.5492 79.8309 32.4495 79.7833 33.2754 79.4811L32.5882 77.6029ZM31.1789 77.6775C30.7123 77.5612 30.2983 77.3093 29.9909 76.9609L28.4912 78.2841C29.0711 78.9414 29.8415 79.4054 30.6954 79.6182L31.1789 77.6775ZM29.99 76.9599L27.6241 74.2858L26.1262 75.611L28.4921 78.2851L29.99 76.9599ZM26.7695 73.954L23.1655 74.3371L23.3769 76.3259L26.9809 75.9428L26.7695 73.954ZM23.1728 74.3363C22.6903 74.384 22.2057 74.2877 21.7841 74.0626L20.8421 75.8269C21.615 76.2395 22.4961 76.413 23.3696 76.3266L23.1728 74.3363ZM21.7841 74.0626C21.3628 73.8377 21.0268 73.4963 20.8162 73.0879L19.0386 74.0045C19.4385 74.78 20.069 75.4141 20.8421 75.8269L21.7841 74.0626ZM20.8193 73.094L19.2421 69.9831L17.4583 70.8875L19.0355 73.9984L20.8193 73.094ZM17.3694 70.2402C15.7182 78.5419 13.7551 86.7801 11.48 94.9546L13.4068 95.4909C15.6952 87.2682 17.67 78.9813 19.331 70.6304L17.3694 70.2402ZM12.654 96.2003C17.0751 95.248 21.4961 94.2241 25.917 93.1285L25.4359 91.1872C21.0348 92.2779 16.6338 93.2972 12.2328 94.2452L12.654 96.2003ZM25.0101 92.9034C28.3507 95.8893 31.6573 98.9466 34.93 102.075L36.312 100.63C33.0234 97.4857 29.7003 94.4132 26.3429 91.4122L25.0101 92.9034ZM36.584 101.622C38.5873 94.4665 40.3587 87.3028 41.8983 80.1311L39.9428 79.7113C38.412 86.8424 36.6504 93.9663 34.658 101.083L36.584 101.622ZM41.0104 78.9252C40.5942 78.8877 40.1986 78.7421 39.8647 78.5065L38.7115 80.1406C39.3357 80.581 40.0678 80.8483 40.8307 80.9171L41.0104 78.9252ZM61.5522 73.0899C61.3436 73.4965 61.0095 73.8365 60.5902 74.0599L61.5307 75.825C62.3038 75.413 62.9337 74.7787 63.3318 74.0026L61.5522 73.0899ZM60.5902 74.0599C60.1705 74.2836 59.688 74.3783 59.2081 74.3291L59.0041 76.3187C59.8767 76.4082 60.758 76.2367 61.5307 75.825L60.5902 74.0599ZM59.212 74.3295L55.6159 73.9464L55.404 75.9352L59.0002 76.3183L59.212 74.3295ZM54.761 74.2782L52.3952 76.9523L53.8931 78.2775L56.2589 75.6034L54.761 74.2782ZM52.3942 76.9533C52.0869 77.3017 51.6729 77.5536 51.2063 77.6699L51.6897 79.6106C52.5437 79.3978 53.3141 78.9338 53.894 78.2765L52.3942 76.9533ZM51.2063 77.6699C50.7394 77.7862 50.2469 77.7599 49.797 77.5953L49.1098 79.4735C49.9357 79.7757 50.836 79.8233 51.6897 79.6106L51.2063 77.6699ZM49.7971 77.5953L46.406 76.354L45.7185 78.2322L49.1096 79.4735L49.7971 77.5953ZM45.4987 76.467L42.5335 78.4899L43.6606 80.142L46.6258 78.1192L45.4987 76.467ZM42.535 78.4888C42.1788 78.7309 41.7563 78.8716 41.3166 78.8916L41.4076 80.8896C42.2131 80.8529 42.9939 80.5951 43.6591 80.1431L42.535 78.4888ZM40.3841 80.0993C41.9236 87.3118 43.6871 94.4832 45.6747 101.613L47.6013 101.076C45.6247 93.9855 43.871 86.854 42.3401 79.6819L40.3841 80.0993ZM47.3272 102.069C50.5958 98.96 53.9037 95.9015 57.2509 92.8941L55.9142 91.4064C52.5528 94.4266 49.231 97.4979 45.9487 100.62L47.3272 102.069ZM56.342 93.1209C60.7629 94.2165 65.1839 95.2404 69.605 96.1927L70.0262 94.2375C65.6252 93.2896 61.2242 92.2703 56.8231 91.1796L56.342 93.1209ZM70.7789 94.9468C68.5144 86.8181 66.5618 78.6362 64.9211 70.4009L62.9596 70.7917C64.6101 79.0762 66.5744 87.3069 68.8523 95.4835L70.7789 94.9468ZM63.0488 70.1434L61.5504 73.0934L63.3335 73.9991L64.8319 71.0491L63.0488 70.1434ZM79.7917 37.9538L81.4872 34.2912L79.6723 33.451L77.9767 37.1135L79.7917 37.9538ZM81.4902 34.2848C81.7702 33.6687 81.8511 32.9823 81.7206 32.3183L79.7581 32.7041C79.8079 32.9572 79.7775 33.2194 79.6694 33.4573L81.4902 34.2848ZM81.7206 32.3183C81.59 31.6545 81.2554 31.0493 80.7662 30.5815L79.3839 32.027C79.5796 32.2141 79.7083 32.4509 79.7581 32.7041L81.7206 32.3183ZM80.7622 30.5777L77.7969 27.7733L76.4227 29.2264L79.3879 32.0308L80.7622 30.5777ZM78.0941 28.6762L78.8039 24.7148L76.8353 24.3621L76.1255 28.3235L78.0941 28.6762ZM78.8037 24.7161C78.9233 24.0533 78.8331 23.3716 78.5468 22.7619L76.7365 23.6121C76.8472 23.8478 76.8811 24.1083 76.8355 24.3608L78.8037 24.7161ZM78.5468 22.7619C78.2607 22.1526 77.7936 21.6468 77.2117 21.3072L76.2035 23.0345C76.4414 23.1733 76.6257 23.3761 76.7365 23.6121L78.5468 22.7619ZM77.1932 21.2966L73.5656 19.2815L72.5944 21.0298L76.222 23.045L77.1932 21.2966ZM74.0769 20.0769L73.7614 16.0848L71.7676 16.2424L72.0831 20.2344L74.0769 20.0769ZM73.7606 16.0758C73.7012 15.402 73.4324 14.7653 72.9944 14.2495L71.4699 15.5441C71.6433 15.7483 71.7458 15.9952 71.7684 16.2514L73.7606 16.0758ZM72.9944 14.2495C72.5567 13.7341 71.9715 13.3643 71.319 13.1844L70.7874 15.1124C71.059 15.1873 71.2962 15.3396 71.4699 15.5441L72.9944 14.2495ZM71.3111 13.1822L67.3206 12.1172L66.8049 14.0495L70.7953 15.1146L71.3111 13.1822ZM68.006 12.7513L66.6575 8.9202L64.771 9.58425L66.1195 13.4154L68.006 12.7513ZM66.654 8.91054C66.4231 8.2753 66.0005 7.72825 65.4474 7.33883L64.296 8.97417C64.5204 9.13218 64.6855 9.34947 64.7744 9.59391L66.654 8.91054ZM65.4474 7.33883C64.8946 6.94964 64.2363 6.73508 63.5599 6.72002L63.5154 8.71953C63.799 8.72584 64.0712 8.81591 64.296 8.97417L65.4474 7.33883ZM63.5468 6.71982L59.3671 6.68151L59.3488 8.68142L63.5285 8.71973L63.5468 6.71982ZM60.1888 7.12502L57.9412 3.76895L56.2795 4.88184L58.527 8.23791L60.1888 7.12502ZM57.9342 3.75852C57.5531 3.20473 57.0117 2.78039 56.3845 2.53664L55.66 4.4008C55.9195 4.50168 56.1368 4.67463 56.2866 4.89226L57.9342 3.75852ZM56.3845 2.53664C55.7575 2.29297 55.0708 2.2397 54.4134 2.38284L54.839 4.33705C55.1135 4.27727 55.4002 4.29983 55.66 4.4008L56.3845 2.53664ZM54.4006 2.38572L50.3629 3.32051L50.814 5.26898L54.8517 4.33418L54.4006 2.38572ZM51.2507 3.5455L48.1909 0.840722L46.8663 2.33921L49.9262 5.04399L51.2507 3.5455ZM48.1863 0.83671C47.6757 0.3908 47.0407 0.10976 46.3672 0.0267593L46.1226 2.01174C46.4045 2.04649 46.6652 2.16366 46.8709 2.34322L48.1863 0.83671ZM46.3672 0.0267593C45.6938 -0.0562302 45.0092 0.0620791 44.404 0.368043L45.3063 2.15293C45.5554 2.02699 45.8405 1.97698 46.1226 2.01174L46.3672 0.0267593ZM44.3964 0.37195L40.7608 2.2492L41.6784 4.02628L45.314 2.14902L44.3964 0.37195ZM41.6737 2.24681L37.9909 0.369553L37.0826 2.15142L40.7655 4.02868L41.6737 2.24681ZM37.9858 0.36699C37.3819 0.0634655 36.6996 -0.0535226 36.0285 0.029429L36.2738 2.01432C36.5549 1.97958 36.8391 2.02903 37.0877 2.15398L37.9858 0.36699ZM36.0285 0.029429C35.3573 0.112391 34.7244 0.392058 34.2147 0.835636L35.5277 2.34429C35.733 2.16564 35.9929 2.04905 36.2738 2.01432L36.0285 0.029429ZM34.2099 0.839878L31.1421 3.54466L32.4648 5.04483L35.5325 2.34005L34.2099 0.839878ZM32.0315 3.3211L28.0411 2.38631L27.5849 4.33359L31.5754 5.26838L32.0315 3.3211ZM28.0314 2.38409C27.3707 2.23622 26.6793 2.28713 26.0478 2.53099L26.7684 4.3967C27.0301 4.29563 27.3187 4.27406 27.5946 4.33581L28.0314 2.38409ZM26.0478 2.53099C25.4161 2.77494 24.871 3.20192 24.4884 3.75984L26.1378 4.89095C26.2881 4.67173 26.5069 4.49767 26.7684 4.3967L26.0478 2.53099ZM24.4894 3.7583L22.1788 7.11437L23.8261 8.24855L26.1368 4.89248L24.4894 3.7583ZM22.9858 6.6816L18.8455 6.75056L18.8788 8.75029L23.0191 8.68132L22.9858 6.6816ZM18.8399 6.75067C18.1635 6.76573 17.5052 6.98029 16.9524 7.36948L18.1038 9.00482C18.3286 8.84656 18.6008 8.75649 18.8844 8.75018L18.8399 6.75067ZM16.9524 7.36948C16.3993 7.7589 15.9767 8.30595 15.7458 8.94119L17.6254 9.62456C17.7143 9.38012 17.8794 9.16283 18.1038 9.00482L16.9524 7.36948ZM15.7423 8.95085L14.3938 12.782L16.2803 13.446L17.6288 9.61491L15.7423 8.95085ZM15.0792 12.1478L11.0887 13.2129L11.6045 15.1452L15.5949 14.0802L15.0792 12.1478ZM11.0652 13.2195C10.4295 13.4059 9.86097 13.7733 9.43456 14.2794L10.9641 15.568C11.1333 15.3673 11.3635 15.2162 11.628 15.1387L11.0652 13.2195ZM9.43456 14.2794C9.00786 14.7859 8.74346 15.408 8.67941 16.0668L10.67 16.2603C10.6944 16.0097 10.7953 15.7685 10.9641 15.568L9.43456 14.2794ZM8.679 16.0711L8.30835 20.0632L10.2998 20.2481L10.6704 16.256L8.679 16.0711ZM8.81276 19.2846L5.2403 21.2998L6.22292 23.0418L9.79538 21.0266L8.81276 19.2846ZM5.23954 21.3002C4.64965 21.6337 4.17347 22.1367 3.87904 22.7463L5.67999 23.6161C5.79415 23.3798 5.9822 23.1779 6.22368 23.0414L5.23954 21.3002ZM3.87904 22.7463C3.58442 23.3563 3.48734 24.0413 3.60272 24.7088L5.57349 24.3681C5.52956 24.114 5.56603 23.8521 5.67999 23.6161L3.87904 22.7463ZM3.60378 24.7148L4.31354 28.6762L6.28219 28.3235L5.57243 24.3621L3.60378 24.7148ZM4.61462 27.7696L1.62574 30.5664L2.99223 32.0268L5.98111 29.23L4.61462 27.7696ZM1.6226 30.5693C1.1297 31.0345 0.790799 31.6384 0.656183 32.3023L2.61629 32.6998C2.66766 32.4464 2.79812 32.21 2.99538 32.0238L1.6226 30.5693ZM0.656183 32.3023C0.52152 32.9664 0.598757 33.6542 0.876019 34.2725L2.70097 33.4543C2.59396 33.2156 2.56497 32.9529 2.61629 32.6998L0.656183 32.3023ZM0.881021 34.2835L2.57656 37.9461L4.39151 37.1059L2.69597 33.4433L0.881021 34.2835ZM2.63512 36.9975L0.497952 40.4301L2.19578 41.4872L4.33295 38.0545L2.63512 36.9975ZM0.496913 40.4318C0.140817 41.0063 -0.0286634 41.6754 0.0142059 42.3498L2.01018 42.2229C1.99389 41.9667 2.05785 41.7097 2.19682 41.4855L0.496913 40.4318ZM0.0142059 42.3498C0.0570707 43.0241 0.309846 43.6665 0.734586 44.1922L2.29037 42.9354C2.12265 42.7278 2.02647 42.4791 2.01018 42.2229L0.0142059 42.3498ZM0.740493 44.1995L3.32717 47.341L4.87115 46.0697L2.28446 42.9282L0.740493 44.1995ZM3.14591 46.4032L1.93143 50.2343L3.83793 50.8387L5.05241 47.0076L3.14591 46.4032ZM1.92883 50.2427C1.73028 50.8885 1.73853 51.5785 1.95233 52.2194L3.84958 51.5866C3.76761 51.3409 3.76451 51.0777 3.84053 50.8304L1.92883 50.2427ZM1.95233 52.2194C2.16602 52.8601 2.57348 53.4177 3.11562 53.8212L4.30985 52.2169C4.09041 52.0536 3.93166 51.8327 3.84958 51.5866L1.95233 52.2194ZM3.12167 53.8257L6.426 56.247L7.60812 54.6337L4.3038 52.2125L3.12167 53.8257ZM6.01817 55.3933L5.8289 59.4083L7.82668 59.5025L8.01595 55.4874L6.01817 55.3933ZM5.82905 59.4053C5.79483 60.0873 5.97743 60.7609 6.34859 61.3344L8.02759 60.2476C7.88249 60.0235 7.81354 59.7645 7.82654 59.5055L5.82905 59.4053ZM6.34859 61.3344C6.71948 61.9074 7.25943 62.3511 7.89159 62.6103L8.65035 60.7599C8.38905 60.6527 8.17296 60.4722 8.02759 60.2476L6.34859 61.3344ZM7.89905 62.6134L11.7239 64.1458L12.4677 62.2893L8.64289 60.7568L7.89905 62.6134ZM11.118 63.4271L11.9618 67.3654L13.9174 66.9464L13.0736 63.008L11.118 63.4271ZM11.963 67.3708C12.1086 68.0329 12.4578 68.6317 12.9588 69.0891L14.3073 67.6121C14.1065 67.4288 13.9719 67.194 13.9163 66.9411L11.963 67.3708ZM12.9588 69.0891C13.4594 69.5462 14.088 69.841 14.7595 69.9385L15.0471 67.9593C14.7661 67.9185 14.5085 67.7958 14.3073 67.6121L12.9588 69.0891ZM14.7661 69.9395L18.859 70.5065L19.1335 68.5254L15.0405 67.9584L14.7661 69.9395ZM18.1035 69.9666L19.9252 73.5755L21.7107 72.6742L19.8889 69.0653L18.1035 69.9666ZM19.9268 73.5785C20.2068 74.1287 20.6367 74.5884 21.1647 74.9093L22.2034 73.2001C21.9878 73.0691 21.8179 72.8849 21.7091 72.6712L19.9268 73.5785ZM21.1647 74.9093C21.6926 75.23 22.2993 75.4006 22.9174 75.4044L22.9298 73.4045C22.6707 73.4029 22.4192 73.3313 22.2034 73.2001L21.1647 74.9093ZM22.9236 75.4045H23.1759V73.4045H22.9236V75.4045ZM23.2814 75.3989L27.398 74.9621L27.187 72.9733L23.0704 73.41L23.2814 75.3989ZM26.5409 74.6272L29.2301 77.6922L30.7334 76.3731L28.0442 73.3082L26.5409 74.6272ZM29.2359 77.6987C29.686 78.2027 30.2796 78.558 30.9358 78.7222L31.4213 76.782C31.1478 76.7136 30.9067 76.567 30.7276 76.3665L29.2359 77.6987ZM30.9358 78.7222C31.5918 78.8864 32.2834 78.853 32.9202 78.6258L32.2482 76.7421C31.9838 76.8364 31.695 76.8505 31.4213 76.782L30.9358 78.7222ZM32.932 78.6215L36.8357 77.1733L36.1401 75.2982L32.2364 76.7464L32.932 78.6215ZM35.9268 77.0635L39.3179 79.3622L40.4401 77.7067L37.049 75.408L35.9268 77.0635ZM39.3217 79.3648C39.8834 79.7417 40.5467 79.9417 41.2236 79.9417V77.9417C40.9397 77.9417 40.6651 77.8577 40.4362 77.7041L39.3217 79.3648ZM41.2236 79.9417C41.9005 79.9417 42.5638 79.7417 43.1254 79.3648L42.0109 77.7041C41.7821 77.8577 41.5074 77.9417 41.2236 77.9417V79.9417ZM43.1293 79.3622L46.5203 77.0635L45.3981 75.408L42.0071 77.7067L43.1293 79.3622ZM45.6196 77.1763L49.4602 78.5632L50.1395 76.6821L46.2989 75.2952L45.6196 77.1763ZM49.4638 78.5645C50.1006 78.7917 50.7923 78.8251 51.4482 78.6609L50.9627 76.7207C50.689 76.7892 50.4002 76.7751 50.1359 76.6808L49.4638 78.5645ZM51.4482 78.6609C52.1044 78.4967 52.698 78.1414 53.1481 77.6374L51.6564 76.3052C51.4774 76.5057 51.2362 76.6523 50.9627 76.7207L51.4482 78.6609ZM53.154 77.6308L55.8432 74.5659L54.3398 73.2469L51.6506 76.3118L53.154 77.6308ZM54.986 74.9008L59.1026 75.3376L59.3136 73.3487L55.197 72.912L54.986 74.9008ZM59.2081 75.3432H59.4604V73.3432H59.2081V75.3432ZM59.465 75.3431C60.0819 75.3403 60.6878 75.1714 61.2155 74.8526L60.1814 73.1407C59.9656 73.271 59.7144 73.342 59.4559 73.3432L59.465 75.3431ZM61.2155 74.8526C61.7434 74.5337 62.1739 74.0763 62.4555 73.5282L60.6766 72.6142C60.5672 72.8272 60.397 73.0105 60.1814 73.1407L61.2155 74.8526ZM62.4588 73.5219L64.2805 69.9129L62.4951 69.0117L60.6734 72.6206L62.4588 73.5219ZM63.525 70.4528L67.618 69.8858L67.3435 67.9048L63.2506 68.4718L63.525 70.4528ZM67.6245 69.8849C68.296 69.7873 68.9247 69.4926 69.4253 69.0355L68.0767 67.5585C67.8755 67.7422 67.6179 67.8649 67.3369 67.9057L67.6245 69.8849ZM69.4253 69.0355C69.9262 68.578 70.2754 67.9793 70.4211 67.3171L68.4678 66.8875C68.4121 67.1404 68.2775 67.3752 68.0767 67.5585L69.4253 69.0355ZM70.4222 67.3118L71.266 63.3734L69.3104 62.9544L68.4666 66.8928L70.4222 67.3118ZM70.6602 64.0922L74.485 62.5597L73.7411 60.7032L69.9163 62.2357L70.6602 64.0922ZM74.4929 62.5565C75.1195 62.2993 75.6555 61.8606 76.0259 61.2942L74.3521 60.1995C74.2068 60.4216 73.9922 60.6001 73.7332 60.7064L74.4929 62.5565ZM76.0259 61.2942C76.3966 60.7274 76.5825 60.0612 76.5554 59.3847L74.557 59.4647C74.5673 59.7217 74.4971 59.9779 74.3521 60.1995L76.0259 61.2942ZM76.5551 59.3776L76.3659 55.3626L74.3681 55.4568L74.5573 59.4718L76.5551 59.3776ZM75.958 56.2163L79.2624 53.7951L78.0802 52.1818L74.7759 54.6031L75.958 56.2163ZM79.2684 53.7906C79.8106 53.387 80.218 52.8294 80.4317 52.1888L78.5344 51.556C78.4524 51.8021 78.2936 52.0229 78.0742 52.1863L79.2684 53.7906ZM80.4317 52.1888C80.6455 51.5478 80.6538 50.8579 80.4552 50.212L78.5435 50.7997C78.6195 51.047 78.6164 51.3102 78.5344 51.556L80.4317 52.1888ZM80.4526 50.2037L79.2381 46.3725L77.3316 46.9769L78.5461 50.808L80.4526 50.2037ZM79.0569 47.3104L81.6435 44.1688L80.0996 42.8976L77.5129 46.0391L79.0569 47.3104ZM81.6494 44.1616C82.0742 43.6358 82.327 42.9934 82.3698 42.3191L80.3738 42.1922C80.3576 42.4485 80.2614 42.6972 80.0937 42.9048L81.6494 44.1616ZM82.3698 42.3191C82.4127 41.6447 82.2432 40.9756 81.8871 40.4012L80.1872 41.4549C80.3262 41.6791 80.3901 41.936 80.3738 42.1922L82.3698 42.3191ZM81.8816 40.3924L79.7287 36.998L78.0398 38.0693L80.1927 41.4636L81.8816 40.3924ZM41.2189 72.0789C34.6732 72.0833 28.2754 70.2014 22.8349 66.6743L21.7469 68.3525C27.5148 72.0918 34.2916 74.0836 41.2203 74.0789L41.2189 72.0789ZM22.8349 66.6743C17.3947 63.1474 13.1577 58.1351 10.6553 52.2748L8.81596 53.0603C11.4772 59.2923 15.9788 64.6129 21.7469 68.3525L22.8349 66.6743ZM10.6553 52.2748C8.15298 46.4149 7.49602 39.9673 8.76615 33.7463L6.80658 33.3463C5.45486 39.9668 6.1546 46.8278 8.81596 53.0603L10.6553 52.2748ZM8.76615 33.7463C10.0363 27.5251 13.1777 21.8056 17.7975 17.3128L16.4031 15.879C11.4995 20.6478 8.15825 26.7259 6.80658 33.3463L8.76615 33.7463ZM17.7975 17.3128C22.4177 12.8197 28.3089 9.75565 34.7277 8.51251L34.3474 6.549C27.5516 7.86515 21.3064 11.1106 16.4031 15.879L17.7975 17.3128ZM34.7277 8.51251C41.1465 7.26936 47.8003 7.9039 53.8464 10.3348L54.5925 8.47912C48.188 5.90417 41.143 5.23287 34.3474 6.549L34.7277 8.51251ZM53.8464 10.3348C59.8923 12.7655 65.0557 16.8819 68.687 22.1588L70.3346 21.0251C66.4767 15.4187 60.9972 11.0542 54.5925 8.47912L53.8464 10.3348ZM68.687 22.1588C72.3181 27.4354 74.255 33.6366 74.2566 39.9781L76.2566 39.9777C76.255 33.2275 74.1928 26.6318 70.3346 21.0251L68.687 22.1588ZM74.2566 39.977C74.2485 48.4739 70.7732 56.6271 64.5829 62.6472L65.9772 64.081C72.5479 57.691 76.248 49.0242 76.2566 39.9789L74.2566 39.977ZM64.5829 62.6472C58.3916 68.6682 49.9897 72.0631 41.2178 72.0789L41.2214 74.0789C50.5045 74.0622 59.4076 70.4699 65.9772 64.081L64.5829 62.6472Z" fill="white" mask="url(#path-2-outside-1_2670_10051)"/>
<path d="M14.775 39.9778L14.775 39.9785C14.7836 46.7969 17.5769 53.3302 22.5367 58.1449C27.4961 62.959 34.2162 65.6616 41.2205 65.6637H41.2211C46.4427 65.6591 51.5468 64.1505 55.8883 61.3271C60.23 58.5036 63.6148 54.4914 65.6127 49.7959C67.6107 45.1002 68.1312 39.9336 67.1079 34.9497C66.0845 29.9659 63.5637 25.3908 59.8666 21.8019C56.1696 18.2131 51.4622 15.7714 46.3402 14.7833C41.2183 13.7952 35.9097 14.3046 31.0849 16.2476C26.26 18.1906 22.1339 21.4808 19.23 25.7045C16.326 29.9283 14.775 34.8954 14.775 39.9778ZM64.7421 39.9785C64.742 44.4977 63.3624 48.9166 60.7762 52.6762C58.1897 56.4362 54.512 59.3686 50.2067 61.1C45.9012 62.8316 41.1631 63.2837 36.5924 62.3986C32.0217 61.5136 27.8259 59.3316 24.5348 56.1309C21.2439 52.9303 19.0057 48.8551 18.101 44.4215C17.1963 39.9881 17.6651 35.3934 19.4489 31.218C21.2327 27.0425 24.2521 23.4725 28.1274 20.9613C32.0028 18.4501 36.5592 17.1112 41.22 17.1156C47.4626 17.1296 53.4423 19.5469 57.85 23.8337C62.2574 28.1202 64.734 33.9259 64.7421 39.9785Z" fill="#DAE1E9" stroke="white"/>
</svg>
