<svg width="167" height="140" viewBox="0 0 167 140" fill="none" xmlns="http://www.w3.org/2000/svg">
<path d="M14.1123 61.1865V72.7371L6.56855 81.5206C4.76106 79.9872 3.47006 77.9403 2.86948 75.6557C2.26889 73.371 2.38757 70.9584 3.20952 68.7429C4.03148 66.5273 5.51722 64.6152 7.46661 63.2641C9.41599 61.9131 11.7354 61.188 14.1123 61.1865Z" fill="white"/>
<path d="M28.1066 73.9134C28.1054 76.1194 27.4684 78.2788 26.2709 80.1365C25.0733 81.9941 23.3654 83.4723 21.3489 84.3961C19.3325 85.32 17.0919 85.6509 14.8921 85.3498C12.6923 85.0487 10.6253 84.1281 8.93555 82.6969L16.4793 73.9134V62.3628C18.0065 62.3618 19.5189 62.6598 20.9301 63.2399C22.3413 63.82 23.6234 64.6708 24.7034 65.7436C25.7833 66.8164 26.6397 68.0901 27.2236 69.492C27.8076 70.8938 28.1076 72.3963 28.1066 73.9134Z" fill="white"/>
<path d="M28.1066 73.9134C28.1054 76.1194 27.4684 78.2788 26.2709 80.1365C25.0733 81.9941 23.3654 83.4723 21.3489 84.3961C19.3325 85.32 17.0919 85.6509 14.8921 85.3498C12.6923 85.0487 10.6253 84.1281 8.93555 82.6969L16.4793 73.9134V62.3628C18.0065 62.3618 19.5189 62.6598 20.9301 63.2399C22.3413 63.82 23.6234 64.6708 24.7034 65.7436C25.7833 66.8164 26.6397 68.0901 27.2236 69.492C27.8076 70.8938 28.1076 72.3963 28.1066 73.9134Z" fill="#A5B2BA"/>
<path d="M8.93555 67.1049V52.207" stroke="#445562" stroke-miterlimit="10"/>
<path d="M8.93621 52.2033C9.51584 52.2033 9.98571 51.7365 9.98571 51.1607C9.98571 50.5849 9.51584 50.1182 8.93621 50.1182C8.35659 50.1182 7.88672 50.5849 7.88672 51.1607C7.88672 51.7365 8.35659 52.2033 8.93621 52.2033Z" stroke="#445562" stroke-miterlimit="10"/>
<path d="M23.7701 50.1182H12.1191V50.6395H23.7701V50.1182Z" fill="#445562"/>
<path d="M18.712 51.1606H12.1191V51.6819H18.712V51.1606Z" fill="#445562"/>
<path d="M147.784 17.1084C147.437 19.4338 146.426 21.6114 144.87 23.3823C143.313 25.1533 141.278 26.4431 139.005 27.0984C136.733 27.7538 134.319 27.7472 132.05 27.0793C129.781 26.4115 127.753 25.1106 126.206 23.3311C124.66 21.5517 123.661 19.3686 123.327 17.0413C122.993 14.7141 123.339 12.3405 124.323 10.2028C125.307 8.06508 126.889 6.2531 128.88 4.98223C130.871 3.71136 133.187 3.03505 135.553 3.03369V15.3055L147.784 17.1084Z" fill="#A5B2BA"/>
<path d="M150.435 12.8089C150.435 13.4111 150.391 14.0124 150.301 14.608L138.07 12.8089V0.533209C139.694 0.531662 141.301 0.848127 142.801 1.46449C144.301 2.08086 145.664 2.98502 146.812 4.12524C147.959 5.26545 148.87 6.61933 149.49 8.10939C150.111 9.59945 150.429 11.1964 150.428 12.8089H150.435Z" fill="white"/>
<path d="M136.902 19.8364H150.041" stroke="#445562" stroke-miterlimit="10"/>
<path d="M150.964 20.7498C151.472 20.7498 151.884 20.3409 151.884 19.8366C151.884 19.3322 151.472 18.9233 150.964 18.9233C150.457 18.9233 150.045 19.3322 150.045 19.8366C150.045 20.3409 150.457 20.7498 150.964 20.7498Z" stroke="#445562" stroke-miterlimit="10"/>
<path d="M164.51 19.1504H154.303V19.609H164.51V19.1504Z" fill="#445562"/>
<path d="M160.079 20.064H154.303V20.5225H160.079V20.064Z" fill="#445562"/>
<path d="M166.058 107.721L164.866 131.033H106.177L104.985 107.721H166.058Z" fill="white" stroke="#DAE1E9"/>
<path d="M162.518 118.352H137.583L137.117 109.913H163.067L162.518 118.352ZM137.871 118.054H162.238L162.743 110.215H137.433L137.871 118.054Z" fill="#445562"/>
<path d="M162.056 128.06H138.557L138.162 120.441H162.553L162.056 128.06ZM138.845 127.762H161.764L162.206 120.743H138.486L138.845 127.762Z" fill="#445562"/>
<path d="M152.449 115.044H148.258L147.994 113.021H152.729L152.449 115.044ZM148.523 114.746H152.184L152.37 113.308H148.349L148.523 114.746Z" fill="#A5B2BA"/>
<path d="M152.449 125.27H148.258L147.994 123.235H152.729L152.449 125.27ZM148.523 124.972H152.184L152.37 123.533H148.349L148.523 124.972Z" fill="#A5B2BA"/>
<path d="M133.186 118.352H108.251L107.781 109.913H133.75L133.186 118.352ZM108.535 118.054H132.902L133.407 110.215H108.105L108.535 118.054Z" fill="#445562"/>
<path d="M132.726 128.06H109.23L108.836 120.441H133.195L132.726 128.06ZM109.515 127.762H132.442L132.884 120.743H109.163L109.515 127.762Z" fill="#445562"/>
<path d="M123.122 115.044H118.932L118.668 113.01H123.403L123.122 115.044ZM119.197 114.746H122.858L123.043 113.308H119.007L119.197 114.746Z" fill="#A5B2BA"/>
<path d="M123.122 125.27H118.932L118.668 123.235H123.403L123.122 125.27ZM119.197 124.972H122.858L123.043 123.533H119.007L119.197 124.972Z" fill="#A5B2BA"/>
<path d="M111.049 131.533L110.674 134.183L109.921 139.501H108.449V131.533H111.049Z" fill="white"/>
<path d="M111.049 131.533L110.674 134.183H108.449V131.533H111.049Z" fill="#A5B2BA"/>
<path d="M159.992 131.533L160.367 134.183L161.121 139.501H162.596V131.533H159.992Z" fill="white"/>
<path d="M159.992 131.533L160.367 134.183H162.596V131.533H159.992Z" fill="#A5B2BA"/>
<path d="M156.229 107.209V89.2852H151.683V107.209H156.229Z" fill="#445562"/>
<path d="M156.229 90.3006V88.3291H151.683V90.3006H156.229Z" fill="#A5B2BA"/>
<path d="M156.229 93.5498V92.8208H151.683V93.5498H156.229Z" fill="#A5B2BA"/>
<path d="M156.232 104.861V102.89H151.687V104.861H156.232Z" fill="#A5B2BA"/>
<path d="M151.684 107.213V86.3027H148.507V107.213H151.684Z" fill="#A5B2BA"/>
<path d="M151.064 96.3128V88.27H149.159V96.3128H151.064Z" fill="white"/>
<path d="M128.12 107.196L143.09 92.4956L140.857 90.2518L125.888 104.952L128.12 107.196Z" fill="#445562"/>
<path d="M131.182 103.296L136.939 97.6421L135.6 96.2958L129.842 101.95L131.182 103.296Z" fill="#A5B2BA"/>
<path d="M148.512 107.213V91.3311H143.118V107.213H148.512Z" fill="#445562"/>
<path d="M148.512 105.531V104.05H143.118V105.531H148.512Z" fill="#445562"/>
<path d="M148.512 103.078V102.505H143.118V103.078H148.512Z" fill="#445562"/>
<path d="M165.539 105.76L159.613 92.0449L156.191 93.5043L162.117 107.22L165.539 105.76Z" fill="#445562"/>
<path d="M164.906 104.304L164.354 103.025L160.931 104.484L161.483 105.763L164.906 104.304Z" fill="#445562"/>
<path d="M161.39 96.1497L160.838 94.8711L157.415 96.3304L157.968 97.609L161.39 96.1497Z" fill="#445562"/>
<path d="M161.986 97.5234L161.771 97.0264L158.349 98.4857L158.564 98.9827L161.986 97.5234Z" fill="#445562"/>
<path d="M0 139.501L20.8755 139.407L41.751 139.371L83.498 139.305L125.249 139.371L146.125 139.407L167 139.501L146.125 139.599L125.249 139.63L83.498 139.697L41.751 139.63L20.8755 139.599L0 139.501Z" fill="#2B3444"/>
<path d="M66 140H63.8182L75.3943 90.4297H80.8312L66 140Z" fill="#445562"/>
<path d="M80.8305 90.4297L78.0844 99.4327H73.1289L75.3857 90.4375L75.3897 90.4297H80.8305Z" fill="#2B3444"/>
<path d="M83.1818 140H81L82.6255 82.3488H88.0663L83.1818 140Z" fill="#445562"/>
<path d="M88.33 90.4297L87.5685 99.4327H82.6406L82.8971 90.4375V90.4297H88.33Z" fill="#2B3444"/>
<path d="M102 140H104.5L94.8607 90.4297H89.4238L102 140Z" fill="#445562"/>
<path d="M96.644 99.4327H91.6846L89.4238 90.4297H94.8607L94.8646 90.4375L96.644 99.4327Z" fill="#2B3444"/>
<path d="M100.245 125.23H68.5039V126.418H100.245V125.23Z" fill="#445562"/>
<path d="M27.1191 95.0328V12.6465H139.879V95.0328H27.1191Z" fill="white" stroke="#FEECF0"/>
<path d="M144.546 8.82666H22.4531V15.0076H144.546V8.82666Z" fill="#445562"/>
<path d="M102.156 20.6201H64.8398V21.5843H102.156V20.6201Z" fill="#445562"/>
<path d="M95.7793 22.6387H71.2227V23.6029H95.7793V22.6387Z" fill="#445562"/>
<path d="M51.8555 32.9155H40.457V33.8797H51.8555V32.9155Z" fill="#445562"/>
<path d="M47.6062 34.9302H40.457V35.8944H47.6062V34.9302Z" fill="#445562"/>
<path d="M119.985 85.3813H109.707V86.3455H119.985V85.3813Z" fill="#445562"/>
<path d="M116.856 87.396H109.707V88.3602H116.856V87.396Z" fill="#445562"/>
<path d="M121.287 28.8745H115.238V29.6819H121.287V28.8745Z" fill="#445562"/>
<path d="M124.727 30.564H115.238V31.3714H124.727V30.564Z" fill="#445562"/>
<path d="M43.9172 64.3496H40.457V67.787H43.9172V64.3496Z" fill="#AB052D"/>
<path d="M43.9172 70.7344H40.457V74.1717H43.9172V70.7344Z" fill="#445562"/>
<path d="M43.9172 77.123H40.457V80.5604H43.9172V77.123Z" fill="#445562"/>
<path d="M43.9172 83.5078H40.457V86.9452H43.9172V83.5078Z" fill="#445562"/>
<path d="M113.042 47.8999H110.73L83.0527 56.9734H85.3687L113.042 47.8999Z" fill="#445562"/>
<path d="M85.3687 56.9736H83.0527L110.73 66.0472H113.042L85.3687 56.9736Z" fill="#445562"/>
<path d="M85.3672 27.6206V56.9734L113.045 47.9038C109.068 35.5653 98.2413 27.6206 85.3672 27.6206Z" fill="#445562"/>
<path d="M86.2155 27.6323L85.3672 29.0786V28.9101L86.1208 27.6284L86.2155 27.6323ZM87.0953 27.6676L85.3672 31.5557V31.783L87.1939 27.6755L87.0953 27.6676ZM90.2951 28.0204L85.3672 36.165V36.3766L90.4174 28.04L90.2951 28.0204ZM90.9895 28.1458L85.3672 40.2647V40.5587L91.1078 28.1654L90.9895 28.1458ZM93.7276 31.5753L95.2585 29.2942L95.1204 29.2432L93.6093 31.4969L89.0996 38.2188L85.3672 43.7805V44.0392L89.218 38.305L93.7276 31.5753ZM95.4637 29.3647L85.3672 47.1747V47.4922L95.6017 29.4157L95.4637 29.3647ZM98.9475 30.8972L85.3672 48.8405V49.1109L99.1014 30.9795L98.9475 30.8972ZM99.2671 31.0658L85.3672 52.4895V52.8305L99.4249 31.152L99.2671 31.0658ZM102.27 32.9432L85.3672 53.3753V53.681L102.439 33.0647L102.27 32.9432ZM102.625 33.2019L86.8704 56.4795L87.2097 56.3698L102.794 33.3273L102.625 33.2019ZM105.248 35.3968L87.6516 56.2247L88.0462 56.0954L105.406 35.5379L105.248 35.3968ZM105.54 35.6751L91.7312 54.8804L92.035 54.7824L105.686 35.8083C105.635 35.773 105.588 35.7221 105.54 35.6751ZM107.845 38.207L93.1792 54.4139L93.5343 54.2964L107.955 38.3442L107.845 38.207ZM108.208 38.6656L97.6455 52.9481L97.9098 52.8618L108.314 38.8067L108.208 38.6656ZM110.054 41.3504L100.025 52.172L100.317 52.074L110.129 41.4915C110.107 41.443 110.082 41.3959 110.054 41.3504ZM110.33 41.809L103.078 51.1686L103.299 51.0981L110.401 41.9344L110.33 41.809ZM111.881 44.8426L106.866 49.9379L107.111 49.8556L111.928 44.9602L111.881 44.8426ZM112.145 45.4658L109.15 49.1815L109.336 49.1188L112.192 45.5913C112.181 45.548 112.165 45.506 112.145 45.4658Z" fill="#2B3444"/>
<path d="M85.3648 27.6206H83.0527V56.9734H85.3648V27.6206Z" fill="#2B3444"/>
<path d="M85.3684 56.9736H83.0525L55.3789 66.0472H57.691L85.3684 56.9736Z" fill="#AB052D"/>
<path d="M85.3689 56.9736L57.6953 66.0472C59.547 71.9061 63.225 77.029 68.1984 80.6762C73.1718 84.3233 79.1833 86.3061 85.3649 86.3382C88.4232 86.336 91.4615 85.8478 94.3645 84.8919C103.534 81.8857 110.068 75.2931 113.046 66.0472L85.3689 56.9736Z" fill="#AB052D"/>
<path d="M57.691 66.0469H55.3789C57.2306 71.9059 60.9086 77.0287 65.882 80.6759C70.8554 84.323 76.8669 86.3058 83.0485 86.3379H85.3605C79.1789 86.3058 73.1675 84.323 68.1941 80.6759C63.2207 77.0287 59.5426 71.9059 57.691 66.0469Z" fill="#AB052D"/>
<g opacity="0.1">
<path opacity="0.1" d="M57.691 66.0469H55.3789C57.2306 71.9059 60.9086 77.0287 65.882 80.6759C70.8554 84.323 76.8669 86.3058 83.0485 86.3379H85.3605C79.1789 86.3058 73.1675 84.323 68.1941 80.6759C63.2207 77.0287 59.5426 71.9059 57.691 66.0469Z" fill="#2B3444"/>
</g>
<path opacity="0.1" d="M57.7694 66.0195L57.7227 66.1715L57.7694 66.0195Z" fill="#2B3444"/>
<path opacity="0.1" d="M58.9522 65.6314L58.6523 68.6141V68.5828L58.9522 65.6392V65.6314ZM62.081 64.6084L59.8044 71.0167C59.8056 71.0245 59.8056 71.0325 59.8044 71.0402L62.0928 64.5967L62.081 64.6084ZM63.1936 64.2439L61.8482 74.2738L61.8797 74.3169L63.2251 64.2322L63.1936 64.2439ZM65.1663 63.5933L62.298 74.8931L62.3256 74.9323L65.2137 63.5659L65.1663 63.5933ZM65.9554 63.3385L64.4956 77.4486L64.5469 77.4995L66.0067 63.3385H65.9554ZM68.2951 62.5546L64.9611 77.8875C64.9772 77.9055 64.9944 77.9225 65.0124 77.9385L68.3661 62.5311L68.2951 62.5546ZM68.8672 62.3665L67.5849 80.1961L67.6599 80.251L68.9382 62.343L68.8672 62.3665ZM68.011 80.5175C68.0343 80.538 68.0594 80.5563 68.086 80.5724L71.195 61.6022L71.1003 61.6375L68.011 80.5175ZM71.8578 61.3866L71.7474 82.8966L71.8499 82.9515L71.9525 61.3553L71.8578 61.3866ZM72.0669 83.0651L72.1695 83.1161L74.5368 60.5048L74.4145 60.5479L72.0669 83.0651ZM75.0931 60.3323L74.9748 60.3754L75.3259 84.5193L75.4601 84.5702L75.0931 60.3323ZM75.5824 84.6329L75.7126 84.68L77.5669 59.5406L77.4209 59.5915L75.5824 84.6329ZM78.0009 59.3995L77.855 59.4465L78.8216 85.5853C78.8729 85.5853 78.9281 85.6128 78.9834 85.6206L78.0009 59.3995ZM79.1214 85.6598C79.1745 85.6753 79.2285 85.6871 79.2832 85.6951L80.9679 58.4274L80.7904 58.4862L79.1214 85.6598ZM82.8105 86.185L81.3862 58.2903L81.2086 58.3491L82.6211 86.2203H82.8105H82.9998L83.7889 57.4711L83.5798 57.5377L82.8105 86.185ZM86.535 86.1419L84.2427 57.3535L84.0375 57.4201L86.3496 86.33C86.41 86.3339 86.4706 86.3339 86.531 86.33H86.7086L87.2057 57.6083L87.0163 57.5495L86.535 86.1419ZM87.5884 57.7023L87.3991 57.6436L90.2201 85.9185L90.3858 85.8911L87.5884 57.7023ZM89.6716 58.3883L90.3858 85.8911L90.5515 85.8597L89.8295 58.4235L89.6716 58.3883ZM90.1806 58.5529L90.0149 58.498L94.2681 84.919L94.3549 84.8916H94.4023L90.1806 58.5529ZM94.1261 79.7806L93.5066 72.075L92.4335 59.2858L92.3033 59.2427L93.3725 72.0828L94.0156 79.7924L94.3391 83.6452L94.4417 84.872L94.5759 84.825L94.4772 83.6491L94.1261 79.7806ZM92.8714 59.4347L92.7333 59.3916L98.5805 83.1631L98.6831 83.1122L92.8714 59.4347ZM95.9765 60.4538L98.9238 82.9867L99.0264 82.9358L96.083 60.5008L95.9765 60.4538ZM96.5407 60.638L96.4342 60.6027L101.859 81.2504L101.934 81.1995L96.5407 60.638ZM103.445 62.9035L105.454 78.3657L105.509 78.3148L103.501 62.9191L103.445 62.9035ZM104.112 63.123H104.057L108.16 75.3948L108.196 75.3517L104.112 63.123ZM99.5787 61.6336L102.364 80.882C102.391 80.8677 102.416 80.8507 102.439 80.831L99.6576 61.6257L99.5787 61.6336ZM102.222 68.7709L100.388 62.4998L100.19 61.8256L100.111 61.7982L100.32 62.5194L102.155 68.7905L105.075 78.7145L105.126 78.6714L102.222 68.7709ZM105.982 63.7344L108.464 75.0028C108.475 74.9892 108.486 74.9748 108.495 74.9597L106.026 63.7618L105.982 63.7344ZM106.566 63.9264H106.523L109.983 72.753C109.983 72.753 110.003 72.753 110.003 72.7217L106.566 63.9264ZM108.365 64.5144L110.338 72.1416C110.338 72.1416 110.338 72.122 110.338 72.1103L108.365 64.5222V64.5144ZM109.36 64.8397H109.336L111.818 69.2491L109.36 64.8397ZM111.163 65.4315L112.228 68.2731L111.167 65.4511L111.163 65.4315ZM112.839 65.9881C112.895 66.0586 112.946 66.1292 112.993 66.2036C112.946 66.1213 112.899 66.0508 112.839 65.9881Z" fill="#2B3444"/>
<path d="M85.3684 27.6206C69.2985 27.6206 56.2705 40.7625 56.2705 56.9734C56.2447 60.0548 56.7258 63.1196 57.6948 66.0469L85.3684 56.9734V27.6206Z" fill="#445562"/>
<path d="M85.3634 50.8785V51.0941L59.6942 43.1376L59.7889 42.9494L85.3634 50.8785ZM59.5285 43.4629L85.3634 54.2727V54.065L59.6192 43.2826C59.5758 43.3414 59.5758 43.4002 59.5285 43.4629ZM61.8958 39.6414C61.8515 39.6964 61.8106 39.7539 61.7734 39.8139L85.3792 47.8683V47.6685L61.8958 39.6414ZM61.5485 40.1196L85.3792 50.3768V50.1416L61.6669 39.9511C61.6117 40.0138 61.5683 40.0726 61.5485 40.1196ZM67.5141 33.7897L67.3918 33.8877L85.3792 40.7506V40.6174L67.5141 33.7897ZM66.8868 34.2992L85.3792 43.2826V43.1141L66.9933 34.2091C66.9508 34.2409 66.91 34.2749 66.871 34.311L66.8868 34.2992ZM64.5589 36.4588C64.5116 36.5019 64.4682 36.549 64.4287 36.5921L85.3792 44.039V43.8705L64.5589 36.4588ZM63.9947 37.0546L85.3792 47.1354V46.9316L64.1013 36.937L63.9947 37.0546ZM76.2257 29.0903L76.1192 29.1216L85.3713 33.5898V33.5075L76.2257 29.0903ZM74.9316 29.5527L85.3713 35.8239V35.7141L75.0302 29.5371L74.9316 29.5527ZM71.1795 31.3322C71.1374 31.352 71.0966 31.3743 71.0571 31.3988L85.3713 37.1839V37.0742L71.1795 31.3322ZM70.2562 31.8887L85.3634 39.806V39.6728L70.3706 31.8339L70.2562 31.8887ZM81.1457 27.934H81.0589L85.3634 30.1799V30.125L81.1457 27.934ZM79.2085 28.2907L85.3634 32.4257V32.3434L79.3032 28.2632C79.2708 28.2648 79.2388 28.2715 79.2085 28.2828V28.2907ZM83.9943 27.6636H83.9233L85.3634 28.7061V28.6513L83.9943 27.6636ZM56.376 59.8697L67.9836 62.676L68.1296 62.6251L56.3681 59.7796C56.3879 59.8031 56.3879 59.8344 56.3918 59.8619L56.376 59.8697ZM56.3287 59.2544C56.3287 59.2857 56.3287 59.3171 56.3287 59.3484L72.0593 61.3356L72.2763 61.265L56.3287 59.2544ZM57.0113 63.6363L61.5367 64.8121L61.6432 64.7769L56.9955 63.601C57.0001 63.613 57.0054 63.6248 57.0113 63.6363ZM56.9323 63.2953C56.9301 63.3175 56.9301 63.3398 56.9323 63.3619L63.8567 64.0283L64.0184 63.9773L56.9323 63.2953ZM56.2853 55.9189L74.4345 60.5635L74.6199 60.5047L56.2813 55.8013C56.2809 55.8366 56.2822 55.872 56.2853 55.9071V55.9189ZM56.309 55.4251C56.3069 55.4655 56.3069 55.5061 56.309 55.5466L79.6307 58.8663L79.9068 58.7762L56.309 55.4251ZM61.4381 52.3287L57.5518 51.1528L56.8929 50.953C56.8929 51 56.8929 51.047 56.8653 51.0941L57.5084 51.29L61.3947 52.4659L69.1673 54.8411L80.9405 58.443L81.1576 58.3686L69.2067 54.7117L61.4381 52.3287ZM56.9363 50.7374C56.9363 50.7844 56.9126 50.8315 56.9047 50.8785L84.7953 57.1731L85.0833 57.0791L56.9363 50.7374ZM57.9779 47.0688L85.107 57.0712L85.3516 56.9928L58.0371 46.9081C58.0117 46.9563 57.9893 47.0061 57.97 47.057L57.9779 47.0688ZM58.1278 46.6768C58.1046 46.7317 58.0848 46.788 58.0686 46.8454L85.3713 54.7392V54.5432L58.1278 46.6768Z" fill="#445562"/>
<path d="M85.368 27.6206H83.052C66.9821 27.6206 53.9541 40.7625 53.9541 56.9734C53.9283 60.0548 54.4094 63.1196 55.3784 66.0469H57.6905C56.7214 63.1196 56.2403 60.0548 56.2662 56.9734C56.2662 40.7625 69.2981 27.6206 85.368 27.6206Z" fill="#445562"/>
<path d="M101.037 39.5316C101.208 38.1971 101.645 36.9098 102.323 35.7454C102.985 34.5582 103.879 33.5136 104.951 32.6726L105.144 32.508L105.357 32.3669L105.784 32.0847L106.21 31.8064C106.356 31.7202 106.513 31.6496 106.663 31.5752C106.967 31.4262 107.271 31.2694 107.579 31.1323L108.541 30.7991L109.023 30.6384L109.52 30.5326L110.514 30.3209C110.847 30.2687 111.183 30.2334 111.52 30.2151L112.522 30.1367V30.1877C111.863 30.3053 111.201 30.3993 110.55 30.5326L109.587 30.7873L109.106 30.9167L108.644 31.097L107.721 31.4497C107.425 31.5908 107.137 31.7555 106.845 31.9005C106.699 31.9789 106.549 32.0455 106.407 32.1278L106.012 32.4022L105.618 32.6765L105.413 32.8137L105.223 32.9705C104.177 33.7847 103.284 34.7759 102.584 35.8983C102.398 36.1688 102.256 36.4666 102.087 36.7528C101.917 37.0389 101.799 37.3446 101.668 37.6503C101.402 38.2573 101.19 38.887 101.037 39.5316Z" fill="#2B3444"/>
<path d="M111.386 31.9199L111.091 31.6612L112.373 30.2071L110.822 29.043L111.059 28.7295L112.949 30.1483L111.386 31.9199Z" fill="#2B3444"/>
<path d="M98.7793 74.7046C98.8752 75.2912 99.0137 75.8702 99.1936 76.437C99.2804 76.7192 99.379 77.0014 99.4776 77.2797C99.5763 77.5579 99.6946 77.8284 99.817 78.0988C100.292 79.1774 100.908 80.1894 101.648 81.109C102.379 82.0344 103.235 82.8549 104.192 83.5469C104.665 83.9052 105.162 84.2301 105.68 84.5189C106.193 84.8168 106.741 85.0559 107.258 85.3302V85.3812L106.414 85.0598C106.128 84.9635 105.849 84.8455 105.581 84.707C105.034 84.4438 104.507 84.1426 104.003 83.8056C102.989 83.1334 102.089 82.3037 101.34 81.3481C100.58 80.4028 99.9739 79.3447 99.5447 78.2125C99.097 77.093 98.8384 75.9078 98.7793 74.7046Z" fill="#2B3444"/>
<path d="M105.451 86.3337L105.309 85.9692L107.127 85.2833L106.311 83.5313L106.666 83.3667L107.664 85.5028L105.451 86.3337Z" fill="#2B3444"/>
<path d="M64.8877 40.0178C64.6079 39.592 64.3022 39.1836 63.9724 38.7949C63.6531 38.4025 63.3119 38.0283 62.9505 37.6739C62.2386 36.9678 61.4438 36.3493 60.5832 35.8318C59.7217 35.3153 58.7786 34.947 57.7938 34.7422C57.5452 34.6951 57.3006 34.6324 57.052 34.5971L56.2945 34.5423C56.0411 34.5218 55.7864 34.5218 55.533 34.5423L54.7676 34.5697V34.507C55.7866 34.294 56.8362 34.2674 57.8648 34.4286L58.2593 34.4874L58.6539 34.5932C58.9024 34.6716 59.1628 34.7186 59.4035 34.8205L60.1255 35.1263C60.3623 35.236 60.5871 35.3732 60.816 35.5182C61.7093 36.0476 62.5168 36.7083 63.2109 37.4779C63.8904 38.2396 64.4552 39.0951 64.8877 40.0178Z" fill="#2B3444"/>
<path d="M55.857 32.8135L56.1608 33.0682L54.9022 34.542L56.4764 35.6786L56.2437 35.9961L54.3262 34.6125L55.857 32.8135Z" fill="#2B3444"/>
<path d="M129.991 62.2878H129.9L129.817 62.2682L128.164 61.8762L128.066 61.8566L127.123 61.6371L127.012 61.6136L125.517 61.2687L125.395 61.2373L124.479 61.0257L124.345 60.9983L122.621 60.6063L122.475 60.571L121.441 60.3319L121.279 60.2967L119.993 59.9988L119.82 59.9596L118.687 59.697L118.506 59.6578L116.928 59.2972L116.766 59.258L115.582 58.9837L115.424 58.9484L114.284 58.6858L114.15 58.6544L112.848 58.3526L112.718 58.3213L111.589 58.0626L111.479 58.0351L109.901 57.6706L109.786 57.6432L108.117 57.2513L108.027 57.2277L106.744 56.9338L106.661 56.9142L105.004 56.5222H104.933L103.537 56.2008H103.474L102.01 55.8638L103.308 55.2915L103.363 55.268L104.858 54.6056L104.925 54.5782L106.208 54.0099L106.283 53.9785L107.92 53.2573L108.011 53.2142L109.108 52.7321L109.206 52.689L111.617 51.6229L111.735 51.572L112.339 51.3054L112.465 51.2506L114.833 50.2119L114.979 50.1492L115.495 49.9219L115.649 49.8552L118.068 48.7892L118.253 48.7108L118.794 48.4717L118.971 48.3933L121.512 47.2723L121.698 47.19L121.994 47.0607L122.167 46.9823L124.968 45.7477L125.13 45.6771L125.387 45.5674L125.537 45.5007L128.322 44.27L128.421 44.5052L128.504 44.7012L128.527 44.76C128.563 44.8383 128.594 44.9167 128.626 44.9951C129.412 46.9626 129.987 49.0067 130.342 51.0938C130.342 51.1761 130.37 51.2584 130.386 51.3446C130.54 52.3039 130.641 53.2708 130.689 54.2411C130.689 54.4292 130.689 54.6135 130.713 54.8016C130.782 57.317 130.54 59.8312 129.991 62.2878Z" fill="#445562"/>
<path d="M103.37 55.2331L103.543 56.1816H103.48L103.314 55.2723L103.37 55.2331ZM104.865 54.5707L104.94 56.503H105.011L104.932 54.5432L104.865 54.5707ZM106.289 53.9436L106.214 53.9749L106.668 56.9028L106.751 56.9223L106.289 53.9436ZM107.927 53.2224L108.033 57.2163L108.124 57.2398L108.017 53.1793L107.927 53.2224ZM109.213 52.6541L109.114 52.6972L109.793 57.6239L109.907 57.6514L109.213 52.6541ZM111.58 54.8411L111.517 58.0159L111.628 58.0433L111.695 54.845L111.762 51.537L111.643 51.588L111.58 54.8411ZM112.492 51.2156L112.365 51.2705L112.76 58.302L112.89 58.3333L112.492 51.2156ZM114.188 58.6351L114.322 58.6665L114.989 50.1143L114.843 50.177L114.188 58.6351ZM115.506 49.883L115.435 58.933L115.593 58.9683L115.632 49.8203L115.506 49.883ZM118.078 48.7503L116.784 59.2387L116.946 59.2779L118.24 48.668L118.055 48.7464L118.078 48.7503ZM118.804 48.4289L118.532 59.6385L118.714 59.6777L118.982 48.3505L118.804 48.4289ZM121.523 47.2295L119.846 59.9403L120.02 59.9795L121.708 47.1472L121.523 47.2295ZM122.004 47.0179L121.306 60.2774L121.468 60.3127L122.178 46.9395L122.004 47.0179ZM124.979 45.7049L122.501 60.5518L122.647 60.587L125.141 45.6343L124.979 45.7049ZM125.397 45.5207L124.371 60.9829L124.506 61.0103L125.547 45.4501L125.397 45.5207ZM128.514 44.6584L128.431 44.4624L125.421 61.2259L125.543 61.2573L128.514 44.6623V44.6584ZM128.538 44.725L127.039 61.6022L127.149 61.6257L128.621 44.9602C128.577 44.8818 128.546 44.8034 128.51 44.725H128.538ZM130.412 51.3371C130.412 51.2509 130.384 51.1686 130.369 51.0863L128.092 61.8452L128.191 61.8648L130.412 51.341V51.3371ZM130.716 54.2375L129.804 62.2489L129.887 62.2685L130.7 54.8215C130.708 54.6216 130.7 54.4257 130.688 54.2297L130.716 54.2375Z" fill="#A5B2BA"/>
<path d="M129.991 62.284H127.679L99.6973 55.8247H102.013L129.991 62.284Z" fill="#445562"/>
<path d="M102.013 55.8247H99.6973L125.994 44.2231H128.306L102.013 55.8247Z" fill="#445562"/>
<path d="M19.9875 118.603C20.1107 115.51 20.0686 112.414 19.8612 109.326C19.4012 102.956 18.4222 96.6343 16.9337 90.4221C16.117 86.926 15.1148 83.4847 14.0653 80.0512C14.0338 79.9493 13.8681 79.9768 13.8957 80.0865C17.1349 92.1976 19.7902 104.693 19.6048 117.282C19.5535 120.81 19.1431 124.267 18.8157 127.767C18.8157 127.861 18.9617 127.896 18.9814 127.802C19.5881 124.771 19.9247 121.693 19.9875 118.603Z" fill="#AB052D"/>
<path d="M13.9009 80.0981C13.9009 80.0981 8.99668 92.464 10.0935 95.384C11.1904 98.304 13.4551 98.9115 13.4551 98.9115C13.4551 98.9115 10.4526 103.168 12.5516 107.142C14.6505 111.117 19.3062 110.944 19.6179 115.471C19.6179 115.459 19.8744 96.5363 13.9009 80.0981Z" fill="#AB052D"/>
<path d="M15.1423 91.1003C14.2544 90.5511 13.2398 90.2367 12.195 90.187C12.1714 90.187 12.1674 90.2223 12.195 90.2223C13.2032 90.4086 14.1823 90.7262 15.1068 91.1669C15.1463 91.1865 15.1778 91.1238 15.1423 91.1003Z" fill="#2B3444"/>
<path d="M15.738 104.191C15.055 103.803 14.3038 103.548 13.5246 103.438C13.497 103.438 13.497 103.474 13.5246 103.482C14.2868 103.632 15.0239 103.888 15.7144 104.242C15.742 104.258 15.7814 104.207 15.738 104.191Z" fill="#2B3444"/>
<path d="M32.8814 95.5606C30.8148 96.983 28.9167 98.6332 27.2236 100.48C25.4724 102.438 24.1204 104.716 23.2426 107.186C21.3787 112.336 20.3765 117.756 20.2756 123.228C20.2139 126.257 20.5078 129.282 21.1515 132.243C21.1602 132.256 21.1724 132.267 21.1869 132.274C21.2013 132.281 21.2174 132.283 21.2333 132.282C21.2492 132.28 21.2644 132.274 21.2771 132.265C21.2898 132.255 21.2996 132.242 21.3054 132.227C20.506 126.999 20.5366 121.678 21.3961 116.459C22.2405 111.344 23.5622 105.779 26.8369 101.62C28.6203 99.3547 30.8416 97.5752 33.0392 95.7409C33.1418 95.6351 32.9998 95.4783 32.8814 95.5606Z" fill="#AB052D"/>
<path d="M20.9824 119.551C22.1632 117.654 23.5512 115.891 25.1212 114.295C27.5753 111.858 29.6427 110.125 29.9584 108.514C30.274 106.903 27.5003 105.716 27.5003 105.716C27.5003 105.716 30.8974 106.319 31.8404 104.904C32.7833 103.49 33.2173 95.29 33.2173 95.29C33.2173 95.29 27.0229 99.6955 24.1467 105.818C21.2704 111.94 20.9824 119.551 20.9824 119.551Z" fill="#AB052D"/>
<path d="M30.9951 102.988C30.5888 102.929 30.1774 102.915 29.768 102.945C29.7565 102.945 29.7455 102.949 29.7373 102.957C29.7292 102.966 29.7246 102.977 29.7246 102.988C29.7246 102.999 29.7292 103.01 29.7373 103.018C29.7455 103.027 29.7565 103.031 29.768 103.031C30.1626 103.031 30.5808 103.031 30.9872 103.031C30.9918 103.03 30.9961 103.028 30.9995 103.025C31.0028 103.021 31.0051 103.017 31.0059 103.012C31.0068 103.008 31.0062 103.003 31.0043 102.998C31.0023 102.994 30.9991 102.99 30.9951 102.988Z" fill="#2B3444"/>
<path d="M26.5482 110.94C25.8961 110.959 25.2524 111.092 24.6465 111.332C24.6465 111.332 24.6465 111.364 24.6465 111.36C25.2738 111.211 25.913 111.152 26.5443 111.046C26.6034 111.023 26.6034 110.94 26.5482 110.94Z" fill="#2B3444"/>
<path d="M25.2151 108.193C24.9503 108.192 24.686 108.217 24.426 108.267C24.4197 108.267 24.4137 108.27 24.4093 108.274C24.4048 108.279 24.4023 108.285 24.4023 108.291C24.4023 108.297 24.4048 108.303 24.4093 108.308C24.4137 108.312 24.4197 108.314 24.426 108.314C24.6963 108.328 24.9672 108.315 25.2348 108.275C25.244 108.271 25.2514 108.264 25.2558 108.255C25.2602 108.246 25.2614 108.236 25.2591 108.226C25.2567 108.216 25.2511 108.208 25.2431 108.202C25.235 108.196 25.2252 108.193 25.2151 108.193Z" fill="#2B3444"/>
<path d="M2.87195 104.258C4.88156 104.934 6.80743 105.835 8.61261 106.943C10.4924 108.123 12.1232 109.655 13.4143 111.454C16.1152 115.197 18.181 119.355 19.5297 123.761C20.2818 126.199 20.7453 128.715 20.9107 131.259C20.9107 131.278 20.903 131.297 20.8893 131.31C20.8756 131.324 20.857 131.332 20.8377 131.332C20.8183 131.332 20.7997 131.324 20.786 131.31C20.7724 131.297 20.7647 131.278 20.7647 131.259C20.1959 126.844 18.9338 122.544 17.0244 118.517C15.1621 114.59 12.7948 110.388 9.18076 107.774C7.20803 106.351 4.99856 105.422 2.79304 104.434C2.67468 104.399 2.76148 104.219 2.87195 104.258Z" fill="#AB052D"/>
<path d="M18.0861 120.943C16.6886 119.679 15.1551 118.572 13.5133 117.643C10.9605 116.236 8.88522 115.291 8.25394 114.076C7.62267 112.861 9.59146 111.246 9.59146 111.246C9.59146 111.246 6.9835 112.516 5.90244 111.583C4.82138 110.65 2.55273 104.136 2.55273 104.136C2.55273 104.136 8.56958 106.264 12.3296 110.572C16.0897 114.879 18.0861 120.943 18.0861 120.943Z" fill="#AB052D"/>
<path d="M7.84373 108.103C7.57977 108.084 7.31444 108.1 7.05464 108.15C7.02308 108.15 7.03491 108.201 7.05464 108.197C7.31899 108.17 7.57939 108.197 7.84373 108.17C7.8507 108.167 7.85674 108.163 7.86101 108.157C7.86528 108.151 7.86757 108.144 7.86757 108.136C7.86757 108.129 7.86528 108.122 7.86101 108.116C7.85674 108.11 7.8507 108.105 7.84373 108.103Z" fill="#2B3444"/>
<path d="M25.8499 139.502H12.2656L14.2029 125.407L14.696 121.793H23.4155L23.9127 125.407L25.8499 139.502Z" fill="#445562"/>
<path d="M23.9129 125.407H14.2031L14.6963 121.793H23.4158L23.9129 125.407Z" fill="#2B3444"/>
<path d="M24.6622 120.539H13.4492V123.6H24.6622V120.539Z" fill="#445562"/>
</svg>
