<svg width="20" height="18" viewBox="0 0 20 18" fill="none" xmlns="http://www.w3.org/2000/svg">
<g clip-path="url(#clip0_1511_10303)">
<path fill-rule="evenodd" clip-rule="evenodd" d="M16.9172 10.6187C17.5288 11.248 18.1742 11.8401 18.7227 12.5329C18.965 12.8408 19.1943 13.1585 19.3698 13.5158C19.6185 14.0237 19.3933 14.5826 18.9612 14.6129L16.2755 14.6117C15.5828 14.6723 15.0302 14.3783 14.5655 13.8791C14.1937 13.4798 13.8493 13.0549 13.4918 12.6422C13.3452 12.4735 13.1918 12.3148 13.0085 12.1894C12.6418 11.9385 12.3236 12.0153 12.1141 12.4184C11.9007 12.8283 11.8523 13.2823 11.8313 13.7392C11.8026 14.4058 11.6114 14.5811 10.9761 14.6116C9.61846 14.6791 8.32998 14.4626 7.13303 13.7407C6.07775 13.1042 5.25943 12.2058 4.54716 11.1886C3.16038 9.20801 2.09837 7.03165 1.14389 4.79431C0.92904 4.29023 1.08616 4.01965 1.6138 4.01007C2.48997 3.99213 3.36602 3.99341 4.24322 4.00879C4.59932 4.01429 4.83506 4.22958 4.97256 4.58419C5.44659 5.8128 6.02663 6.98172 6.7547 8.06521C6.94859 8.35367 7.14629 8.64213 7.42783 8.84516C7.73929 9.06997 7.97643 8.99546 8.12295 8.62974C8.21593 8.39785 8.25663 8.14808 8.27759 7.89971C8.347 7.04524 8.35615 6.19225 8.2344 5.34078C8.15966 4.80938 7.8757 4.46537 7.37265 4.36481C7.11595 4.31354 7.15417 4.21285 7.27846 4.0584C7.49434 3.79203 7.69737 3.62622 8.10211 3.62622H11.1374C11.6153 3.72563 11.7214 3.95191 11.7868 4.45873L11.7894 8.01266C11.7842 8.20886 11.8824 8.79109 12.2177 8.92095C12.486 9.0134 12.6629 8.78713 12.8239 8.60778C13.5506 7.79475 14.0693 6.83391 14.5326 5.83898C14.7383 5.4015 14.9151 4.94716 15.0864 4.4932C15.2134 4.15635 15.4126 3.9906 15.7726 3.99794L18.6939 4.00069C18.7805 4.00069 18.8682 4.00203 18.9521 4.01716C19.4443 4.10559 19.5792 4.3288 19.4272 4.83549C19.1876 5.63045 18.7215 6.29293 18.2658 6.95848C17.7786 7.66903 17.2576 8.35526 16.7745 9.07004C16.3306 9.72275 16.3658 10.0518 16.9172 10.6187Z" fill="white"/>
</g>
<defs>
<clipPath id="clip0_1511_10303">
<rect width="19.4598" height="16.4956" fill="white" transform="translate(0.537109 0.876953)"/>
</clipPath>
</defs>
</svg>
