<svg width="18" height="16" viewBox="0 0 18 16" fill="none" xmlns="http://www.w3.org/2000/svg">
<g clip-path="url(#clip0_1511_10294)">
<path d="M16.8442 3.82048C16.2583 3.14997 15.1766 2.87646 13.1108 2.87646H5.61195C3.49887 2.87646 2.39884 3.16762 1.81516 3.88148C1.24609 4.5775 1.24609 5.60302 1.24609 7.02238V9.72767C1.24609 12.4774 1.92129 13.8735 5.61195 13.8735H13.1109C14.9023 13.8735 15.895 13.6322 16.5372 13.0405C17.1958 12.4337 17.4768 11.4429 17.4768 9.72767V7.02238C17.4768 5.52555 17.4328 4.49397 16.8442 3.82048ZM11.6663 8.74851L8.26107 10.4619C8.18494 10.5002 8.10169 10.5192 8.01855 10.5192C7.92441 10.5192 7.83048 10.4948 7.74729 10.4463C7.59063 10.3549 7.49498 10.1915 7.49498 10.0151V6.59937C7.49498 6.42334 7.59037 6.26003 7.74671 6.16859C7.9031 6.07715 8.09761 6.0709 8.25987 6.15205L11.6651 7.85439C11.8383 7.94099 11.9471 8.11318 11.9474 8.30105C11.9476 8.48907 11.8393 8.66151 11.6663 8.74851Z" fill="white"/>
</g>
<defs>
<clipPath id="clip0_1511_10294">
<rect width="17.2144" height="14.996" fill="white" transform="translate(0.753906 0.876953)"/>
</clipPath>
</defs>
</svg>
