<svg xmlns="http://www.w3.org/2000/svg">
  <symbol id="rotate-left" viewBox="0 0 48 48">
    <rect width="48" height="48" rx="8" fill="#FEECF0" />
    <path d="M17.4801 19.3735L15.6001 17.4802C14.4001 19.0268 13.6534 20.8135 13.4268 22.6668H16.1201C16.3068 21.5068 16.7734 20.3735 17.4801 19.3735ZM16.1201 25.3335H13.4268C13.6534 27.1868 14.3868 28.9735 15.5868 30.5202L17.4668 28.6268C16.7734 27.6268 16.3068 26.5068 16.1201 25.3335ZM17.4668 32.4268C19.0134 33.6268 20.8134 34.3468 22.6668 34.5735V31.8668C21.5068 31.6668 20.3868 31.2135 19.3868 30.4935L17.4668 32.4268ZM25.3334 13.4268V9.3335L19.2668 15.4002L25.3334 21.3335V16.1202C29.1201 16.7602 32.0001 20.0402 32.0001 24.0002C32.0001 27.9602 29.1201 31.2402 25.3334 31.8802V34.5735C30.6001 33.9202 34.6668 29.4402 34.6668 24.0002C34.6668 18.5602 30.6001 14.0802 25.3334 13.4268Z" fill="#AB052D" />
  </symbol>
  <symbol id="rotate-right" viewBox="0 0 48 48">
    <rect width="48" height="48" rx="8" fill="#FEECF0" />
    <path d="M28.7335 15.4002L22.6668 9.3335V13.4268C17.4135 14.0802 13.3335 18.5602 13.3335 24.0002C13.3335 29.4402 17.4002 33.9202 22.6668 34.5735V31.8802C18.8802 31.2402 16.0002 27.9602 16.0002 24.0002C16.0002 20.0402 18.8802 16.7602 22.6668 16.1202V21.3335L28.7335 15.4002ZM34.5735 22.6668C34.3468 20.8135 33.6135 19.0268 32.4135 17.4802L30.5202 19.3735C31.2402 20.3735 31.6935 21.5068 31.8802 22.6668H34.5735ZM25.3335 31.8668V34.5602C27.1868 34.3335 28.9868 33.6135 30.5335 32.4135L28.6135 30.4935C27.6135 31.2135 26.4935 31.6802 25.3335 31.8668ZM30.5202 28.6402L32.4135 30.5202C33.6135 28.9735 34.3468 27.1868 34.5735 25.3335H31.8802C31.6935 26.4935 31.2402 27.6268 30.5202 28.6402Z" fill="#AB052D" />
  </symbol>
  <symbol id="flip-horizontal" viewBox="0 0 48 48">
    <rect width="48" height="48" rx="8" fill="#FEECF0" />
    <path d="M28 36.0002H30.6667V33.3335H28V36.0002ZM33.3333 20.0002H36V17.3335H33.3333V20.0002ZM12 14.6668V33.3335C12 34.8002 13.2 36.0002 14.6667 36.0002H20V33.3335H14.6667V14.6668H20V12.0002H14.6667C13.2 12.0002 12 13.2002 12 14.6668ZM33.3333 12.0002V14.6668H36C36 13.2002 34.8 12.0002 33.3333 12.0002ZM22.6667 38.6668H25.3333V9.3335H22.6667V38.6668ZM33.3333 30.6668H36V28.0002H33.3333V30.6668ZM28 14.6668H30.6667V12.0002H28V14.6668ZM33.3333 25.3335H36V22.6668H33.3333V25.3335ZM33.3333 36.0002C34.8 36.0002 36 34.8002 36 33.3335H33.3333V36.0002Z" fill="#AB052D" />
  </symbol>
  <symbol id="flip-vertical" viewBox="0 0 48 48">
    <rect width="48" height="48" rx="8" fill="#FEECF0" />
    <path d="M11.9998 28L11.9998 30.6667L14.6665 30.6667L14.6665 28L11.9998 28ZM27.9998 33.3333L27.9998 36L30.6665 36L30.6665 33.3333L27.9998 33.3333ZM33.3332 12L14.6665 12C13.1998 12 11.9998 13.2 11.9998 14.6667L11.9998 20L14.6665 20L14.6665 14.6667L33.3332 14.6667L33.3332 20L35.9998 20L35.9998 14.6667C35.9998 13.2 34.7998 12 33.3332 12ZM35.9998 33.3333L33.3332 33.3333L33.3332 36C34.7998 36 35.9998 34.8 35.9998 33.3333ZM9.33317 22.6667L9.33317 25.3333L38.6665 25.3333L38.6665 22.6667L9.33317 22.6667ZM17.3332 33.3333L17.3332 36L19.9998 36L19.9998 33.3333L17.3332 33.3333ZM33.3332 28L33.3332 30.6667L35.9998 30.6667L35.9998 28L33.3332 28ZM22.6665 33.3333L22.6665 36L25.3332 36L25.3332 33.3333L22.6665 33.3333ZM11.9998 33.3333C11.9998 34.8 13.1998 36 14.6665 36L14.6665 33.3333L11.9998 33.3333Z" fill="#AB052D" />
  </symbol>
</svg>