<svg xmlns="http://www.w3.org/2000/svg">
  <symbol id="avi" viewBox="0 0 48 48">
    <path fill-rule="evenodd" d="M10 9C10 6.51472 12.0147 4.5 14.5 4.5H32.25L41 13.25V39C41 41.4853 38.9853 43.5 36.5 43.5H14.5C12.0147 43.5 10 41.4853 10 39V36H9.5C7.84315 36 6.5 34.6569 6.5 33V21C6.5 19.3431 7.84315 18 9.5 18H10V9ZM37.5 16V18H13.5V9C13.5 8.44772 13.9477 8 14.5 8H29.5V16H37.5ZM13.5 39V36H37.5V39C37.5 39.5523 37.0523 40 36.5 40H14.5C13.9477 40 13.5 39.5523 13.5 39ZM15.2495 22.2578H14.7671H13.9482H13.4785L10.0444 31.5H12.0693L12.7087 29.5513H16.0304L16.6714 31.5H18.7026L15.2495 22.2578ZM15.5398 28.0596H13.1981L14.3675 24.4954L15.5398 28.0596ZM21.4575 31.5H22.0542H22.8667H23.4507L26.6689 22.2578H24.5488L22.4542 29.2928L20.3657 22.2578H18.2583L21.4575 31.5ZM29.5571 31.5V22.2578H27.6592V31.5H29.5571Z" />
  </symbol>

  <symbol id="doc" viewBox="0 0 48 48">
    <path d="M23.4492 27.1011V26.6504C23.4492 26.1594 23.4043 25.7278 23.3154 25.3555C23.2676 25.1533 23.207 24.9685 23.1328 24.801C23.1104 24.7488 23.0859 24.6982 23.0605 24.6494C23.0176 24.5667 22.9717 24.4888 22.9219 24.416C22.748 24.1621 22.5371 23.9717 22.2871 23.8447C22.0371 23.7136 21.752 23.6479 21.4297 23.6479C21.1084 23.6479 20.8232 23.7136 20.5732 23.8447C20.3281 23.9717 20.1182 24.1621 19.9453 24.416C19.915 24.4619 19.8857 24.5098 19.8574 24.5596C19.8193 24.6277 19.7832 24.6997 19.75 24.7751L19.7158 24.8542C19.6846 24.9316 19.6553 25.0127 19.6289 25.0972C19.6025 25.1799 19.5791 25.2661 19.5576 25.3555C19.5088 25.5583 19.4736 25.7791 19.4521 26.0173C19.4443 26.0989 19.4385 26.1824 19.4336 26.2681L19.4258 26.4712L19.4238 26.6504V27.1011C19.4238 27.5876 19.4688 28.0193 19.5576 28.396C19.6465 28.7683 19.7773 29.0837 19.9512 29.3418C20.125 29.5957 20.3359 29.7883 20.5859 29.9194C20.8359 30.0505 21.1211 30.1162 21.4434 30.1162C21.7646 30.1162 22.0498 30.0505 22.2998 29.9194L22.3594 29.8867C22.583 29.7571 22.7725 29.5754 22.9277 29.3418C22.9873 29.2515 23.042 29.1541 23.0908 29.0496C23.1826 28.8557 23.2578 28.6379 23.3154 28.396C23.4043 28.0193 23.4492 27.5876 23.4492 27.1011Z" />
    <path d="M12.1621 30.0146H11.2295V23.7495H12.1816C12.3232 23.7495 12.458 23.7588 12.5869 23.7776C12.7939 23.8076 12.9854 23.8618 13.1592 23.9399C13.4424 24.0627 13.6816 24.2468 13.877 24.4922C14.0713 24.7375 14.2168 25.0403 14.3145 25.3999C14.416 25.7595 14.4668 26.1765 14.4668 26.6504V27.1011C14.4668 27.719 14.3779 28.2458 14.2002 28.6816C14.0264 29.1174 13.7686 29.4497 13.4258 29.6782C13.083 29.9026 12.6621 30.0146 12.1621 30.0146Z" />
    <path fill-rule="evenodd" d="M13 4.5H30.75L39.5 13.25V39C39.5 41.4854 37.4854 43.5 35 43.5H13C10.5146 43.5 8.5 41.4854 8.5 39V36H8C6.34277 36 5 34.6567 5 33V21C5 19.3433 6.34277 18 8 18H8.5V9C8.5 6.51465 10.5146 4.5 13 4.5ZM36 16V18H12V9C12 8.55957 12.2842 8.18555 12.6807 8.05225C12.7812 8.01831 12.8887 8 13 8H28V16H36ZM12 39V36H36V39C36 39.5522 35.5527 40 35 40H13C12.4473 40 12 39.5522 12 39ZM33.998 28.4341H32.1006C32.0752 28.8064 31.9922 29.1174 31.8535 29.3672C31.7178 29.6169 31.5205 29.8052 31.2627 29.9321C31.0049 30.0591 30.6768 30.1226 30.2793 30.1226C29.9404 30.1226 29.6504 30.0613 29.4092 29.9385C29.1719 29.8115 28.9775 29.6252 28.8252 29.3799C28.6768 29.1301 28.5674 28.8254 28.4951 28.4658C28.4229 28.1018 28.3867 27.6809 28.3867 27.2026V26.5488C28.3867 26.3755 28.3916 26.21 28.4014 26.0525C28.4062 25.9626 28.4131 25.8755 28.4219 25.7908L28.4385 25.6443L28.4512 25.5515C28.4658 25.4526 28.4824 25.3577 28.502 25.2666C28.5371 25.103 28.5811 24.9521 28.6328 24.8137C28.6973 24.6404 28.7734 24.4866 28.8633 24.3525C28.9561 24.2131 29.0615 24.0942 29.1797 23.9961C29.2666 23.9241 29.3594 23.863 29.46 23.813C29.6973 23.6946 29.9746 23.6353 30.291 23.6353C30.7148 23.6353 31.0527 23.7029 31.3066 23.8384C31.4639 23.9177 31.5957 24.0212 31.7041 24.1489C31.7441 24.1958 31.7803 24.2461 31.8135 24.2996C31.8398 24.3406 31.8633 24.3835 31.8848 24.4287C32.0117 24.6868 32.0859 25.0022 32.1074 25.3745H34.0117C33.9521 24.7483 33.7744 24.1897 33.4785 23.6987C33.25 23.3159 32.9492 22.9976 32.5742 22.7434L32.4717 22.6763C32.3975 22.6296 32.3203 22.5852 32.2402 22.5435C31.7109 22.2642 31.0615 22.1245 30.291 22.1245C30.0635 22.1245 29.8447 22.1406 29.6348 22.1726C29.3086 22.2219 29.0029 22.3096 28.7168 22.4355C28.5869 22.4929 28.4619 22.5571 28.3418 22.6284C28.3018 22.6519 28.2627 22.676 28.2246 22.7009C27.959 22.8733 27.7188 23.0811 27.5049 23.3242C27.4414 23.397 27.3809 23.4727 27.3232 23.5513C27.2256 23.6841 27.1357 23.8254 27.0537 23.9751C26.9277 24.2058 26.8193 24.4565 26.7305 24.7271C26.5527 25.2729 26.4639 25.8845 26.4639 26.5615V27.2026C26.4639 27.8796 26.5508 28.4912 26.7246 29.0371C26.8291 29.3667 26.9619 29.6672 27.124 29.9382C27.2305 30.116 27.3486 30.281 27.4795 30.4336C27.8135 30.8186 28.2158 31.115 28.6855 31.3223C29.1553 31.5254 29.6865 31.627 30.2793 31.627C30.5469 31.627 30.8018 31.6101 31.042 31.5762C31.4814 31.5142 31.874 31.3955 32.2207 31.2207C32.7627 30.95 33.1836 30.5732 33.4844 30.0908C33.7891 29.6084 33.9609 29.0562 33.998 28.4341ZM25.3721 26.6631V27.1011L25.3691 27.3193L25.3604 27.5083C25.3516 27.6711 25.3369 27.8296 25.3174 27.9839C25.2803 28.2673 25.2246 28.5366 25.1494 28.792L25.1182 28.8972L25.0859 28.9927C24.8965 29.5513 24.627 30.0273 24.2803 30.4209C23.9336 30.8103 23.5186 31.1086 23.0361 31.3159C22.5576 31.5232 22.0273 31.627 21.4434 31.627C20.8633 31.627 20.332 31.5232 19.8496 31.3159C19.3711 31.1086 18.957 30.8103 18.6055 30.4209C18.4424 30.2385 18.2969 30.0383 18.168 29.8206C18.0186 29.5684 17.8916 29.2925 17.7871 28.9927C17.5957 28.4341 17.501 27.8035 17.501 27.1011V26.6631C17.501 25.9563 17.5957 25.3259 17.7871 24.7715C17.8652 24.5403 17.957 24.3232 18.0625 24.1204C18.0889 24.0693 18.1162 24.019 18.1445 23.9697C18.2764 23.7417 18.4258 23.533 18.5928 23.3433C18.6299 23.3015 18.668 23.2607 18.707 23.2209C18.7402 23.1865 18.7744 23.1531 18.8086 23.1204C19.1113 22.8342 19.4531 22.6082 19.8369 22.4419C20.0762 22.3389 20.3281 22.2615 20.5918 22.2097C20.8594 22.1572 21.1387 22.1309 21.4297 22.1309C21.7266 22.1309 22.0098 22.1577 22.2793 22.2114C22.54 22.2632 22.7881 22.3401 23.0234 22.4419C23.1094 22.4788 23.1934 22.5186 23.2744 22.5615C23.3848 22.6194 23.4912 22.6824 23.5938 22.751C23.8408 22.9167 24.0654 23.1143 24.2676 23.3433C24.6191 23.7368 24.8896 24.2129 25.0801 24.7715C25.0977 24.821 25.1143 24.8711 25.1299 24.9219C25.1455 24.9714 25.1602 25.0217 25.1738 25.0725L25.1934 25.1453C25.208 25.2019 25.2217 25.2593 25.2344 25.3174C25.2471 25.3738 25.2588 25.4309 25.2695 25.4888C25.3379 25.8535 25.3721 26.2449 25.3721 26.6631ZM12.1621 31.5H9.3252V22.2578H12.1816C12.5361 22.2578 12.873 22.2925 13.1934 22.3621C13.4307 22.4138 13.6582 22.4849 13.877 22.5752C14.3926 22.7825 14.8389 23.0808 15.2158 23.4702C15.5928 23.8596 15.8828 24.325 16.0859 24.8667C16.293 25.4041 16.3965 26.0029 16.3965 26.6631V27.1011C16.3965 27.7571 16.293 28.3557 16.0859 28.8975C15.8828 29.4392 15.5928 29.9045 15.2158 30.2939C15.1152 30.3979 15.0098 30.4956 14.8975 30.5872C14.8369 30.6367 14.7744 30.6846 14.7109 30.7305C14.6514 30.7734 14.5898 30.8147 14.5273 30.8542C14.4824 30.8831 14.4365 30.9109 14.3896 30.9377C14.2275 31.032 14.0566 31.1157 13.877 31.189C13.3604 31.3962 12.7891 31.5 12.1621 31.5Z" />
  </symbol>

  <symbol id="image" viewBox="0 0 48 48">
    <path d="M12 44H36C37.0609 44 38.0783 43.5786 38.8284 42.8284C39.5786 42.0783 40 41.0609 40 40V16L28 4H12C10.9391 4 9.92172 4.42143 9.17157 5.17157C8.42143 5.92172 8 6.93913 8 8V40C8 41.0609 8.42143 42.0783 9.17157 42.8284C9.92172 43.5786 10.9391 44 12 44ZM26 8L36 18H26V8ZM17 22C17.3941 22.0001 17.7843 22.0779 18.1484 22.2288C18.5124 22.3798 18.8432 22.6009 19.1217 22.8797C19.4003 23.1584 19.6213 23.4893 19.7719 23.8535C19.9226 24.2176 20.0001 24.6079 20 25.002C19.9999 25.3961 19.9221 25.7863 19.7712 26.1504C19.6202 26.5144 19.3991 26.8452 19.1203 27.1237C18.8416 27.4023 18.5107 27.6233 18.1465 27.7739C17.7824 27.9246 17.3921 28.0021 16.998 28.002C16.2021 28.0017 15.4389 27.6853 14.8763 27.1223C14.3137 26.5593 13.9977 25.7959 13.998 25C13.9983 24.2041 14.3147 23.4409 14.8777 22.8783C15.4407 22.3157 16.2041 21.9997 17 22ZM18 32L21.194 34.726L26 26L34 38H14L18 32Z" />
  </symbol>

  <symbol id="mp3" viewBox="0 0 48 48">
    <path fill-rule="evenodd" d="M9.5 9C9.5 6.51472 11.5147 4.5 14 4.5H31.75L40.5 13.25V39C40.5 41.4853 38.4853 43.5 36 43.5H14C11.5147 43.5 9.5 41.4853 9.5 39V36H9C7.34315 36 6 34.6569 6 33V21C6 19.3431 7.34315 18 9 18H9.5V9ZM37 16V18H13V9C13 8.44772 13.4477 8 14 8H29V16H37ZM13 39V36H37V39C37 39.5523 36.5523 40 36 40H14C13.4477 40 13 39.5523 13 39ZM31.5581 26.0859H30.5806V26.5303V27.0571V27.4761H31.5581C31.8713 27.4761 32.1421 27.5247 32.3706 27.6221C32.5991 27.7194 32.7747 27.8717 32.8975 28.0791C33.0202 28.2822 33.0815 28.5531 33.0815 28.8916C33.0815 29.154 33.0244 29.3846 32.9102 29.5835C32.8001 29.7782 32.6393 29.9305 32.4277 30.0405C32.2204 30.1463 31.9707 30.1992 31.6787 30.1992C31.4206 30.1992 31.1857 30.1463 30.9741 30.0405C30.7668 29.9347 30.6038 29.7887 30.4854 29.6025C30.3669 29.4163 30.3076 29.2048 30.3076 28.9678H28.4731C28.4731 29.4248 28.562 29.8205 28.7397 30.1548C28.9217 30.4849 29.1629 30.7599 29.4634 30.98C29.7681 31.1958 30.1066 31.3587 30.479 31.4688C30.8556 31.5745 31.2386 31.6274 31.6279 31.6274C32.0977 31.6274 32.5314 31.5682 32.9292 31.4497C33.327 31.327 33.674 31.1493 33.9702 30.9165C34.2707 30.6838 34.5034 30.4002 34.6685 30.0659C34.8335 29.7274 34.916 29.3423 34.916 28.9106C34.916 28.5594 34.8504 28.2399 34.7192 27.9521C34.5881 27.6602 34.3934 27.4084 34.1353 27.1968C33.914 27.0118 33.6477 26.8641 33.3363 26.7538C33.5795 26.6408 33.7929 26.5049 33.9766 26.3462C34.2305 26.1261 34.4251 25.8807 34.5605 25.6099C34.696 25.3348 34.7637 25.0513 34.7637 24.7593C34.7637 24.1838 34.6325 23.7013 34.3701 23.312C34.1077 22.9227 33.7417 22.6286 33.272 22.4297C32.8022 22.2266 32.2542 22.125 31.6279 22.125C31.0736 22.125 30.5658 22.2308 30.1045 22.4424C29.6432 22.654 29.2751 22.9481 29 23.3247C28.7292 23.7013 28.5938 24.1436 28.5938 24.6514H30.4282C30.4282 24.4229 30.4854 24.2282 30.5996 24.0674C30.7139 23.9066 30.8662 23.7817 31.0566 23.6929C31.2471 23.604 31.4544 23.5596 31.6787 23.5596C31.9622 23.5596 32.1971 23.6125 32.3833 23.7183C32.5695 23.8198 32.707 23.9637 32.7959 24.1499C32.889 24.3319 32.9355 24.5413 32.9355 24.7783C32.9355 25.0407 32.8848 25.2713 32.7832 25.4702C32.6859 25.6649 32.5356 25.8172 32.3325 25.9272C32.1294 26.033 31.8713 26.0859 31.5581 26.0859ZM12.0391 31.5005V26.6291C12.0646 26.5815 12.0921 26.5359 12.1216 26.4922C12.2358 26.3187 12.3797 26.1833 12.5532 26.0859C12.731 25.9886 12.9383 25.9399 13.1753 25.9399C13.3911 25.9399 13.5752 25.9738 13.7275 26.0415C13.8841 26.1092 14.0047 26.2277 14.0894 26.397C14.174 26.5662 14.2163 26.8075 14.2163 27.1206V31.5005H16.0444V26.9175C16.0444 26.849 16.0431 26.7822 16.0405 26.7169C16.0856 26.6124 16.1398 26.5164 16.2031 26.4287C16.3132 26.2764 16.4507 26.1579 16.6157 26.0732C16.7808 25.9844 16.9733 25.9399 17.1934 25.9399C17.4049 25.9399 17.5869 25.9738 17.7393 26.0415C17.8958 26.105 18.0143 26.2214 18.0947 26.3906C18.1794 26.5557 18.2217 26.7969 18.2217 27.1143V31.5005H20.0562V27.1143C20.0562 26.6361 20.0033 26.2319 19.8975 25.9019C19.7959 25.5718 19.6478 25.3052 19.4531 25.1021C19.2627 24.8947 19.0321 24.7445 18.7612 24.6514C18.4904 24.554 18.1899 24.5054 17.8599 24.5054C17.4282 24.5054 17.0474 24.5879 16.7173 24.7529C16.3872 24.9137 16.11 25.1401 15.8857 25.4321C15.8534 25.475 15.8223 25.5189 15.7922 25.5638C15.7028 25.3696 15.5922 25.2051 15.4604 25.0703C15.2785 24.8757 15.0605 24.7339 14.8066 24.645C14.5527 24.5519 14.2734 24.5054 13.9688 24.5054C13.5286 24.5054 13.1414 24.5879 12.8071 24.7529C12.485 24.912 12.2119 25.1339 11.988 25.4187L11.9248 24.6323H10.2046V31.5005H12.0391ZM23.2998 34.1411V30.904C23.4715 31.0954 23.6683 31.252 23.8901 31.3735C24.1991 31.5428 24.563 31.6274 24.9819 31.6274C25.4136 31.6274 25.7944 31.5407 26.1245 31.3672C26.4588 31.1895 26.7381 30.944 26.9624 30.6309C27.1867 30.3135 27.356 29.9411 27.4702 29.5137C27.5887 29.0863 27.6479 28.6229 27.6479 28.1235V27.9902C27.6479 27.4697 27.5887 26.9958 27.4702 26.5684C27.356 26.141 27.1846 25.7728 26.9561 25.4639C26.7318 25.1549 26.4525 24.918 26.1182 24.7529C25.7881 24.5879 25.4051 24.5054 24.9692 24.5054C24.5545 24.5054 24.1927 24.59 23.8838 24.7593C23.6369 24.8965 23.4205 25.0795 23.2348 25.3084L23.1665 24.6323H21.4717V34.1411H23.2998ZM23.7124 29.9834C23.5341 29.8571 23.3966 29.6917 23.2998 29.4872V26.6364C23.3385 26.5547 23.383 26.4791 23.4331 26.4097C23.5431 26.2573 23.6849 26.141 23.8584 26.0605C24.0361 25.9801 24.2498 25.9399 24.4995 25.9399C24.7365 25.9399 24.9375 25.9928 25.1025 26.0986C25.2718 26.2002 25.4072 26.3441 25.5088 26.5303C25.6146 26.7165 25.6908 26.9344 25.7373 27.1841C25.7881 27.4295 25.8135 27.6982 25.8135 27.9902V28.1235C25.8135 28.4113 25.7902 28.68 25.7437 28.9297C25.7013 29.1794 25.6273 29.3994 25.5215 29.5898C25.4199 29.7803 25.2866 29.9305 25.1216 30.0405C24.9565 30.1463 24.7534 30.1992 24.5122 30.1992C24.1821 30.1992 23.9155 30.1273 23.7124 29.9834Z" />
  </symbol>

  <symbol id="mp4" viewBox="0 0 48 48">
    <path fill-rule="evenodd" d="M11.2652 9C11.2652 6.51472 13.2388 4.5 15.6734 4.5H33.0612L41.6326 13.25V39C41.6326 41.4853 39.659 43.5 37.2244 43.5H15.6734C13.2388 43.5 11.2652 41.4853 11.2652 39V36H10.7754C9.1524 36 7.83667 34.6569 7.83667 33V21C7.83667 19.3431 9.1524 18 10.7754 18H11.2652V9ZM38.204 16V18H14.6938V9C14.6938 8.44771 15.1324 8 15.6734 8H30.3673V16H38.204ZM14.6938 39V36H38.204V39C38.204 39.5523 37.7654 40 37.2244 40H15.6734C15.1324 40 14.6938 39.5523 14.6938 39ZM36.4238 29.4815V28.047H35.3979V22.2579H35.0123H33.607H33.5884L29.814 28.3707L29.901 29.4815H33.607V31.5001H35.3979V29.4815H36.4238ZM33.607 24.6585L33.4702 24.8922L31.5924 28.047H33.607V24.6585ZM13.7526 31.5001V26.6287C13.7776 26.5811 13.8046 26.5355 13.8334 26.4918C13.9454 26.3183 14.0863 26.1829 14.2563 26.0856C14.4304 25.9882 14.6335 25.9396 14.8656 25.9396C15.0771 25.9396 15.2574 25.9734 15.4066 26.0411C15.56 26.1088 15.6781 26.2273 15.7611 26.3966C15.844 26.5659 15.8854 26.8071 15.8854 27.1202V31.5001H17.6762V26.9171C17.6762 26.8487 17.675 26.7818 17.6724 26.7165C17.7166 26.612 17.7697 26.516 17.8317 26.4283C17.9395 26.276 18.0742 26.1575 18.2359 26.0729C18.3975 25.984 18.5861 25.9396 18.8017 25.9396C19.009 25.9396 19.1872 25.9734 19.3365 26.0411C19.4898 26.1046 19.6059 26.221 19.6847 26.3902C19.7676 26.5553 19.809 26.7965 19.809 27.1139V31.5001H21.6061V27.1139C21.6061 26.6357 21.5543 26.2315 21.4506 25.9015C21.3511 25.5714 21.206 25.3048 21.0154 25.1017C20.8288 24.8943 20.6029 24.7441 20.3376 24.651C20.0723 24.5536 19.778 24.505 19.4546 24.505C19.0318 24.505 18.6587 24.5875 18.3354 24.7525C18.012 24.9133 17.7405 25.1398 17.5208 25.4317C17.4891 25.4746 17.4586 25.5185 17.4292 25.5634C17.3416 25.3692 17.2333 25.2047 17.1042 25.0699C16.9259 24.8753 16.7124 24.7335 16.4637 24.6446C16.215 24.5515 15.9414 24.505 15.6429 24.505C15.2118 24.505 14.8325 24.5875 14.505 24.7525C14.1894 24.9116 13.9219 25.1335 13.7026 25.4183L13.6407 24.6319H11.9556V31.5001H13.7526ZM24.7835 34.1407V30.9036C24.9517 31.0951 25.1445 31.2516 25.3618 31.3731C25.6644 31.5424 26.0209 31.6271 26.4313 31.6271C26.8542 31.6271 27.2273 31.5403 27.5506 31.3668C27.8781 31.1891 28.1517 30.9436 28.3714 30.6305C28.5911 30.3131 28.7569 29.9407 28.8688 29.5133C28.9849 29.0859 29.0429 28.6225 29.0429 28.1231V27.9898C29.0429 27.4693 28.9849 26.9954 28.8688 26.568C28.7569 26.1406 28.589 25.7724 28.3652 25.4635C28.1455 25.1546 27.8719 24.9176 27.5444 24.7525C27.221 24.5875 26.8459 24.505 26.4189 24.505C26.0126 24.505 25.6582 24.5896 25.3556 24.7589C25.1137 24.8961 24.9018 25.0791 24.7198 25.308L24.653 24.6319H22.9927V34.1407H24.7835ZM25.1877 29.983C25.0131 29.8567 24.8783 29.6913 24.7835 29.4868V26.636C24.8215 26.5543 24.865 26.4787 24.9141 26.4093C25.0219 26.2569 25.1608 26.1406 25.3307 26.0602C25.5048 25.9798 25.7142 25.9396 25.9588 25.9396C26.1909 25.9396 26.3878 25.9925 26.5495 26.0982C26.7153 26.1998 26.8479 26.3437 26.9474 26.5299C27.0511 26.7161 27.1257 26.934 27.1713 27.1837C27.221 27.4291 27.2459 27.6979 27.2459 27.9898V28.1231C27.2459 28.4109 27.2231 28.6796 27.1775 28.9293C27.1361 29.179 27.0635 29.399 26.9599 29.5895C26.8604 29.7799 26.7298 29.9301 26.5681 30.0401C26.4065 30.1459 26.2075 30.1988 25.9712 30.1988C25.6479 30.1988 25.3867 30.1269 25.1877 29.983Z" />
  </symbol>

  <symbol id="pdf" viewBox="0 0 48 48">
    <path d="M11.2295 23.7495V26.7202H12.9238C13.2881 26.7202 13.584 26.6609 13.8125 26.5425C13.9521 26.4673 14.0693 26.3748 14.1631 26.2649C14.2227 26.1951 14.2734 26.1184 14.3145 26.0347C14.4199 25.8188 14.4727 25.5754 14.4727 25.3047C14.4727 25.0295 14.4199 24.7737 14.3145 24.5366C14.209 24.2996 14.041 24.1091 13.8125 23.9653C13.7764 23.9426 13.7393 23.9219 13.6992 23.9028L13.6299 23.8716C13.5439 23.8362 13.4512 23.8083 13.3506 23.7883C13.2207 23.7625 13.0781 23.7495 12.9238 23.7495H11.2295Z" />
    <path d="M20.541 30.0146H19.6084V23.7495H20.5605C20.9287 23.7495 21.2549 23.813 21.5381 23.9399C21.6387 23.9836 21.7334 24.0349 21.8232 24.094C21.9854 24.2012 22.1299 24.334 22.2559 24.4922C22.2812 24.5247 22.3066 24.5581 22.3301 24.5923L22.3721 24.6558C22.4102 24.7151 22.4463 24.7771 22.4795 24.8418C22.5664 25.0095 22.6377 25.1956 22.6934 25.3999C22.7949 25.7595 22.8457 26.1765 22.8457 26.6504V27.1011C22.8457 27.719 22.7568 28.2458 22.5791 28.6816C22.4775 28.9358 22.3477 29.1548 22.1885 29.3384C22.1455 29.3884 22.1006 29.4358 22.0527 29.4807C21.9756 29.5535 21.8926 29.6194 21.8047 29.6782C21.4619 29.9026 21.041 30.0146 20.541 30.0146Z" />
    <path fill-rule="evenodd" d="M13 4.5H30.75L39.5 13.25V39C39.5 41.4854 37.4854 43.5 35 43.5H13C10.5146 43.5 8.5 41.4854 8.5 39V36H8C6.34277 36 5 34.6567 5 33V21C5 19.3433 6.34277 18 8 18H8.5V9C8.5 6.51465 10.5146 4.5 13 4.5ZM36 16V18H12V9C12 8.44775 12.4473 8 13 8H28V16H36ZM12 39V36H36V39C36 39.5522 35.5527 40 35 40H13C12.4473 40 12 39.5522 12 39ZM12.9238 28.2056H11.2295V31.5H9.3252V22.2578H12.9238C13.6484 22.2578 14.2676 22.3889 14.7842 22.6514C15.3047 22.9094 15.7021 23.2671 15.9775 23.7241C16.2529 24.1812 16.3906 24.7039 16.3906 25.292C16.3906 25.5579 16.3633 25.8076 16.3086 26.0415C16.2402 26.3328 16.1299 26.5991 15.9775 26.8408C15.8242 27.084 15.6328 27.2961 15.4033 27.4775C15.2207 27.6211 15.0146 27.7454 14.7842 27.8501C14.2676 28.0872 13.6484 28.2056 12.9238 28.2056ZM20.541 31.5H17.7041V22.2578H20.5605C21.1787 22.2578 21.7432 22.3635 22.2559 22.5752C22.7715 22.7825 23.2178 23.0808 23.5947 23.4702C23.9717 23.8596 24.2617 24.325 24.4648 24.8667C24.6719 25.4041 24.7754 26.0029 24.7754 26.6631V27.1011C24.7754 27.7571 24.6719 28.3557 24.4648 28.8975C24.2617 29.4392 23.9717 29.9045 23.5947 30.2939C23.2227 30.679 22.7754 30.9773 22.2559 31.189C22.0049 31.2898 21.7412 31.3662 21.4639 31.418C21.1709 31.4727 20.8633 31.5 20.541 31.5ZM28.0635 26.2061V23.7495H32.1895V22.2578H26.1592V31.5H28.0635V27.6914H31.7451V26.2061H28.0635Z" />
  </symbol>

  <symbol id="ppt" viewBox="0 0 48 48">
    <path d="M10.7295 23.7495V26.7202H12.4238C12.7881 26.7202 13.084 26.6609 13.3125 26.5425C13.541 26.4197 13.709 26.2505 13.8145 26.0347C13.9199 25.8188 13.9727 25.5754 13.9727 25.3047C13.9727 25.0295 13.9199 24.7737 13.8145 24.5366C13.709 24.2996 13.541 24.1091 13.3125 23.9653C13.1807 23.8823 13.0264 23.8232 12.8496 23.7881C12.7197 23.7625 12.5781 23.7495 12.4238 23.7495H10.7295Z" />
    <path d="M19.1084 23.7495V26.7202H20.8027C21.167 26.7202 21.4629 26.6609 21.6914 26.5425C21.9199 26.4197 22.0879 26.2505 22.1934 26.0347C22.2988 25.8188 22.3516 25.5754 22.3516 25.3047C22.3516 25.0295 22.2988 24.7737 22.1934 24.5366C22.0879 24.2996 21.9199 24.1091 21.6914 23.9653C21.4629 23.8215 21.167 23.7495 20.8027 23.7495H19.1084Z" />
    <path fill-rule="evenodd" d="M12.5 4.5H30.25L39 13.25V39C39 41.4854 36.9854 43.5 34.5 43.5H12.5C10.0146 43.5 8 41.4854 8 39V36H7.5C5.84277 36 4.5 34.6567 4.5 33V21C4.5 19.3433 5.84277 18 7.5 18H8V9C8 6.51465 10.0146 4.5 12.5 4.5ZM35.5 16V18H11.5V9C11.5 8.44775 11.9473 8 12.5 8H27.5V16H35.5ZM11.5 39V36H35.5V39C35.5 39.5522 35.0527 40 34.5 40H12.5C11.9473 40 11.5 39.5522 11.5 39ZM12.4238 28.2056H10.7295V31.5H8.8252V22.2578H12.4238C13.1484 22.2578 13.7676 22.3889 14.2842 22.6514C14.8047 22.9094 15.2021 23.2671 15.4775 23.7241C15.7529 24.1812 15.8906 24.7039 15.8906 25.292C15.8906 25.8887 15.7529 26.405 15.4775 26.8408C15.2021 27.2766 14.8047 27.613 14.2842 27.8501C14.0156 27.9734 13.7188 28.0647 13.3945 28.1238C13.0947 28.1782 12.7715 28.2056 12.4238 28.2056ZM20.8027 28.2056H19.1084V31.5H17.2041V22.2578H20.8027C21.5273 22.2578 22.1465 22.3889 22.6631 22.6514C23.1836 22.9094 23.5811 23.2671 23.8564 23.7241C24.1318 24.1812 24.2695 24.7039 24.2695 25.292C24.2695 25.377 24.2666 25.4602 24.2617 25.5417C24.2568 25.6089 24.251 25.6748 24.2422 25.7397C24.2246 25.8772 24.1982 26.0098 24.1641 26.1375C24.0947 26.3914 23.9922 26.626 23.8564 26.8408C23.5811 27.2766 23.1836 27.613 22.6631 27.8501C22.1465 28.0872 21.5273 28.2056 20.8027 28.2056ZM29.7148 31.5V23.7495H32.5586V22.2578H25.0176V23.7495H27.8174V31.5H29.7148Z" />
  </symbol>

  <symbol id="xls" viewBox="0 0 48 48">
    <path fill-rule="evenodd" d="M12.5 4.5H30.25L39 13.25V39C39 41.4854 36.9854 43.5 34.5 43.5H12.5C10.0146 43.5 8 41.4854 8 39V36H7.5C5.84277 36 4.5 34.6567 4.5 33V21C4.5 19.3433 5.84277 18 7.5 18H8V9C8 6.51465 10.0146 4.5 12.5 4.5ZM35.5 16V18H11.5V9C11.5 8.44775 11.9473 8 12.5 8H27.5V16H35.5ZM11.5 39V36H35.5V39C35.5 39.5522 35.0527 40 34.5 40H12.5C11.9473 40 11.5 39.5522 11.5 39ZM28.8457 28.6372C28.8965 28.7683 28.9219 28.9165 28.9219 29.0815C28.9219 29.2888 28.8682 29.4751 28.7627 29.6401C28.6611 29.8052 28.502 29.9343 28.2871 30.0273C28.0752 30.1204 27.8047 30.167 27.4746 30.167C27.2031 30.167 26.9531 30.1394 26.7246 30.0845C26.501 30.0295 26.3066 29.9407 26.1406 29.8179C25.9805 29.6951 25.8555 29.5344 25.7666 29.3354C25.7529 29.3044 25.7402 29.2722 25.7285 29.239C25.6953 29.1455 25.6709 29.0437 25.6553 28.9331C25.6406 28.8311 25.6328 28.7219 25.6328 28.6055H23.7227C23.7227 29.126 23.8301 29.5767 24.0469 29.9575C24.1104 30.0706 24.1807 30.1777 24.2578 30.2788C24.3027 30.3384 24.3496 30.3958 24.3994 30.4512C24.5498 30.6187 24.7197 30.7673 24.9102 30.897C25.2734 31.1423 25.6777 31.3264 26.1221 31.4492C26.5664 31.5676 27.0176 31.627 27.4746 31.627C27.5801 31.627 27.6836 31.6245 27.7852 31.6196C27.8672 31.6157 27.9482 31.6101 28.0273 31.6028C28.3213 31.5759 28.5957 31.5269 28.8516 31.4556C29.2617 31.3413 29.6152 31.1741 29.9121 30.9541C30.208 30.7341 30.4346 30.4653 30.5908 30.1479C30.7471 29.8306 30.8262 29.4709 30.8262 29.0688C30.8262 28.688 30.7598 28.3474 30.6289 28.0469C30.498 27.7463 30.3027 27.4778 30.0449 27.2407C29.7871 27.0037 29.4648 26.79 29.0801 26.5996C28.835 26.4768 28.5635 26.3621 28.2676 26.2554C28.1592 26.2166 28.0488 26.1787 27.9346 26.1418L27.7539 26.0854C27.4531 25.9924 27.1885 25.8972 26.96 25.7998C26.7314 25.7024 26.5391 25.5989 26.3828 25.4888C26.2256 25.3787 26.1074 25.2603 26.0273 25.1333C25.9512 25.0063 25.9121 24.8645 25.9121 24.708C25.9121 24.5972 25.9277 24.4924 25.959 24.3938C25.9863 24.3076 26.0264 24.2263 26.0781 24.1494C26.1182 24.0881 26.165 24.0315 26.2188 23.9795C26.3145 23.8882 26.4326 23.8115 26.5723 23.7495C26.793 23.6479 27.0684 23.5972 27.3984 23.5972C27.7402 23.5972 28.0244 23.6565 28.248 23.7749C28.4766 23.8933 28.6465 24.0564 28.7559 24.2637C28.8711 24.4668 28.9277 24.7039 28.9277 24.9746H30.8193C30.8193 24.4246 30.6777 23.9358 30.3945 23.5083C30.3242 23.4011 30.2471 23.2996 30.1621 23.2039C29.9102 22.9177 29.5938 22.6829 29.2129 22.499C28.7051 22.2537 28.1113 22.1309 27.4297 22.1309C26.9307 22.1309 26.4707 22.1921 26.0527 22.3149C25.8574 22.3728 25.6738 22.4424 25.5029 22.5237C25.3105 22.615 25.1338 22.7209 24.9727 22.8418C24.8564 22.9275 24.75 23.02 24.6533 23.1194C24.4961 23.28 24.3662 23.4583 24.2617 23.6543C24.0928 23.9675 24.0078 24.3167 24.0078 24.7017C24.0078 24.8059 24.0137 24.9067 24.0254 25.0042C24.0391 25.127 24.0615 25.2444 24.0928 25.3564C24.1318 25.4954 24.1846 25.6262 24.25 25.749C24.4141 26.0496 24.6387 26.314 24.9219 26.5425C25.21 26.7668 25.54 26.9636 25.9121 27.1328C26.2891 27.302 26.6875 27.4543 27.1055 27.5898C27.4824 27.7083 27.7891 27.8225 28.0264 27.9326C28.0977 27.9658 28.1641 27.999 28.2256 28.0325C28.3691 28.1104 28.4863 28.1892 28.5781 28.269C28.71 28.3792 28.7988 28.5017 28.8457 28.6372ZM10.3926 22.2578L12.1318 25.4824L13.8711 22.2578H16.0488L13.3633 26.8408L16.1182 31.5H13.9219L12.1318 28.2119L10.3418 31.5H8.13281L10.8945 26.8408L8.20312 22.2578H10.3926ZM23.0176 30.0146V31.5H17.0762V22.2578H18.9805V30.0146H23.0176Z" />
  </symbol>

  <symbol id="zip" viewBox="0 0 48 48">
    <path d="M40 12H24L20 8H8C5.8 8 4.02 9.8 4.02 12L4 36C4 38.2 5.8 40 8 40H40C42.2 40 44 38.2 44 36V16C44 13.8 42.2 12 40 12ZM36 24H32V28H36V32H32V36H28V32H32V28H28V24H32V20H28V16H32V20H36V24Z" />
  </symbol>

  <symbol id="wav" viewBox="0 0 48 48">
    <path fill-rule="evenodd" d="M15 4H30H32.75L36.25 7.5L38 9.25L41.5 12.75V15.5V17.5V35.5V38.5C41.5 40.9853 39.4853 43 37 43H15C12.5147 43 10.5 40.9853 10.5 38.5V35.5H10C8.34315 35.5 7 34.1569 7 32.5V20.5C7 18.8431 8.34315 17.5 10 17.5H10.5V8.5C10.5 6.01472 12.5147 4 15 4ZM38 15.5V17.5H14V8.5C14 7.94772 14.4477 7.5 15 7.5H30V15.5H38ZM14 38.5V35.5H38V38.5C38 39.0523 37.5523 39.5 37 39.5H15C14.4477 39.5 14 39.0523 14 38.5ZM13.2725 31H14.0913H14.5039H15.1958L16.6928 24.9346L18.1982 31H18.8901H19.3027H20.1216L22.1655 21.7578H20.2803L19.0291 28.1987L17.5 21.7578H16.9224H16.478H15.894L14.3693 28.1986L13.1074 21.7578H11.2222L13.2725 31ZM27.3452 21.7578H26.8628H26.0439H25.5742L22.1401 31H24.165L24.8044 29.0513H28.1261L28.7671 31H30.7983L27.3452 21.7578ZM27.6355 27.5596H25.2938L26.4632 23.9954L27.6355 27.5596ZM34.1499 31H33.5532L30.354 21.7578H32.4614L34.5499 28.7928L36.6445 21.7578H38.7646L35.5464 31H34.9624H34.1499Z" />
  </symbol>

  <symbol id="defauilt_file" viewBox="0 0 48 48">
  <path xmlns="http://www.w3.org/2000/svg" id="svg_1" fill="#445562" d="m14.9148,4.35246c-2.4853,0 -4.5,2.01472 -4.5,4.5l0,30c0,2.4853 2.0147,4.5 4.5,4.5l22,0c2.4853,0 4.5,-2.0147 4.5,-4.5l0,-25.75l-4.375,-4.375l-4.375,-4.375m5.25,34.4375l0,-22.9375l-8,0l0,-8l-15,0c-0.5523,0 -1,0.44772 -1,1c0,3 0.06844,29.07391 0,30.02448c-0.06844,0.95057 0.96578,0.96684 1.01141,1.02115c0.02281,0.02715 21.0057,-0.02175 21.95057,-0.07743c0.94487,-0.05568 0.90114,-0.38431 1.03802,-1.0307zm-23,1.0625l22,0l-22,0z" clip-rule="evenodd" fill-rule="evenodd"/>  
  </symbol>
</svg>