<svg xmlns="http://www.w3.org/2000/svg">
  <symbol id="like-hand" viewBox="0 0 24 24">
    <path
      d="M1 21H5V9H1V21ZM23 10C23 8.9 22.1 8 21 8H14.69L15.64 3.43L15.67 3.11C15.67 2.7 15.5 2.32 15.23 2.05L14.17 1L7.59 7.59C7.22 7.95 7 8.45 7 9V19C7 20.1 7.9 21 9 21H18C18.83 21 19.54 20.5 19.84 19.78L22.86 12.73C22.95 12.5 23 12.26 23 12V10Z" />
  </symbol>
  <symbol id="arrow-left" viewBox="0 0 24 24">
    <path
      d="M14.7105 15.88L10.8305 12L14.7105 8.11998C15.1005 7.72998 15.1005 7.09998 14.7105 6.70998C14.3205 6.31998 13.6905 6.31998 13.3005 6.70998L8.71047 11.3C8.32047 11.69 8.32047 12.32 8.71047 12.71L13.3005 17.3C13.6905 17.69 14.3205 17.69 14.7105 17.3C15.0905 16.91 15.1005 16.27 14.7105 15.88Z" />
  </symbol>
  <symbol id="arrow-right" viewBox="0 0 24 24">
    <path
      d="M9.29055 15.88L13.1705 12L9.29055 8.11998C8.90055 7.72998 8.90055 7.09998 9.29055 6.70998C9.68055 6.31998 10.3105 6.31998 10.7005 6.70998L15.2905 11.3C15.6805 11.69 15.6805 12.32 15.2905 12.71L10.7005 17.3C10.3105 17.69 9.68055 17.69 9.29055 17.3C8.91055 16.91 8.90055 16.27 9.29055 15.88Z" />
  </symbol>
  <symbol id="arrow-up" viewBox="0 0 24 24">
    <path
      d="M8.11973 14.71L11.9997 10.83L15.8797 14.71C16.2697 15.1 16.8997 15.1 17.2897 14.71C17.6797 14.32 17.6797 13.69 17.2897 13.3L12.6997 8.70998C12.3097 8.31998 11.6797 8.31998 11.2897 8.70998L6.69973 13.3C6.30973 13.69 6.30973 14.32 6.69973 14.71C7.08973 15.09 7.72973 15.1 8.11973 14.71Z" />
  </symbol>
  <symbol id="arrow-down" viewBox="0 0 24 24">
    <path
      d="M8.11973 9.29006L11.9997 13.1701L15.8797 9.29006C16.2697 8.90006 16.8997 8.90006 17.2897 9.29006C17.6797 9.68006 17.6797 10.3101 17.2897 10.7001L12.6997 15.2901C12.3097 15.6801 11.6797 15.6801 11.2897 15.2901L6.69973 10.7001C6.30973 10.3101 6.30973 9.68006 6.69973 9.29006C7.08973 8.91006 7.72973 8.90006 8.11973 9.29006Z" />
  </symbol>
  <symbol id="search" viewBox="0 0 24 24">
    <path
      d="M15.4996 13.9999H14.7096L14.4296 13.7299C15.6296 12.3299 16.2496 10.4199 15.9096 8.38989C15.4396 5.60989 13.1196 3.38989 10.3196 3.04989C6.08965 2.52989 2.52965 6.08989 3.04965 10.3199C3.38965 13.1199 5.60965 15.4399 8.38965 15.9099C10.4196 16.2499 12.3296 15.6299 13.7296 14.4299L13.9996 14.7099V15.4999L18.2496 19.7499C18.6596 20.1599 19.3296 20.1599 19.7396 19.7499C20.1496 19.3399 20.1496 18.6699 19.7396 18.2599L15.4996 13.9999ZM9.49965 13.9999C7.00965 13.9999 4.99965 11.9899 4.99965 9.49989C4.99965 7.00989 7.00965 4.99989 9.49965 4.99989C11.9896 4.99989 13.9996 7.00989 13.9996 9.49989C13.9996 11.9899 11.9896 13.9999 9.49965 13.9999Z" />
  </symbol>
  <symbol id="check" viewBox="0 0 24 24">
    <path
      d="M8.99965 16.1699L5.52965 12.6999C5.13965 12.3099 4.50965 12.3099 4.11965 12.6999C3.72965 13.0899 3.72965 13.7199 4.11965 14.1099L8.29965 18.2899C8.68965 18.6799 9.31965 18.6799 9.70965 18.2899L20.2896 7.70995C20.6796 7.31995 20.6796 6.68995 20.2896 6.29995C19.8997 5.90995 19.2696 5.90995 18.8796 6.29995L8.99965 16.1699Z" />
  </symbol>
  <symbol id="like" viewBox="0 0 24 24">
    <path
      d="M12 21.35L10.55 20.03C5.4 15.36 2 12.28 2 8.5C2 5.42 4.42 3 7.5 3C9.24 3 10.91 3.81 12 5.09C13.09 3.81 14.76 3 16.5 3C19.58 3 22 5.42 22 8.5C22 12.28 18.6 15.36 13.45 20.04L12 21.35Z" />
  </symbol>
  <symbol id="comment" viewBox="0 0 24 24">
    <path
      d="M21.99 4C21.99 2.9 21.1 2 20 2H4C2.9 2 2 2.9 2 4V16C2 17.1 2.9 18 4 18H18L22 22L21.99 4Z" />
  </symbol>
  <symbol id="eye-on" viewBox="0 0 24 24">
    <path
      d="M12 4.5C7 4.5 2.73 7.61 1 12C2.73 16.39 7 19.5 12 19.5C17 19.5 21.27 16.39 23 12C21.27 7.61 17 4.5 12 4.5ZM12 17C9.24 17 7 14.76 7 12C7 9.24 9.24 7 12 7C14.76 7 17 9.24 17 12C17 14.76 14.76 17 12 17ZM12 9C10.34 9 9 10.34 9 12C9 13.66 10.34 15 12 15C13.66 15 15 13.66 15 12C15 10.34 13.66 9 12 9Z" />
  </symbol>
  <symbol id="cake" viewBox="0 0 24 24">
    <path
      d="M12 6C13.11 6 14 5.1 14 4C14 3.62 13.9 3.27 13.71 2.97L12 0L10.29 2.97C10.1 3.27 10 3.62 10 4C10 5.1 10.9 6 12 6ZM16.6 15.99L15.53 14.92L14.45 15.99C13.15 17.29 10.87 17.3 9.56 15.99L8.49 14.92L7.4 15.99C6.75 16.64 5.88 17 4.96 17C4.23 17 3.56 16.77 3 16.39V21C3 21.55 3.45 22 4 22H20C20.55 22 21 21.55 21 21V16.39C20.44 16.77 19.77 17 19.04 17C18.12 17 17.25 16.64 16.6 15.99ZM18 9H13V7H11V9H6C4.34 9 3 10.34 3 12V13.54C3 14.62 3.88 15.5 4.96 15.5C5.48 15.5 5.98 15.3 6.34 14.93L8.48 12.8L10.61 14.93C11.35 15.67 12.64 15.67 13.38 14.93L15.52 12.8L17.65 14.93C18.02 15.3 18.51 15.5 19.03 15.5C20.11 15.5 20.99 14.62 20.99 13.54V12C21 10.34 19.66 9 18 9Z" />
  </symbol>
  <symbol id="lock" viewBox="0 0 24 24">
    <path
      d="M18 8H17V6C17 3.24 14.76 1 12 1C9.24 1 7 3.24 7 6V8H6C4.9 8 4 8.9 4 10V20C4 21.1 4.9 22 6 22H18C19.1 22 20 21.1 20 20V10C20 8.9 19.1 8 18 8ZM12 17C10.9 17 10 16.1 10 15C10 13.9 10.9 13 12 13C13.1 13 14 13.9 14 15C14 16.1 13.1 17 12 17ZM15.1 8H8.9V6C8.9 4.29 10.29 2.9 12 2.9C13.71 2.9 15.1 4.29 15.1 6V8Z" />
  </symbol>
  <symbol id="info" viewBox="0 0 24 24">
    <path
      d="M12 2C6.48 2 2 6.48 2 12C2 17.52 6.48 22 12 22C17.52 22 22 17.52 22 12C22 6.48 17.52 2 12 2ZM13 17H11V11H13V17ZM13 9H11V7H13V9Z" />
  </symbol>
  <symbol id="control-minus" viewBox="0 0 24 24">
    <path
      d="M19 3H5C3.9 3 3 3.9 3 5V19C3 20.1 3.9 21 5 21H19C20.1 21 21 20.1 21 19V5C21 3.9 20.1 3 19 3ZM16 13H8C7.45 13 7 12.55 7 12C7 11.45 7.45 11 8 11H16C16.55 11 17 11.45 17 12C17 12.55 16.55 13 16 13Z" />
  </symbol>
  <symbol id="control-plus" viewBox="0 0 24 24">
    <path
      d="M5 3H19C20.1 3 21 3.9 21 5V19C21 20.1 20.1 21 19 21H5C3.9 21 3 20.1 3 19V5C3 3.9 3.9 3 5 3ZM13 13H16C16.55 13 17 12.55 17 12C17 11.45 16.55 11 16 11H13V8C13 7.44772 12.5523 7 12 7C11.4477 7 11 7.44772 11 8V11H8C7.45 11 7 11.45 7 12C7 12.55 7.45 13 8 13H11V16C11 16.5523 11.4477 17 12 17C12.5523 17 13 16.5523 13 16V13Z" />
  </symbol>
  <symbol id="X" viewBox="0 0 24 24">
    <path
      d="M18.3 5.71022C17.91 5.32022 17.28 5.32022 16.89 5.71022L12 10.5902L7.10997 5.70021C6.71997 5.31021 6.08997 5.31021 5.69997 5.70021C5.30997 6.09021 5.30997 6.72022 5.69997 7.11022L10.59 12.0002L5.69997 16.8902C5.30997 17.2802 5.30997 17.9102 5.69997 18.3002C6.08997 18.6902 6.71997 18.6902 7.10997 18.3002L12 13.4102L16.89 18.3002C17.28 18.6902 17.91 18.6902 18.3 18.3002C18.69 17.9102 18.69 17.2802 18.3 16.8902L13.41 12.0002L18.3 7.11022C18.68 6.73022 18.68 6.09022 18.3 5.71022Z" />
  </symbol>
  <symbol id="pen" viewBox="0 0 24 24">
    <path
      d="M3 17.2505V21.0005H6.75L17.81 9.94055L14.06 6.19055L3 17.2505ZM20.71 7.04055C21.1 6.65055 21.1 6.02055 20.71 5.63055L18.37 3.29055C17.98 2.90055 17.35 2.90055 16.96 3.29055L15.13 5.12055L18.88 8.87055L20.71 7.04055Z" />
  </symbol>
  <symbol id="print" viewBox="0 0 24 24">
    <path
      d="M19 8H5C3.34 8 2 9.34 2 11V17H6V21H18V17H22V11C22 9.34 20.66 8 19 8ZM16 19H8V14H16V19ZM19 12C18.45 12 18 11.55 18 11C18 10.45 18.45 10 19 10C19.55 10 20 10.45 20 11C20 11.55 19.55 12 19 12ZM18 3H6V7H18V3Z" />
  </symbol>
  <symbol id="bell" viewBox="0 0 24 24">
    <path
      d="M12 22.0005C12.6193 22.0013 13.2235 21.8091 13.7285 21.4507C14.2335 21.0922 14.6143 20.5853 14.818 20.0005H9.182C9.38566 20.5853 9.76648 21.0922 10.2715 21.4507C10.7765 21.8091 11.3807 22.0013 12 22.0005ZM19 14.5865V10.0005C19 6.78349 16.815 4.07349 13.855 3.25849C13.562 2.52049 12.846 2.00049 12 2.00049C11.154 2.00049 10.438 2.52049 10.145 3.25849C7.185 4.07449 5 6.78349 5 10.0005V14.5865L3.293 16.2935C3.19996 16.3862 3.12617 16.4964 3.07589 16.6177C3.0256 16.7391 2.99981 16.8691 3 17.0005V18.0005C3 18.2657 3.10536 18.5201 3.29289 18.7076C3.48043 18.8951 3.73478 19.0005 4 19.0005H20C20.2652 19.0005 20.5196 18.8951 20.7071 18.7076C20.8946 18.5201 21 18.2657 21 18.0005V17.0005C21.0002 16.8691 20.9744 16.7391 20.9241 16.6177C20.8738 16.4964 20.8 16.3862 20.707 16.2935L19 14.5865Z" />
  </symbol>
  <symbol id="chat" viewBox="0 0 24 24">
    <path
      d="M12 2C6.486 2 2 5.589 2 10C2 12.908 3.898 15.515 7 16.934V22L12.34 17.995C17.697 17.852 22 14.32 22 10C22 5.589 17.514 2 12 2Z" />
  </symbol>
  <symbol id="phone" viewBox="0 0 24 24">
    <path
      d="M20.01 15.38C18.78 15.38 17.59 15.18 16.48 14.82C16.13 14.7 15.74 14.79 15.47 15.06L13.9 17.03C11.07 15.68 8.42 13.13 7.01 10.2L8.96 8.54C9.23 8.26 9.31 7.87 9.2 7.52C8.83 6.41 8.64 5.22 8.64 3.99C8.64 3.45 8.19 3 7.65 3H4.19C3.65 3 3 3.24 3 3.99C3 13.28 10.73 21 20.01 21C20.72 21 21 20.37 21 19.82V16.37C21 15.83 20.55 15.38 20.01 15.38Z" />
  </symbol>
  <symbol id="add-photo" viewBox="0 0 24 24">
    <path
      d="M19 7V9.99C19 9.99 17.01 10 17 9.99V7H14C14 7 14.01 5.01 14 5H17V2H19V5H22V7H19ZM16 11V8H13V5H5C3.9 5 3 5.9 3 7V19C3 20.1 3.9 21 5 21H17C18.1 21 19 20.1 19 19V11H16ZM5 19L8 15L10 18L13 14L17 19H5Z" />
  </symbol>
  <symbol id="download" viewBox="0 0 24 24">
    <path d="M5 20H19V18H5V20ZM19 9H15V3H9V9H5L12 16L19 9Z" />
  </symbol>
  <symbol id="tag-user" viewBox="0 0 24 24">
    <path
      d="M12.4 5C8.30002 5 4.90002 8.4 4.90002 12.5C4.90002 16.6 8.30002 20 12.4 20H16.2V18.5H12.4C9.10002 18.5 6.40002 15.8 6.40002 12.5C6.40002 9.2 9.10002 6.5 12.4 6.5C15.7 6.5 18.4 9.2 18.4 12.5V13.6C18.4 14.2 17.9 14.8 17.3 14.8C16.7 14.8 16.2 14.2 16.2 13.6V12.5C16.2 10.4 14.5 8.7 12.4 8.7C10.3 8.7 8.70002 10.4 8.70002 12.5C8.70002 14.6 10.4 16.3 12.5 16.3C13.5 16.3 14.5 15.9 15.2 15.2C15.7 15.9 16.5 16.3 17.4 16.3C18.9 16.3 20 15.1 20 13.6V12.5C19.9 8.4 16.6 5 12.4 5ZM12.4 14.7C11.2 14.7 10.1 13.7 10.1 12.5C10.1 11.3 11.1 10.2 12.4 10.2C13.7 10.2 14.7 11.2 14.7 12.5C14.7 13.8 13.6 14.7 12.4 14.7Z" />
  </symbol>
  <symbol id="filter" viewBox="0 0 24 24">
    <path
      d="M4.25006 5.61C6.27006 8.2 10.0001 13 10.0001 13V19C10.0001 19.55 10.4501 20 11.0001 20H13.0001C13.5501 20 14.0001 19.55 14.0001 19V13C14.0001 13 17.7201 8.2 19.7401 5.61C20.2501 4.95 19.7801 4 18.9501 4H5.04006C4.21006 4 3.74006 4.95 4.25006 5.61Z" />
  </symbol>
  <symbol id="home" viewBox="0 0 24 24">
    <path d="M10 20V14H14V20H19V12H22L12 3L2 12H5V20H10Z" />
  </symbol>
  <symbol id="services" viewBox="0 0 24 24">
    <rect x="3" y="3" width="8" height="8" />
    <rect x="3" y="13" width="8" height="8" />
    <rect x="13" y="3" width="8" height="8" rx="4" />
    <rect x="13" y="13" width="8" height="8" />
  </symbol>
  <symbol id="stop" viewBox="0 0 24 24">
    <path
      d="M15 3H5C3.9 3 3.01 3.9 3.01 5L3 19C3 20.1 3.89 21 4.99 21H19C20.1 21 21 20.1 21 19V9L15 3ZM8 17C7.45 17 7 16.55 7 16C7 15.45 7.45 15 8 15C8.55 15 9 15.45 9 16C9 16.55 8.55 17 8 17ZM8 13C7.45 13 7 12.55 7 12C7 11.45 7.45 11 8 11C8.55 11 9 11.45 9 12C9 12.55 8.55 13 8 13ZM8 9C7.45 9 7 8.55 7 8C7 7.45 7.45 7 8 7C8.55 7 9 7.45 9 8C9 8.55 8.55 9 8 9ZM14 10V4.5L19.5 10H14Z" />
  </symbol>
  <symbol id="menu" viewBox="0 0 24 24">
    <path d="M3 18H21V16H3V18ZM3 13H21V11H3V13ZM3 6V8H21V6H3Z" />
  </symbol>
  <symbol id="pin" viewBox="0 0 24 24">
    <path
      d="M16 9V4H17C17.55 4 18 3.55 18 3C18 2.45 17.55 2 17 2H7C6.45 2 6 2.45 6 3C6 3.55 6.45 4 7 4H8V9C8 10.66 6.66 12 5 12V14H10.97V21L11.97 22L12.97 21V14H19V12C17.34 12 16 10.66 16 9Z" />
  </symbol>
  <symbol id="clock" viewBox="0 0 24 24">
    <path
      d="M12 2C6.5 2 2 6.5 2 12C2 17.5 6.5 22 12 22C17.5 22 22 17.5 22 12C22 6.5 17.5 2 12 2ZM16.2 16.2L11 13V7H12.5V12.2L17 14.9L16.2 16.2Z" />
  </symbol>
  <symbol id="document-download" viewBox="0 0 24 24">
    <path
      d="M4 4C4 3.46957 4.21071 2.96086 4.58579 2.58579C4.96086 2.21071 5.46957 2 6 2H14C14.2652 2.00006 14.5195 2.10545 14.707 2.293L19.707 7.293C19.8946 7.48049 19.9999 7.73481 20 8V20C20 20.5304 19.7893 21.0391 19.4142 21.4142C19.0391 21.7893 18.5304 22 18 22H6C5.46957 22 4.96086 21.7893 4.58579 21.4142C4.21071 21.0391 4 20.5304 4 20V4ZM17.586 8L14 4.414V8H17.586ZM12 4H6V20H18V10H13C12.7348 10 12.4804 9.89464 12.2929 9.70711C12.1054 9.51957 12 9.26522 12 9V4ZM12 11.5C12.2652 11.5 12.5196 11.6054 12.7071 11.7929C12.8946 11.9804 13 12.2348 13 12.5V15.086L13.293 14.793C13.4816 14.6108 13.7342 14.51 13.9964 14.5123C14.2586 14.5146 14.5094 14.6198 14.6948 14.8052C14.8802 14.9906 14.9854 15.2414 14.9877 15.5036C14.99 15.7658 14.8892 16.0184 14.707 16.207L12.707 18.207C12.5195 18.3945 12.2652 18.4998 12 18.4998C11.7348 18.4998 11.4805 18.3945 11.293 18.207L9.293 16.207C9.19749 16.1148 9.12131 16.0044 9.0689 15.8824C9.01649 15.7604 8.9889 15.6292 8.98775 15.4964C8.9866 15.3636 9.0119 15.2319 9.06218 15.109C9.11246 14.9861 9.18671 14.8745 9.28061 14.7806C9.3745 14.6867 9.48615 14.6125 9.60905 14.5622C9.73194 14.5119 9.86362 14.4866 9.9964 14.4877C10.1292 14.4889 10.2604 14.5165 10.3824 14.5689C10.5044 14.6213 10.6148 14.6975 10.707 14.793L11 15.086V12.5C11 12.2348 11.1054 11.9804 11.2929 11.7929C11.4804 11.6054 11.7348 11.5 12 11.5Z" />
  </symbol>
  <symbol id="cross" viewBox="0 0 20 20">
    <path fill-rule="evenodd" clip-rule="evenodd"
      d="M10.0003 18.3333C14.6027 18.3333 18.3337 14.6023 18.3337 9.99996C18.3337 5.39759 14.6027 1.66663 10.0003 1.66663C5.39795 1.66663 1.66699 5.39759 1.66699 9.99996C1.66699 14.6023 5.39795 18.3333 10.0003 18.3333ZM12.4087 13.5751C12.7337 13.9001 13.2587 13.9001 13.5837 13.5751C13.9003 13.2585 13.9003 12.7251 13.5837 12.4001L11.1753 10.0001L13.5837 7.60014C13.9087 7.27514 13.9087 6.75014 13.5837 6.42514C13.2587 6.10014 12.7337 6.10014 12.4087 6.42514L10.0003 8.82514L7.59199 6.41681C7.26699 6.0918 6.74199 6.0918 6.41699 6.41681C6.09199 6.74181 6.09199 7.26681 6.41699 7.5918L8.82533 10.0001L6.41699 12.4085C6.09199 12.7335 6.09199 13.2585 6.41699 13.5835C6.74199 13.9085 7.26699 13.9085 7.59199 13.5835L10.0003 11.1751L12.4087 13.5751Z" />
  </symbol>
  <symbol id="group" viewBox="0 0 24 24">
    <path
      d="M12 12.75C13.63 12.75 15.07 13.14 16.24 13.65C17.32 14.13 18 15.21 18 16.38V18H6V16.39C6 15.21 6.68 14.13 7.76 13.66C8.93 13.14 10.37 12.75 12 12.75ZM4 13C5.1 13 6 12.1 6 11C6 9.9 5.1 9 4 9C2.9 9 2 9.9 2 11C2 12.1 2.9 13 4 13ZM5.13 14.1C4.76 14.04 4.39 14 4 14C3.01 14 2.07 14.21 1.22 14.58C0.48 14.9 0 15.62 0 16.43V18H4.5V16.39C4.5 15.56 4.73 14.78 5.13 14.1ZM20 13C21.1 13 22 12.1 22 11C22 9.9 21.1 9 20 9C18.9 9 18 9.9 18 11C18 12.1 18.9 13 20 13ZM24 16.43C24 15.62 23.52 14.9 22.78 14.58C21.93 14.21 20.99 14 20 14C19.61 14 19.24 14.04 18.87 14.1C19.27 14.78 19.5 15.56 19.5 16.39V18H24V16.43ZM12 6C13.66 6 15 7.34 15 9C15 10.66 13.66 12 12 12C10.34 12 9 10.66 9 9C9 7.34 10.34 6 12 6Z" />
  </symbol>
  <symbol id="thank" viewBox="0 0 24 24">
    <path
      d="M9.68 13.69L12 11.93L14.31 13.69L13.43 10.84L15.75 9H12.91L12 6.19L11.09 9H8.25L10.56 10.84L9.68 13.69ZM20 10C20 5.58 16.42 2 12 2C7.58 2 4 5.58 4 10C4 12.03 4.76 13.87 6 15.28V23L12 21L18 23V15.28C19.24 13.87 20 12.03 20 10ZM12 4C15.31 4 18 6.69 18 10C18 13.31 15.31 16 12 16C8.69 16 6 13.31 6 10C6 6.69 8.69 4 12 4Z" />
  </symbol>
  <symbol id="more" viewBox="0 0 24 24">
    <path
      d="M12 8C13.1 8 14 7.1 14 6C14 4.9 13.1 4 12 4C10.9 4 10 4.9 10 6C10 7.1 10.9 8 12 8ZM12 10C10.9 10 10 10.9 10 12C10 13.1 10.9 14 12 14C13.1 14 14 13.1 14 12C14 10.9 13.1 10 12 10ZM12 16C10.9 16 10 16.9 10 18C10 19.1 10.9 20 12 20C13.1 20 14 19.1 14 18C14 16.9 13.1 16 12 16Z" />
  </symbol>
  <symbol id="emoji-people" viewBox="0 0 26 26">
    <path
      d="M13.027 6.65704C14.2212 6.65704 15.1892 5.71044 15.1892 4.54275C15.1892 3.37506 14.2212 2.42847 13.027 2.42847C11.8329 2.42847 10.8649 3.37506 10.8649 4.54275C10.8649 5.71044 11.8329 6.65704 13.027 6.65704Z" />
    <path
      d="M17.2325 8.88761C16.8109 8.47532 16.0865 7.71418 14.6811 7.71418C14.4541 7.71418 13.146 7.71418 11.9352 7.71418C8.9622 7.70361 6.54058 5.33561 6.54058 2.42847H4.37842C4.37842 5.76904 6.6595 8.60218 9.78382 9.5219V23.5713H11.946V17.2285H14.1081V23.5713H16.2703V10.9385L20.5406 15.1142L22.0649 13.6236L17.2325 8.88761Z" />
  </symbol>
  <symbol id="attach" viewBox="0 0 24 24">
    <path
      d="M6.33582 12.7304L12.7006 6.3656C13.0071 6.05918 13.371 5.81612 13.7714 5.65031C14.1719 5.48451 14.601 5.3992 15.0344 5.39925C15.4678 5.39931 15.897 5.48473 16.2974 5.65064C16.6978 5.81655 17.0616 6.0597 17.368 6.3662C17.6744 6.67271 17.9175 7.03657 18.0833 7.437C18.2491 7.83744 18.3344 8.26662 18.3344 8.70003C18.3343 9.13343 18.2489 9.56259 18.083 9.96298C17.9171 10.3634 17.6739 10.7272 17.3674 11.0336L9.73062 18.6704C9.44911 18.9519 9.06732 19.11 8.66922 19.11C8.27111 19.11 7.88932 18.9519 7.60782 18.6704C7.32631 18.3889 7.16817 18.0071 7.16817 17.609C7.16817 17.2109 7.32631 16.8291 7.60782 16.5476L14.3962 9.7592C14.5552 9.58859 14.6417 9.36294 14.6376 9.12978C14.6335 8.89661 14.5391 8.67415 14.3742 8.50926C14.2093 8.34436 13.9868 8.24991 13.7536 8.24579C13.5205 8.24168 13.2948 8.32823 13.1242 8.4872L6.33582 15.2756C5.7168 15.8946 5.36904 16.7342 5.36904 17.6096C5.36904 18.485 5.7168 19.3246 6.33582 19.9436C6.95483 20.5626 7.7944 20.9104 8.66982 20.9104C9.54524 20.9104 10.3848 20.5626 11.0038 19.9436L18.6394 12.3056C19.5775 11.3455 20.0991 10.0542 20.0913 8.7119C20.0835 7.36961 19.5468 6.08452 18.5977 5.13536C17.6485 4.1862 16.3634 3.6495 15.0211 3.64169C13.6788 3.63387 12.3876 4.15556 11.4274 5.0936L5.06382 11.4572C4.90484 11.6278 4.81829 11.8535 4.82241 12.0866C4.82652 12.3198 4.92097 12.5423 5.08587 12.7071C5.25077 12.872 5.47323 12.9665 5.70639 12.9706C5.93955 12.9747 6.16521 12.8882 6.33582 12.7292V12.7304Z" />
  </symbol>
  <symbol id="plus" viewBox="0 0 26 26">
    <path
      d="M14.9993 10.8332H10.8327V14.9998C10.8327 15.4582 10.4577 15.8332 9.99935 15.8332C9.54102 15.8332 9.16602 15.4582 9.16602 14.9998V10.8332H4.99935C4.54102 10.8332 4.16602 10.4582 4.16602 9.99984C4.16602 9.5415 4.54102 9.1665 4.99935 9.1665H9.16602V4.99984C9.16602 4.5415 9.54102 4.1665 9.99935 4.1665C10.4577 4.1665 10.8327 4.5415 10.8327 4.99984V9.1665H14.9993C15.4577 9.1665 15.8327 9.5415 15.8327 9.99984C15.8327 10.4582 15.4577 10.8332 14.9993 10.8332Z" />
  </symbol>
  <symbol id="plus-1" viewBox="0 0 20 20">
    <path
      d="M15 10.8334H10.8334V15.0001C10.8334 15.4584 10.4584 15.8334 10 15.8334C9.54169 15.8334 9.16669 15.4584 9.16669 15.0001V10.8334H5.00002C4.54169 10.8334 4.16669 10.4584 4.16669 10.0001C4.16669 9.54175 4.54169 9.16675 5.00002 9.16675H9.16669V5.00008C9.16669 4.54175 9.54169 4.16675 10 4.16675C10.4584 4.16675 10.8334 4.54175 10.8334 5.00008V9.16675H15C15.4584 9.16675 15.8334 9.54175 15.8334 10.0001C15.8334 10.4584 15.4584 10.8334 15 10.8334Z" />
  </symbol>
  <symbol id="progress" viewBox="0 0 24 24">
    <path d="M21 3L20.8536 15.1464L17.6211 11.9139L3 21L12.0861 6.37888L8.85362 3.14638L21 3Z" />
  </symbol>
  <symbol id="archive" viewBox="0 0 24 24" fill="none">
    <path d="M10.6 12.9129H13.4M6.12 9.86944V18.9999H17.88V9.86944M5 4.99988H19V9.26075H5V4.99988Z"
      stroke="#A5B2BA"
      stroke-width="2" stroke-linecap="round" stroke-linejoin="round" />
  </symbol>
  <symbol id="send" viewBox="0 0 24 24">
    <path d="M2.51 21L23.5 12L2.51 3L2.5 10L17.5 12L2.5 14L2.51 21Z" />
  </symbol>
  <symbol id="calendar" viewBox="0 0 24 24">
    <path
      d="M19 4H18V2H16V4H8V2H6V4H5C3.89 4 3.01 4.9 3.01 6L3 20C3 21.1 3.89 22 5 22H19C20.1 22 21 21.1 21 20V6C21 4.9 20.1 4 19 4ZM19 20H5V10H19V20ZM9 14H7V12H9V14ZM13 14H11V12H13V14ZM17 14H15V12H17V14ZM9 18H7V16H9V18ZM13 18H11V16H13V18ZM17 18H15V16H17V18Z" />
  </symbol>
  <symbol id="double_check" viewBox="0 0 24 24">
    <path
      d="M8.77207 7.76905L7.93873 6.93754L7.5835 7.29518L6.87305 8.01046L8.27475 9.28545C8.55183 9.56441 8.99942 9.56441 9.27649 9.28545L16.7931 1.71777C17.0702 1.43881 17.0702 0.98818 16.7931 0.70922C16.516 0.43026 16.0684 0.43026 15.7914 0.70922L8.77207 7.76905Z" />
    <path
      d="M3.67678 7.77443L1.2115 5.2924C0.934426 5.01344 0.486839 5.01344 0.209761 5.2924C-0.0673162 5.57136 -0.0673162 6.02199 0.209761 6.30094L3.17946 9.29083C3.45654 9.56979 3.90413 9.56979 4.18121 9.29083L11.6978 1.72314C11.9749 1.44418 11.9749 0.993551 11.6978 0.714591C11.4207 0.435631 10.9732 0.435631 10.6961 0.714591L3.67678 7.77443Z" />
  </symbol>
  <symbol id="attention" viewBox="0 0 24 24">
    <path
      d="M12 22C6.48 22 2 17.52 2 12C2 6.48 6.48 2 12 2C17.52 2 22 6.48 22 12C22 17.52 17.52 22 12 22ZM13 7H11V13H13V7ZM13 15H11V17H13V15Z" />
  </symbol>
  <symbol id="image" viewBox="0 0 40 40">
    <path
      d="M35 31.6667V8.33333C35 6.5 33.5 5 31.6667 5H8.33333C6.5 5 5 6.5 5 8.33333V31.6667C5 33.5 6.5 35 8.33333 35H31.6667C33.5 35 35 33.5 35 31.6667ZM14.1667 22.5L18.3333 27.5167L24.1667 20L31.6667 30H8.33333L14.1667 22.5Z" />
    <clipPath>
      <rect width="40" height="40" />
    </clipPath>
  </symbol>
  <symbol id="trash" viewBox="0 0 24 24">
    <path
      d="M6 19C6 20.1 6.9 21 8 21H16C17.1 21 18 20.1 18 19V7H6V19ZM19 4H15.5L14.5 3H9.5L8.5 4H5V6H19V4Z" />
  </symbol>
  <symbol id="checkbox-false" viewBox="0 0 24 24">
    <path
      d="M18 19H6C5.45 19 5 18.55 5 18V6C5 5.45 5.45 5 6 5H18C18.55 5 19 5.45 19 6V18C19 18.55 18.55 19 18 19ZM19 3H5C3.9 3 3 3.9 3 5V19C3 20.1 3.9 21 5 21H19C20.1 21 21 20.1 21 19V5C21 3.9 20.1 3 19 3Z" />
  </symbol>
  <symbol id="checkbox-true" viewBox="0 0 24 24">
    <path
      d="M19 3H5C3.9 3 3 3.9 3 5V19C3 20.1 3.9 21 5 21H19C20.1 21 21 20.1 21 19V5C21 3.9 20.1 3 19 3ZM10.71 16.29C10.32 16.68 9.69 16.68 9.3 16.29L5.71 12.7C5.32 12.31 5.32 11.68 5.71 11.29C6.1 10.9 6.73 10.9 7.12 11.29L10 14.17L16.88 7.29C17.27 6.9 17.9 6.9 18.29 7.29C18.68 7.68 18.68 8.31 18.29 8.7L10.71 16.29Z" />
  </symbol>
  <symbol id="radio-false" viewBox="0 0 24 24">
    <path
      d="M12 2C6.48 2 2 6.48 2 12C2 17.52 6.48 22 12 22C17.52 22 22 17.52 22 12C22 6.48 17.52 2 12 2ZM12 20C7.58 20 4 16.42 4 12C4 7.58 7.58 4 12 4C16.42 4 20 7.58 20 12C20 16.42 16.42 20 12 20Z" />
  </symbol>
  <symbol id="radio-true" viewBox="0 0 24 24">
    <path
      d="M12 2C6.48 2 2 6.48 2 12C2 17.52 6.48 22 12 22C17.52 22 22 17.52 22 12C22 6.48 17.52 2 12 2ZM12 20C7.58 20 4 16.42 4 12C4 7.58 7.58 4 12 4C16.42 4 20 7.58 20 12C20 16.42 16.42 20 12 20Z" />
    <path
      d="M12 17C14.7614 17 17 14.7614 17 12C17 9.23858 14.7614 7 12 7C9.23858 7 7 9.23858 7 12C7 14.7614 9.23858 17 12 17Z" />
  </symbol>
  <symbol id="photo-camera" viewBox="0 0 24 22">
    <path
      d="M23.7648 5.85214V19.0874C23.7648 20.3053 22.7767 21.2933 21.5589 21.2933H2.44123C1.2234 21.2933 0.235352 20.3053 0.235352 19.0874V5.85214C0.235352 4.63431 1.2234 3.64625 2.44123 3.64625H6.48535L7.05061 2.13431C7.3723 1.27493 8.19491 0.705078 9.11403 0.705078H14.8815C15.8006 0.705078 16.6232 1.27493 16.9449 2.13431L17.5148 3.64625H21.5589C22.7767 3.64625 23.7648 4.63431 23.7648 5.85214ZM17.5148 12.4698C17.5148 9.4275 15.0423 6.95508 12.0001 6.95508C8.95778 6.95508 6.48535 9.4275 6.48535 12.4698C6.48535 15.5121 8.95778 17.9845 12.0001 17.9845C15.0423 17.9845 17.5148 15.5121 17.5148 12.4698ZM16.0442 12.4698C16.0442 14.6986 14.2289 16.5139 12.0001 16.5139C9.7712 16.5139 7.95594 14.6986 7.95594 12.4698C7.95594 10.2409 9.7712 8.42567 12.0001 8.42567C14.2289 8.42567 16.0442 10.2409 16.0442 12.4698ZM10.5295 12.4698C10.5295 11.661 11.1912 10.9992 12.0001 10.9992C12.4045 10.9992 12.7354 10.6683 12.7354 10.2639C12.7354 9.85949 12.4045 9.52861 12.0001 9.52861C10.3778 9.52861 9.05888 10.8475 9.05888 12.4698C9.05888 12.8742 9.38976 13.2051 9.79418 13.2051C10.1986 13.2051 10.5295 12.8742 10.5295 12.4698Z" />
  </symbol>
  <symbol id="question-mark" viewBox="0 0 17 24">
    <path
      d="M8.46969 0C4.72818 0 2.30479 1.53295 0.402178 4.26684C0.0570372 4.76278 0.163443 5.44275 0.644897 5.80781L2.66699 7.34105C3.15322 7.70972 3.84505 7.62352 4.22572 7.14661C5.3999 5.67562 6.27088 4.82869 8.10496 4.82869C9.54702 4.82869 11.3307 5.75677 11.3307 7.15514C11.3307 8.21227 10.458 8.75517 9.03416 9.55345C7.37371 10.4844 5.1764 11.643 5.1764 14.5412V15C5.1764 15.6213 5.68007 16.125 6.3014 16.125H9.69847C10.3198 16.125 10.8235 15.6213 10.8235 15V14.7294C10.8235 12.7203 16.6954 12.6367 16.6954 7.2C16.6955 3.10575 12.4485 0 8.46969 0ZM7.99996 17.5059C6.20952 17.5059 4.75288 18.9625 4.75288 20.753C4.75288 22.5434 6.20952 24 7.99996 24C9.7904 24 11.247 22.5434 11.247 20.7529C11.247 18.9625 9.7904 17.5059 7.99996 17.5059Z" />
  </symbol>
  <symbol id="user-services" viewBox="0 0 16 16">
    <path
      d="M0 4H4V0H0V4ZM6 16H10V12H6V16ZM0 16H4V12H0V16ZM0 10H4V6H0V10ZM6 10H10V6H6V10ZM12 0V4H16V0H12ZM6 4H10V0H6V4ZM12 10H16V6H12V10ZM12 16H16V12H12V16Z" />
  </symbol>
  <symbol id="vacation" viewBox="0 0 20 18">
    <path
      d="M14.4709 2.25C13.1019 2.25 11.8648 2.66273 10.8947 3.32226C10.2482 1.41223 8.10345 0 5.52958 0C2.73071 0 0.412734 1.66078 0.008928 3.82711C-0.0553059 4.17621 0.234962 4.5 0.625574 4.5H2.22274L3.33382 2.8125L4.49558 5.16515C4.37302 5.27308 4.24281 5.36519 4.12546 5.48402C2.14636 7.48828 1.66721 10.3219 2.89529 12.1423C3.0932 12.4355 3.52443 12.4566 3.80047 12.1774L8.13782 7.7857C8.21316 11.27 7.41562 14.6865 6.9948 16.2232C6.75488 17.1084 7.39965 18 8.3208 18H11.4606C11.7893 18.0011 12.1076 17.883 12.3577 17.6671C12.6079 17.4512 12.7735 17.1518 12.8245 16.823C13.4126 13.1358 12.7654 9.1589 12.2182 6.75H14.4446L15.5556 5.0625L16.6667 6.75H19.3749C19.7656 6.75 20.0558 6.42621 19.9909 6.07711C19.5878 3.91078 17.2702 2.25 14.4709 2.25ZM11.2155 16.3125H8.69718C9.19785 14.3972 10.0075 10.5536 9.74992 6.75H10.5027C11.0169 8.91597 11.7183 12.793 11.2155 16.3125Z" />
  </symbol>
  <symbol id="ppe" viewBox="0 0 24 24">
    <g clip-path="url(#clip0_12159_365738)">
      <g clip-path="url(#clip1_12159_365738)">
        <path
          d="M12 14.9414C8.99625 14.9414 3 16.5178 3 19.6472V22.0001H21V19.6472C21 16.5178 15.0037 14.9414 12 14.9414Z"
          fill="#AB052D" />
        <path
          d="M7.2075 7.88222H16.8037C17.1075 7.88222 17.355 7.6234 17.355 7.30576V7.28223C17.355 6.96459 17.1075 6.70578 16.8037 6.70578H16.5C16.5 4.96464 15.5887 3.47056 14.25 2.64704V3.76467C14.25 4.09407 14.0025 4.35289 13.6875 4.35289C13.3725 4.35289 13.125 4.09407 13.125 3.76467V2.1647C12.765 2.07059 12.3937 2 12 2C11.6062 2 11.235 2.07059 10.875 2.1647V3.76467C10.875 4.09407 10.6275 4.35289 10.3125 4.35289C9.9975 4.35289 9.75 4.09407 9.75 3.76467V2.64704C8.41125 3.47056 7.5 4.96464 7.5 6.70578H7.2075C6.90375 6.70578 6.65625 6.96459 6.65625 7.28223V7.31753C6.65625 7.6234 6.90375 7.88222 7.2075 7.88222Z"
          fill="#AB052D" />
        <path
          d="M11.9997 12.5869C14.0922 12.5869 15.836 11.0811 16.3422 9.05762H7.65723C8.16348 11.0811 9.90723 12.5869 11.9997 12.5869Z"
          fill="#AB052D" />
      </g>
    </g>
    <defs>
      <clipPath id="clip0_12159_365738">
        <rect width="24" height="24" fill="white" />
      </clipPath>
      <clipPath id="clip1_12159_365738">
        <rect width="24" height="24" fill="white" />
      </clipPath>
    </defs>
  </symbol>
  <symbol id="winter" viewBox="0 0 20 20">
    <path
      d="M20 9H15.83L19.07 5.76L17.66 4.34L13 9H11V7L15.66 2.34L14.24 0.93L11 4.17V0H9V4.17L5.76 0.93L4.34 2.34L9 7V9H7L2.34 4.34L0.93 5.76L4.17 9H0V11H4.17L0.93 14.24L2.34 15.66L7 11H9V13L4.34 17.66L5.76 19.07L9 15.83V20H11V15.83L14.24 19.07L15.66 17.66L11 13V11H13L17.66 15.66L19.07 14.24L15.83 11H20V9Z" />
  </symbol>
  <symbol id="vacation-label" viewBox="0 0 14 14" fill="none">
    <rect x="1" y="1" width="12" height="12" rx="1" fill="#05AB83" />
    <path
      d="M9.23547 3.625C8.55094 3.625 7.93239 3.83137 7.44734 4.16113C7.12408 3.20611 6.05172 2.5 4.76479 2.5C3.36536 2.5 2.20637 3.33039 2.00446 4.41355C1.97235 4.5881 2.11748 4.75 2.31279 4.75H3.11137L3.66691 3.90625L4.24779 5.08258C4.18651 5.13654 4.12141 5.1826 4.06273 5.24201C3.07318 6.24414 2.8336 7.66094 3.44764 8.57113C3.5466 8.71773 3.76222 8.72828 3.90023 8.58871L6.06891 6.39285C6.10658 8.13502 5.70781 9.84326 5.4974 10.6116C5.37744 11.0542 5.69983 11.5 6.1604 11.5H7.73031C7.89466 11.5005 8.05378 11.4415 8.17886 11.3335C8.30395 11.2256 8.38673 11.0759 8.41223 10.9115C8.70632 9.06789 8.38272 7.07945 8.10912 5.875H9.22228L9.77781 5.03125L10.3333 5.875H11.6875C11.8828 5.875 12.0279 5.7131 11.9954 5.53855C11.7939 4.45539 10.6351 3.625 9.23547 3.625ZM7.60775 10.6562H6.34859C6.59893 9.69859 7.00377 7.77678 6.87496 5.875H7.25134C7.50844 6.95799 7.85913 8.8965 7.60775 10.6562Z"
      fill="white" />
    <rect x="0.5" y="0.5" width="13" height="13" rx="1.5" stroke="white" />
    <clipPath>
      <rect x="1" y="1" width="12" height="12" rx="1" fill="white" />
    </clipPath>
    <clipPath>
      <rect width="12" height="12" fill="white" transform="translate(1 1)" />
    </clipPath>
  </symbol>
  <symbol id="fired-label" viewBox="0 0 16 16" fill="none">
    <rect x="1" y="1" width="14" height="14" rx="1" fill="#445562" />
    <path
      d="M6.83366 10.3333V9.75H2.75616L2.75033 12.0833C2.75033 12.7308 3.26949 13.25 3.91699 13.25H12.0837C12.7312 13.25 13.2503 12.7308 13.2503 12.0833V9.75H9.16699V10.3333H6.83366ZM12.667 5.08333H10.3278V3.91667L9.16116 2.75H6.82783L5.66116 3.91667V5.08333H3.33366C2.69199 5.08333 2.16699 5.60833 2.16699 6.25V8C2.16699 8.6475 2.68616 9.16667 3.33366 9.16667H6.83366V8H9.16699V9.16667H12.667C13.3087 9.16667 13.8337 8.64167 13.8337 8V6.25C13.8337 5.60833 13.3087 5.08333 12.667 5.08333ZM9.16699 5.08333H6.83366V3.91667H9.16699V5.08333Z"
      fill="white" />
    <rect x="0.5" y="0.5" width="15" height="15" rx="1.5" stroke="#FFF7F9" />
    <clipPath id="clip0_7288_54032">
      <rect x="1" y="1" width="14" height="14" rx="1" fill="white" />
    </clipPath>
    <clipPath id="clip1_7288_54032">
      <rect width="14" height="14" fill="white" transform="translate(1 1)" />
    </clipPath>
  </symbol>
  <symbol id="summer" viewBox="0 0 22 22">
    <path
      d="M10 3V1C10 0.45 10.45 0 11 0C11.55 0 12 0.45 12 1V3C12 3.55 11.55 4 11 4C10.45 4 10 3.55 10 3ZM17.36 6.05L18.77 4.63C19.16 4.24 19.16 3.61 18.77 3.22C18.38 2.83 17.75 2.83 17.36 3.22L15.95 4.64C15.56 5.03 15.56 5.66 15.95 6.05C16.34 6.44 16.97 6.44 17.36 6.05ZM21 10H19C18.45 10 18 10.45 18 11C18 11.55 18.45 12 19 12H21C21.55 12 22 11.55 22 11C22 10.45 21.55 10 21 10ZM11 18C10.45 18 10 18.45 10 19V21C10 21.55 10.45 22 11 22C11.55 22 12 21.55 12 21V19C12 18.45 11.55 18 11 18ZM4.64 6.05L3.22 4.64C2.83 4.25 2.83 3.61 3.22 3.23C3.61 2.85 4.25 2.84 4.63 3.23L6.04 4.64C6.43 5.03 6.43 5.67 6.04 6.05C5.65 6.43 5.02 6.44 4.64 6.05ZM15.95 15.95C15.56 16.34 15.56 16.98 15.95 17.36L17.36 18.77C17.75 19.16 18.39 19.16 18.77 18.77C19.16 18.38 19.16 17.74 18.77 17.36L17.36 15.95C16.98 15.56 16.34 15.56 15.95 15.95ZM1 12H3C3.55 12 4 11.55 4 11C4 10.45 3.55 10 3 10H1C0.45 10 0 10.45 0 11C0 11.55 0.45 12 1 12ZM4.64 18.78L6.05 17.37C6.44 16.98 6.44 16.34 6.05 15.96C5.66 15.58 5.02 15.57 4.64 15.96L3.23 17.37C2.84 17.76 2.84 18.4 3.23 18.78C3.61 19.17 4.25 19.17 4.64 18.78ZM11 5C7.69 5 5 7.69 5 11C5 14.31 7.69 17 11 17C14.31 17 17 14.31 17 11C17 7.69 14.31 5 11 5Z" />
  </symbol>
  <symbol id="documents-widget" viewBox="0 0 24 24">
    <g clip-path="url(#clip0_12561_368663)">
      <path
        d="M15 3H5C3.9 3 3.01 3.9 3.01 5L3 19C3 20.1 3.89 21 4.99 21H19C20.1 21 21 20.1 21 19V9L15 3ZM8 17C7.45 17 7 16.55 7 16C7 15.45 7.45 15 8 15C8.55 15 9 15.45 9 16C9 16.55 8.55 17 8 17ZM8 13C7.45 13 7 12.55 7 12C7 11.45 7.45 11 8 11C8.55 11 9 11.45 9 12C9 12.55 8.55 13 8 13ZM8 9C7.45 9 7 8.55 7 8C7 7.45 7.45 7 8 7C8.55 7 9 7.45 9 8C9 8.55 8.55 9 8 9ZM14 10V4.5L19.5 10H14Z"
        fill="#AB052D" />
    </g>
    <defs>
      <clipPath id="clip0_12561_368663">
        <rect width="24" height="24" fill="white" />
      </clipPath>
    </defs>
  </symbol>
  <symbol id="bookmark" viewBox="0 0 20 20">
    <g clip-path="url(#clip0_13581_1668)">
      <path
        d="M14.1665 2.5H5.83317C4.9165 2.5 4.1665 3.25 4.1665 4.16667V17.5L9.99984 15L15.8332 17.5V4.16667C15.8332 3.25 15.0832 2.5 14.1665 2.5Z"
        _fill="white" />
    </g>
    <defs>
      <clipPath id="clip0_13581_1668">
        <rect width="20" height="20" _fill="white" />
      </clipPath>
    </defs>
  </symbol>
</svg>