<svg width="320" height="320" viewBox="0 0 320 320" fill="none" xmlns="http://www.w3.org/2000/svg">
<rect width="320" height="320" fill="#fff"/>
<path d="M196.732 181.344C207.967 181.344 217.105 172.205 217.105 160.971V99.2932C217.105 88.059 207.967 78.918 196.732 78.918H83.8701C72.6378 78.918 63.5 88.059 63.5 99.2932V160.971C63.5 172.205 72.6378 181.344 83.8701 181.344H98.6955V202.67C98.6955 205.264 100.257 207.601 102.652 208.593C103.446 208.921 104.279 209.08 105.104 209.08C106.772 209.08 108.412 208.429 109.638 207.202L135.491 181.344H196.732Z" fill="#AB052D"/>
<path d="M237.662 132.258H227.355V160.972C227.355 177.861 213.615 191.601 196.726 191.601H139.734L127.75 203.587C129.194 211.983 136.521 218.393 145.322 218.393H194.945L215.756 239.206C216.982 240.433 218.622 241.084 220.29 241.084C221.115 241.084 221.948 240.923 222.742 240.596C225.137 239.603 226.698 237.267 226.698 234.674V218.392H237.663C247.496 218.392 255.495 210.39 255.495 200.556V150.092C255.495 140.258 247.495 132.258 237.662 132.258Z" fill="#AB052D"/>
</svg>
